<?xml version="1.0" encoding="UTF-8" standalone="no"?>
<svg
   version="1.2"
   width="468.79999mm"
   height="128.50999mm"
   viewBox="0 0 46879.999 12850.999"
   preserveAspectRatio="xMidYMid"
   fill-rule="evenodd"
   stroke-width="28.222"
   stroke-linejoin="round"
   xml:space="preserve"
   id="svg1834"
   sodipodi:docname="truth2.svg"
   inkscape:version="1.2.2 (732a01da63, 2022-12-09, custom)"
   xmlns:inkscape="http://www.inkscape.org/namespaces/inkscape"
   xmlns:sodipodi="http://sodipodi.sourceforge.net/DTD/sodipodi-0.dtd"
   xmlns="http://www.w3.org/2000/svg"
   xmlns:svg="http://www.w3.org/2000/svg"
   xmlns:ooo="http://xml.openoffice.org/svg/export"><sodipodi:namedview
   id="namedview1836"
   pagecolor="#ffffff"
   bordercolor="#000000"
   borderopacity="0.25"
   inkscape:showpageshadow="2"
   inkscape:pageopacity="0.0"
   inkscape:pagecheckerboard="0"
   inkscape:deskcolor="#d1d1d1"
   inkscape:document-units="mm"
   showgrid="false"
   inkscape:zoom="0.52160714"
   inkscape:cx="893.39267"
   inkscape:cy="621.15714"
   inkscape:window-width="1920"
   inkscape:window-height="1031"
   inkscape:window-x="0"
   inkscape:window-y="25"
   inkscape:window-maximized="1"
   inkscape:current-layer="svg1834" />
 <defs
   class="ClipPathGroup"
   id="defs1734">
  <clipPath
   id="presentation_clip_path"
   clipPathUnits="userSpaceOnUse">
   <rect
   x="0"
   y="0"
   width="59400"
   height="42000"
   id="rect1728" />
  </clipPath>
  <clipPath
   id="presentation_clip_path_shrink"
   clipPathUnits="userSpaceOnUse">
   <rect
   x="59"
   y="42"
   width="59282"
   height="41916"
   id="rect1731" />
  </clipPath>
 </defs>
 <defs
   class="TextShapeIndex"
   id="defs1738">
  <g
   ooo:slide="id1"
   ooo:id-list="id3 id4 id5 id6 id7 id8 id9"
   id="g1736" />
 </defs>
 <defs
   class="EmbeddedBulletChars"
   id="defs1770">
  <g
   id="bullet-char-template-57356"
   transform="matrix(4.8828125e-4,0,0,-4.8828125e-4,0,0)">
   <path
   d="M 580,1141 1163,571 580,0 -4,571 Z"
   id="path1740" />
  </g>
  <g
   id="bullet-char-template-57354"
   transform="matrix(4.8828125e-4,0,0,-4.8828125e-4,0,0)">
   <path
   d="M 8,1128 H 1137 V 0 H 8 Z"
   id="path1743" />
  </g>
  <g
   id="bullet-char-template-10146"
   transform="matrix(4.8828125e-4,0,0,-4.8828125e-4,0,0)">
   <path
   d="M 174,0 602,739 174,1481 1456,739 Z M 1358,739 309,1346 659,739 Z"
   id="path1746" />
  </g>
  <g
   id="bullet-char-template-10132"
   transform="matrix(4.8828125e-4,0,0,-4.8828125e-4,0,0)">
   <path
   d="M 2015,739 1276,0 H 717 l 543,543 H 174 v 393 h 1086 l -543,545 h 557 z"
   id="path1749" />
  </g>
  <g
   id="bullet-char-template-10007"
   transform="matrix(4.8828125e-4,0,0,-4.8828125e-4,0,0)">
   <path
   d="m 0,-2 c -7,16 -16,29 -25,39 l 381,530 c -94,256 -141,385 -141,387 0,25 13,38 40,38 9,0 21,-2 34,-5 21,4 42,12 65,25 l 27,-13 111,-251 280,301 64,-25 24,25 c 21,-10 41,-24 62,-43 C 886,937 835,863 770,784 769,783 710,716 594,584 L 774,223 c 0,-27 -21,-55 -63,-84 l 16,-20 C 717,90 699,76 672,76 641,76 570,178 457,381 L 164,-76 c -22,-34 -53,-51 -92,-51 -42,0 -63,17 -64,51 -7,9 -10,24 -10,44 0,9 1,19 2,30 z"
   id="path1752" />
  </g>
  <g
   id="bullet-char-template-10004"
   transform="matrix(4.8828125e-4,0,0,-4.8828125e-4,0,0)">
   <path
   d="M 285,-33 C 182,-33 111,30 74,156 52,228 41,333 41,471 c 0,78 14,145 41,201 34,71 87,106 158,106 53,0 88,-31 106,-94 l 23,-176 c 8,-64 28,-97 59,-98 l 735,706 c 11,11 33,17 66,17 42,0 63,-15 63,-46 V 965 c 0,-36 -10,-64 -30,-84 L 442,47 C 390,-6 338,-33 285,-33 Z"
   id="path1755" />
  </g>
  <g
   id="bullet-char-template-9679"
   transform="matrix(4.8828125e-4,0,0,-4.8828125e-4,0,0)">
   <path
   d="M 813,0 C 632,0 489,54 383,161 276,268 223,411 223,592 c 0,181 53,324 160,431 106,107 249,161 430,161 179,0 323,-54 432,-161 108,-107 162,-251 162,-431 0,-180 -54,-324 -162,-431 C 1136,54 992,0 813,0 Z"
   id="path1758" />
  </g>
  <g
   id="bullet-char-template-8226"
   transform="matrix(4.8828125e-4,0,0,-4.8828125e-4,0,0)">
   <path
   d="m 346,457 c -73,0 -137,26 -191,78 -54,51 -81,114 -81,188 0,73 27,136 81,188 54,52 118,78 191,78 73,0 134,-26 185,-79 51,-51 77,-114 77,-187 0,-75 -25,-137 -76,-188 -50,-52 -112,-78 -186,-78 z"
   id="path1761" />
  </g>
  <g
   id="bullet-char-template-8211"
   transform="matrix(4.8828125e-4,0,0,-4.8828125e-4,0,0)">
   <path
   d="M -4,459 H 1135 V 606 H -4 Z"
   id="path1764" />
  </g>
  <g
   id="bullet-char-template-61548"
   transform="matrix(4.8828125e-4,0,0,-4.8828125e-4,0,0)">
   <path
   d="m 173,740 c 0,163 58,303 173,419 116,115 255,173 419,173 163,0 302,-58 418,-173 116,-116 174,-256 174,-419 0,-163 -58,-303 -174,-418 C 1067,206 928,148 765,148 601,148 462,206 346,322 231,437 173,577 173,740 Z"
   id="path1767" />
  </g>
 </defs>
 
 
<g
   inkscape:groupmode="layer"
   id="layer2"
   inkscape:label="Layer 1"
   transform="translate(-3046,-2295)"><path
     fill="#729fcf"
     stroke="none"
     d="M 9642,4884 V 14975 H 7121 V 4884 H 3234 V 2936 h 10304 v 1948 z m 4341,10091 V 7900 c 0,-507 -7,-930 -21,-1269 -14,-339 -30,-639 -47,-901 h 2290 c 17,102 40,414 68,935 29,521 43,867 43,1038 h 34 c 233,-649 441,-1106 624,-1371 182,-265 398,-462 649,-590 251,-128 564,-192 940,-192 307,0 555,43 743,129 v 2007 c -387,-85 -729,-128 -1025,-128 -598,0 -1064,242 -1397,726 -333,485 -500,1202 -500,2154 v 4537 z m 9071,-9245 v 5186 c 0,1624 547,2436 1641,2436 581,0 1049,-250 1405,-748 356,-498 534,-1138 534,-1918 V 5730 h 2401 v 7177 c 0,786 23,1476 69,2068 h -2290 c -69,-820 -103,-1433 -103,-1837 h -42 c -319,701 -725,1211 -1218,1530 -493,318 -1078,478 -1756,478 -979,0 -1731,-300 -2255,-901 -524,-601 -786,-1483 -786,-2645 V 5730 Z m 10792,9399 c -706,0 -1250,-192 -1632,-577 -382,-384 -572,-967 -572,-1747 V 7353 H 30471 V 5730 h 1290 l 752,-2170 h 1504 v 2170 h 1751 v 1623 h -1751 v 4803 c 0,450 85,781 256,995 171,214 436,320 795,320 188,0 455,-39 803,-119 v 1486 c -593,194 -1267,291 -2025,291 z m 5825,-7554 c 325,-706 732,-1219 1222,-1538 490,-318 1073,-478 1751,-478 980,0 1732,302 2256,906 524,604 786,1486 786,2649 v 5861 H 43294 V 9797 c 0,-1623 -550,-2435 -1649,-2435 -581,0 -1050,249 -1406,748 -356,498 -534,1137 -534,1918 v 4947 H 37304 V 2295 h 2401 v 3461 c 0,620 -23,1227 -68,1819 z"
     id="path1779" /><path
     fill="#ff0000"
     stroke="none"
     d="m 9523,13235 c -3,-54 -5,148 -7,419 0,-72 0,-145 0,-217 0,99 0,200 0,301 -2,-159 -4,-303 -8,-304 0,14 0,27 0,40 0,-13 0,-27 0,-40 -1,1 -1,4 -2,10 0,-47 0,-94 0,-140 0,-32 0,-71 -1,-87 0,102 0,362 0,543 -3,-91 -4,150 -5,419 0,-261 -3,-560 -4,-763 0,46 0,117 -1,193 0,-133 0,-245 0,-351 -1,36 -1,76 -2,118 -1,30 -1,59 -1,89 0,70 0,176 0,264 0,-35 -1,-70 -1,-104 0,9 0,18 0,26 0,143 -4,284 -4,431 -2,-183 -5,-346 -9,-293 0,-102 0,-204 0,-307 -3,-19 -4,348 -6,754 0,-123 0,-246 0,-369 0,169 -1,341 -1,513 -1,-269 -3,-514 -7,-512 v 68 c 0,-23 0,-44 0,-67 -1,2 -1,7 -2,17 0,-79 0,-158 1,-237 -1,-53 -1,-104 -2,-149 0,308 0,618 0,927 0,-21 -1,-31 -1,-33 -2,9 -3,363 -4,752 0,-445 -3,-953 -4,-1300 0,80 0,201 -1,330 1,-230 1,-425 1,-609 -1,-73 -2,-141 -3,-189 0,35 0,74 0,115 0,25 0,50 1,75 -1,120 -2,242 -2,365 0,119 0,300 0,451 0,-61 -1,-120 -1,-177 v 45 c 0,244 -4,489 -4,740 -2,-203 -3,-391 -5,-471 0,14 0,27 0,41 0,-15 0,-32 0,-47 -2,-39 -3,-49 -5,-17 1,-128 1,-256 1,-384 -2,108 -3,392 -3,703 0,-314 -2,-659 -3,-957 -1,180 -3,363 -3,548 -1,-136 -2,-264 -4,-359 -1,202 -3,406 -3,614 -2,-311 -5,-589 -10,-494 1,-205 1,-410 1,-615 -1,-16 -2,-27 -2,-27 v 69 c 0,-23 -1,-45 -1,-68 0,3 -1,8 -1,17 0,-79 0,-157 0,-236 0,-54 -1,-104 -1,-150 0,309 0,618 0,927 -1,-20 -1,-31 -1,-32 -2,9 -3,363 -5,752 1,-445 -3,-954 -3,-1300 0,79 -1,201 -1,331 0,-285 0,-501 0,-676 -1,57 -2,145 -2,250 -1,61 -1,121 -1,183 0,119 -1,298 -1,449 0,-60 0,-119 0,-176 0,15 0,31 0,46 -1,244 -4,487 -5,738 -2,-310 -4,-589 -9,-494 0,-129 0,-258 0,-388 0,77 -1,169 -1,271 0,-205 -2,-434 -3,-622 0,105 0,177 0,283 -3,-142 -4,238 -6,665 1,-228 -1,-471 -1,-700 -2,92 -3,182 -3,277 -2,-109 -3,-210 -5,-264 -1,179 -4,359 -4,543 0,-83 -1,-161 -2,-231 0,90 0,181 0,271 -3,-116 -6,188 -8,528 0,-279 -3,-558 -3,-831 v -50 c 0,63 0,128 0,195 0,-124 0,-251 0,-370 0,-3 -1,-5 -1,-5 v 68 c 0,-23 0,-44 0,-67 -1,2 -1,7 -2,17 0,-79 0,-158 0,-237 0,-10 0,-18 0,-27 0,125 0,222 0,382 0,-145 0,-281 -1,-370 0,32 0,73 0,108 0,228 0,456 0,685 -1,-21 -1,-31 -1,-33 -1,1 -1,10 -1,22 -1,218 -1,442 -2,655 0,-118 0,-209 0,-315 -1,118 -1,248 -1,390 0,-445 -4,-953 -4,-1300 0,80 0,200 -1,330 0,-205 0,-377 0,-543 -1,5 -1,39 -2,94 0,68 -1,136 -1,206 0,119 0,300 0,451 -1,-61 -1,-120 -1,-177 v 45 c 0,244 -4,489 -5,740 -1,-203 -2,-391 -5,-471 0,14 0,27 0,41 0,-15 0,-32 0,-47 -1,-39 -2,-49 -4,-18 0,-127 0,-255 1,-383 -2,107 -3,392 -4,703 1,-309 -1,-646 -2,-940 0,67 -1,141 -1,221 0,-31 0,-62 0,-94 -1,133 -3,267 -3,404 -1,-136 -2,-264 -3,-359 -1,203 -3,407 -3,615 -2,-310 -5,-589 -9,-493 0,-150 0,-301 0,-451 -1,-20 -3,-26 -4,-9 0,-55 0,-110 0,-164 v 1 c 0,-21 0,-42 0,-62 0,-28 0,-55 0,-82 0,-3 0,6 -1,19 0,222 0,444 0,666 -1,-20 -1,-31 -1,-32 -2,9 -3,363 -4,752 0,-246 -1,-509 -2,-755 -1,-152 -3,-263 -5,-262 v 69 c 0,-24 -1,-45 -1,-68 v 1 c 0,88 0,169 0,254 0,-60 0,-119 -1,-176 0,15 0,31 0,46 0,96 -1,192 -1,289 0,48 0,96 0,144 -1,-17 -1,-25 -1,-29 -1,111 -2,222 -2,335 0,-34 0,-64 -1,-96 0,137 -1,319 -1,510 0,-286 -2,-595 -3,-874 -1,-51 -2,-69 -4,-33 0,-180 0,-360 0,-541 0,79 -1,157 -1,236 0,120 0,300 0,451 0,-60 -1,-119 -1,-176 v 44 c 0,245 -4,490 -4,741 -2,-202 -3,-390 -5,-470 0,14 0,27 0,41 0,-15 0,-32 0,-47 -1,-39 -3,-49 -4,-17 0,-128 0,-255 0,-383 -1,107 -2,392 -3,703 0,-290 -1,-603 -2,-884 -1,123 -2,245 -3,370 0,-33 0,-61 0,-93 -1,66 -1,132 -1,199 0,-23 0,-43 0,-65 -3,-84 -5,56 -7,269 0,17 0,35 0,52 0,-6 0,-11 0,-16 -1,70 -1,145 -1,224 0,-211 -2,-423 -3,-632 -1,-77 -3,-112 -5,-69 0,-127 0,-254 0,-381 -1,363 -3,813 -3,1226 -1,-435 -1,-830 -3,-843 0,1 0,11 -1,33 1,-41 0,-83 0,-124 -1,85 -2,393 -3,727 1,-341 -1,-717 -2,-1031 -1,98 -2,221 -3,353 0,-192 0,-382 0,-571 0,136 0,273 0,410 -1,-195 -1,-377 -2,-526 0,52 0,103 0,155 0,119 0,298 -1,449 0,-60 0,-119 0,-176 0,15 0,31 0,46 -1,244 -4,488 -4,739 -2,-310 -5,-588 -10,-493 1,-321 1,-643 0,-966 0,-5 -1,-7 -1,-7 v 64 c 0,-21 0,-42 0,-63 -1,2 -1,7 -2,16 0,-73 0,-143 0,-184 0,-28 0,-54 -1,-78 0,161 0,477 0,763 -2,-142 -4,239 -5,666 0,-412 -3,-883 -3,-1204 -1,74 -1,187 -1,308 0,-516 0,-670 -2,-891 0,112 -1,227 -1,343 0,15 0,31 1,46 -1,63 -1,161 -2,276 0,110 0,278 0,418 0,-42 0,-82 0,-122 -1,226 -5,451 -5,683 -1,-82 -1,-160 -2,-230 0,90 0,181 0,271 -4,-115 -6,188 -8,529 0,-279 -3,-558 -3,-831 v -49 c 0,63 0,128 0,195 0,-168 0,-369 0,-503 0,-138 -1,-274 -1,-409 0,-32 1,-63 1,-96 0,-248 -1,-310 -1,-446 -1,263 -2,595 -2,1215 0,-145 0,-281 -1,-370 0,385 -3,943 -3,1438 -1,-435 -2,-830 -3,-843 0,1 -1,11 -1,33 0,-344 1,-687 1,-1031 -1,50 -1,104 -1,163 0,88 0,176 0,264 -1,-12 -1,-19 -1,-23 -1,25 -1,50 -1,76 0,-26 0,-52 0,-77 -3,-10 -5,257 -6,553 0,-192 0,-382 0,-571 0,136 -1,273 -1,411 0,-160 0,-307 -1,-440 -1,-125 -3,-227 -6,-227 0,13 0,26 0,40 0,-14 0,-27 -1,-41 0,2 0,5 -1,11 0,-47 0,-94 0,-140 0,-32 0,-71 -1,-87 0,102 0,362 0,544 -3,-91 -4,149 -5,419 0,-261 -3,-560 -4,-763 0,46 0,117 -1,193 1,-132 1,-244 0,-351 0,36 -1,77 -2,119 0,30 -1,59 -1,89 0,70 0,176 0,264 0,-35 0,-70 -1,-103 0,8 0,17 0,25 0,144 -4,284 -4,431 -2,-182 -4,-345 -9,-291 0,-102 0,-204 0,-307 -2,-18 -4,349 -6,755 1,-123 1,-246 1,-369 -1,169 -1,341 -1,513 -2,-269 -4,-513 -7,-510 v 68 c 0,-23 0,-44 -1,-67 0,2 0,8 -1,17 0,-79 0,-157 0,-236 0,-17 0,-31 0,-48 0,-19 0,-37 -1,-55 0,294 0,587 0,881 -1,-21 -1,-31 -1,-33 -2,10 -3,365 -4,754 0,-445 -3,-953 -3,-1299 -1,79 -1,200 -1,330 0,-186 0,-340 0,-493 -2,-1 -3,169 -4,371 0,106 0,220 0,331 0,-61 0,-119 0,-176 v 44 c -1,245 -5,490 -5,741 -1,-202 -2,-389 -5,-469 0,14 0,27 0,41 0,-15 0,-32 0,-47 -1,-38 -2,-48 -4,-16 1,-128 1,-256 1,-384 -2,108 -2,393 -3,704 0,-314 -2,-659 -3,-957 -1,182 -3,365 -3,550 -1,-136 -2,-264 -3,-358 -1,203 -4,407 -4,615 -2,-304 -4,-577 -8,-496 -1,68 -1,136 -1,204 0,-20 0,-30 -1,-32 -1,10 -2,364 -4,753 1,-303 -1,-633 -2,-924 -1,134 -2,376 -2,643 0,-318 -2,-665 -3,-965 0,12 0,24 0,36 0,119 0,300 0,450 0,-60 -1,-119 -1,-176 v 45 c 0,244 -4,490 -4,741 -1,-184 -3,-355 -4,-445 -1,54 -1,110 -1,164 0,-79 -1,-156 -1,-225 -1,-8 -2,-4 -3,15 0,-73 0,-145 0,-217 0,-14 0,-29 -1,-39 0,140 -1,350 -2,576 0,-201 0,-411 -1,-616 0,3 0,8 -1,15 0,-89 0,-177 0,-266 0,-29 0,-61 0,-90 -1,181 -3,364 -3,550 -1,-136 -2,-264 -3,-358 -1,107 -2,214 -3,322 0,10 0,19 0,29 -1,87 -1,176 -1,264 -2,-310 -4,-588 -9,-492 0,-108 0,-217 0,-325 -1,145 -3,289 -3,437 0,-82 -1,-160 -1,-230 0,90 -1,181 -1,271 -1,-43 -2,-27 -3,27 -1,131 -1,290 -2,460 0,-101 0,-206 0,-311 -1,98 -2,223 -2,355 0,-279 -3,-558 -3,-831 v -50 c 0,63 -1,129 -1,195 0,-167 0,-369 1,-502 0,-14 -1,-27 -1,-41 0,6 -1,35 -1,77 0,110 0,231 0,348 0,-60 -1,-119 -1,-176 0,15 0,31 0,46 0,214 -3,428 -4,646 0,146 -1,292 -1,433 0,-210 0,-407 -1,-560 -1,-204 -4,-343 -7,-271 0,-108 0,-215 0,-323 0,41 -1,82 -1,124 0,-32 0,-62 -1,-92 0,74 -1,154 -1,239 0,-114 0,-227 0,-340 0,-4 -1,-7 -1,-10 0,63 0,126 0,190 0,-77 0,-148 0,-221 -1,-17 -1,-31 -2,-42 -1,49 -2,353 -3,687 0,-291 -2,-608 -3,-884 -1,140 -2,379 -3,633 0,-124 0,-247 0,-370 0,169 -1,341 -1,513 -1,-172 -2,-333 -3,-427 -2,131 -3,262 -3,395 -1,-82 -1,-160 -2,-230 0,90 0,181 0,271 -1,-21 -1,-28 -2,-23 v 64 c 0,-20 0,-30 -1,-32 0,1 0,2 0,6 0,5 0,6 0,12 -2,77 -3,393 -4,735 0,-106 0,-217 0,-327 0,33 0,62 -1,95 1,-279 -2,-557 -3,-830 0,35 0,57 0,94 v -50 c 0,34 0,67 0,101 0,-168 0,-369 0,-502 0,-78 0,-154 0,-232 -1,-43 -1,-84 -2,-115 0,35 0,74 0,115 0,1 0,2 0,3 0,24 0,48 1,72 -1,90 -1,182 -2,275 0,55 0,85 0,146 0,-37 0,-59 0,-94 0,13 0,26 0,39 0,119 0,300 0,450 0,-60 -1,-119 -1,-176 v 45 c 0,122 -1,244 -2,367 -1,148 -1,295 -1,438 0,-100 0,-175 0,-266 -1,67 -1,135 -1,202 -2,-202 -3,-389 -5,-469 0,14 0,26 0,41 0,-15 0,-32 0,-47 -1,-39 -3,-49 -4,-16 0,-128 0,-256 0,-384 -1,108 -2,393 -3,704 0,-315 -1,-659 -2,-957 -1,181 -4,364 -4,550 -1,-136 -2,-264 -3,-358 -1,202 -3,407 -3,615 -2,-310 -5,-589 -9,-492 0,-204 0,-410 0,-615 -1,-15 -1,-26 -2,-25 v 68 c 0,-23 0,-44 0,-67 -1,2 -1,8 -1,18 0,-79 0,-158 0,-237 0,-9 0,-16 0,-25 0,122 -1,244 -1,366 0,-13 0,-19 -1,-20 0,153 0,305 0,457 0,-20 0,-31 -1,-32 -1,10 -3,364 -4,754 1,-445 -3,-952 -3,-1298 0,79 0,201 -1,331 1,-267 0,-472 0,-642 0,23 -1,46 -1,71 0,29 -1,59 -1,89 0,70 0,176 0,264 0,-35 0,-70 0,-103 0,8 0,17 0,25 -1,23 -1,46 -1,69 0,119 0,289 0,435 0,-60 0,-119 -1,-176 0,15 0,31 0,46 0,244 -4,490 -4,740 -2,-309 -4,-587 -9,-490 1,-249 1,-497 0,-746 -1,103 -2,396 -4,716 0,-123 0,-246 0,-369 0,169 0,341 0,513 -1,-139 -2,-270 -3,-364 -1,127 -1,287 -2,464 0,-196 0,-403 -1,-602 0,-4 -1,-7 -1,-6 v 68 c 0,-23 0,-45 0,-67 -1,2 -1,7 -2,17 0,-79 0,-157 0,-236 0,-54 0,-104 -1,-150 0,309 0,619 0,928 0,-21 -1,-31 -1,-32 -2,9 -3,364 -4,754 0,-284 -1,-589 -2,-865 0,17 0,35 0,52 -1,-79 -1,-154 -2,-222 v 26 c 0,79 0,158 0,238 -4,-115 -6,190 -8,531 0,-25 0,-49 0,-74 0,54 0,110 0,165 -2,-202 -3,-389 -5,-469 0,15 0,27 0,42 0,-16 0,-32 0,-47 -1,-35 -2,-44 -4,-21 0,185 -1,372 -1,551 0,-204 0,-393 -1,-544 0,100 0,203 -1,319 0,-199 0,-406 -1,-609 0,6 0,14 0,25 0,-45 0,-90 0,-135 0,-79 -1,-163 -1,-238 -1,182 -3,365 -3,550 -1,-135 -2,-263 -3,-357 -1,203 -4,408 -4,615 -2,-309 -4,-586 -9,-489 1,-205 1,-410 1,-615 -1,-16 -2,-27 -2,-26 v 68 c 0,-23 0,-44 0,-67 -1,3 -1,8 -2,18 0,-79 0,-158 0,-237 0,-53 0,-104 -1,-149 0,309 0,618 0,927 0,-20 -1,-30 -1,-32 -2,10 -3,365 -4,754 0,-445 -3,-952 -3,-1298 0,79 -1,202 -1,332 0,-558 0,-853 -1,-1091 -1,121 -1,171 -2,394 1,29 1,58 1,88 0,120 -1,243 -1,367 0,119 0,298 0,449 -1,-60 -1,-119 -1,-176 0,15 0,31 0,46 0,245 -4,490 -4,741 -2,-310 -5,-587 -9,-490 0,-322 0,-644 0,-967 -1,-4 -1,-7 -1,-6 v 64 c 0,-22 -1,-42 -1,-63 0,2 0,7 -1,16 0,-73 0,-143 0,-184 0,-28 -1,-54 -1,-78 0,161 0,477 0,764 -2,-142 -4,240 -5,667 0,-412 -3,-882 -3,-1203 -1,74 -1,188 -1,308 0,-516 0,-669 -1,-890 -1,112 -2,227 -2,343 0,16 1,31 1,46 -1,63 -1,162 -1,276 0,111 -1,278 -1,418 0,-42 0,-82 0,-121 0,226 -4,452 -4,685 -1,-82 -2,-160 -2,-230 0,90 0,181 0,271 -4,-114 -6,190 -8,531 0,-279 -3,-557 -3,-829 v -50 c 0,63 0,128 0,195 0,-168 0,-369 0,-502 0,-116 -1,-230 -1,-344 0,-8 -1,-12 -1,-12 v 38 2 c -1,168 -1,338 -1,580 0,-145 0,-281 0,-370 -1,385 -4,944 -4,1439 -1,-434 -1,-829 -3,-842 0,1 0,11 0,34 0,-93 0,-186 0,-279 -1,-109 -1,-220 -2,-325 0,17 0,35 -1,53 0,-26 1,-52 1,-77 -3,-9 -5,259 -7,555 1,-176 1,-351 0,-525 0,121 0,243 0,365 0,-98 0,-192 0,-282 -2,97 -3,192 -3,291 -2,-182 -5,-344 -9,-289 0,-102 0,-204 0,-307 -2,-17 -4,351 -5,757 0,-123 0,-246 0,-369 -1,169 -1,341 -1,513 -2,-268 -3,-512 -7,-508 v 68 c 0,-23 0,-45 0,-67 -1,2 -1,7 -2,17 0,-79 1,-157 1,-236 -1,-54 -1,-104 -1,-150 -1,309 -1,619 -1,928 0,-21 -1,-31 -1,-32 -2,9 -3,364 -4,753 1,-445 -3,-951 -3,-1297 0,79 0,200 -1,330 0,-230 0,-425 0,-609 0,-73 -1,-140 -2,-188 0,35 0,74 0,115 0,25 0,50 1,75 -1,120 -1,242 -2,366 0,119 0,300 0,451 0,-61 -1,-119 -1,-176 v 44 c 0,245 -4,492 -4,743 -1,-202 -2,-389 -4,-468 0,14 -1,27 -1,41 0,-15 0,-31 0,-47 -1,-38 -2,-47 -3,-15 0,-128 0,-255 0,-383 -1,108 -2,393 -3,705 0,-315 -1,-659 -2,-957 -1,182 -3,366 -4,551 0,-135 -1,-263 -2,-357 -2,203 -4,409 -4,616 -2,-309 -4,-586 -8,-488 0,-205 0,-410 0,-616 -1,-15 -1,-26 -2,-25 v 69 c 0,-23 0,-45 0,-67 -1,2 -1,7 -2,17 0,-79 1,-157 1,-236 -1,-54 -1,-104 -1,-149 -1,309 -1,618 -1,927 0,-20 -1,-31 -1,-32 -1,10 -3,365 -4,755 1,-446 -3,-952 -3,-1298 0,79 0,202 -1,332 1,-558 1,-853 -1,-1091 0,121 -1,172 -1,394 0,30 0,59 1,88 -1,120 -1,244 -2,367 0,120 0,299 0,450 0,-60 0,-119 0,-176 0,15 -1,31 -1,46 0,245 -4,490 -4,741 -2,-309 -4,-586 -8,-488 0,-322 0,-644 -1,-967 0,-4 0,-7 -1,-6 v 64 c 0,-21 0,-42 0,-63 0,3 -1,7 -1,17 0,-74 0,-143 0,-184 0,-28 -1,-54 -1,-78 0,161 0,477 0,763 -3,-140 -4,241 -5,669 0,-413 -3,-882 -3,-1202 -1,73 -1,187 -1,307 0,-516 0,-669 -1,-890 -1,113 -2,227 -2,344 0,15 1,30 1,46 0,62 -1,161 -1,276 0,111 -1,278 -1,418 0,-42 0,-82 0,-122 0,227 -4,454 -4,686 -1,-82 -1,-160 -2,-229 0,90 0,181 0,271 -4,-114 -6,191 -8,533 1,-280 -2,-557 -2,-830 v -50 c 0,63 -1,129 -1,195 0,-167 0,-369 0,-502 0,-14 0,-27 0,-41 -1,15 -2,143 -2,302 0,2 0,3 0,4 -1,44 -1,86 -1,133 0,-65 0,-132 -1,-200 -1,346 -2,760 -3,1137 0,-434 -1,-829 -2,-842 0,1 -1,12 -1,34 0,-317 1,-633 1,-950 0,8 -1,14 -1,22 0,12 0,23 0,34 0,9 0,17 0,26 0,88 0,176 0,264 0,-3 -1,-5 -1,-7 0,13 0,24 0,37 0,-15 0,-30 0,-45 0,-3 0,-5 0,-7 0,23 -1,46 -1,68 v 7 c -1,111 -3,220 -3,333 -1,-33 -1,-62 -1,-92 -1,74 -1,154 -2,239 0,-114 0,-227 0,-340 0,-4 0,-7 0,-10 0,63 0,126 0,190 0,-77 0,-148 0,-220 -2,-57 -4,-83 -6,-55 0,-102 1,-204 0,-307 -2,-17 -3,351 -5,758 0,-123 0,-246 0,-369 0,169 0,341 0,513 -2,-268 -4,-511 -7,-507 v 68 c 0,-23 0,-44 -1,-67 0,2 0,8 -1,18 0,-79 0,-158 0,-237 0,-53 0,-104 -1,-149 0,309 0,618 0,927 0,-20 -1,-30 -1,-31 -2,10 -3,364 -4,754 0,-445 -3,-951 -3,-1298 0,80 -1,201 -1,331 0,-230 0,-425 0,-610 0,-73 -1,-139 -2,-188 0,35 0,75 0,116 0,25 0,50 1,74 -1,121 -2,243 -2,366 0,120 0,300 0,451 0,-60 -1,-119 -1,-176 v 45 c 0,245 -4,492 -4,742 -1,-201 -3,-388 -5,-467 0,14 0,26 0,41 0,-15 0,-32 0,-47 -1,-38 -2,-48 -4,-15 1,-128 1,-256 1,-384 -1,109 -2,394 -3,705 0,-314 -1,-658 -2,-956 -1,182 -4,365 -4,551 -1,-136 -1,-263 -3,-357 -1,203 -3,408 -3,616 -2,-310 -4,-587 -9,-489 1,-205 1,-410 1,-615 -1,-15 -2,-26 -2,-25 v 68 c 0,-23 0,-44 0,-67 -1,3 -1,8 -2,18 0,-79 0,-158 0,-237 0,-53 0,-104 -1,-149 0,309 0,618 0,928 0,-21 -1,-31 -1,-32 -2,10 -3,365 -4,754 0,-445 -3,-951 -3,-1297 0,79 0,202 -1,332 0,-105 0,-192 0,-280 0,125 0,262 0,409 -1,-137 -1,-274 -1,-411 0,189 0,380 0,571 0,-125 -1,-241 -2,-338 0,89 0,171 0,257 0,-60 0,-118 0,-175 0,14 -1,30 -1,45 0,245 -4,491 -4,742 0,-136 -1,-265 -3,-359 0,153 0,411 -1,697 0,-275 -1,-568 -2,-843 0,-5 -1,0 -2,18 0,-112 0,-224 0,-337 0,-249 0,-464 0,-631 -1,-3 -1,-5 -1,-4 v 64 c 0,-21 0,-42 -1,-63 0,1 0,2 0,4 0,14 0,29 0,43 0,134 0,270 -1,408 0,133 1,335 1,502 0,-67 -1,-132 -1,-195 v 50 c 0,272 -3,547 -3,826 -1,-343 -3,-650 -7,-539 0,-90 0,-181 0,-271 -1,69 -1,146 -2,227 0,-158 -1,-315 -3,-472 -1,156 -3,312 -3,470 0,-82 -1,-160 -1,-229 0,90 0,181 0,271 -4,-113 -6,192 -8,534 0,-279 -2,-556 -2,-829 v -50 c -1,63 -1,128 -1,195 0,-167 0,-369 0,-502 0,-138 0,-274 -1,-409 1,-14 1,-28 1,-42 0,-2 -1,-4 -1,-5 0,21 0,42 0,63 v -64 c 0,-1 -1,0 -1,4 0,167 0,381 0,630 0,113 0,225 0,337 -1,-20 -2,-25 -3,-18 0,274 -1,566 -1,840 -1,-286 -1,-544 -2,-698 -1,93 -2,221 -3,357 0,-251 -3,-500 -4,-745 v -46 c 0,57 0,115 0,175 0,-86 0,-167 0,-255 -1,96 -2,210 -2,334 0,-191 0,-382 0,-571 -1,137 -1,274 -1,411 0,-148 0,-284 -1,-410 0,88 0,175 0,280 0,-130 0,-253 0,-333 -1,347 -4,850 -3,1295 -1,-390 -3,-746 -4,-758 0,1 -1,11 -1,31 0,-309 0,-618 -1,-928 0,45 0,95 -1,148 0,79 1,158 1,237 -1,-10 -1,-16 -2,-19 0,23 0,45 0,67 0,-23 0,-45 0,-68 -1,-2 -1,8 -2,23 0,205 0,410 1,616 -5,-102 -7,173 -9,480 0,-208 -2,-415 -3,-619 -1,93 -2,219 -3,354 0,-185 -2,-371 -3,-554 -1,297 -3,640 -2,954 -1,-312 -2,-598 -3,-707 0,128 0,256 0,384 -1,-34 -3,-26 -4,11 0,16 0,32 0,47 0,-14 0,-27 0,-41 -2,77 -3,263 -4,463 0,-251 -4,-501 -5,-746 v -45 c 0,57 0,116 0,176 0,-151 0,-331 0,-451 -1,-124 -1,-247 -2,-368 1,-24 1,-49 1,-74 0,-41 0,-80 -1,-116 0,48 -1,114 -1,187 -1,184 0,379 0,609 -1,-130 -1,-252 -1,-331 0,346 -3,849 -3,1295 -1,-391 -2,-747 -4,-758 0,1 -1,11 -1,31 0,-310 0,-619 0,-928 -1,45 -1,95 -1,148 0,79 0,158 0,237 -1,-11 -1,-16 -1,-19 -1,22 -1,44 -1,67 0,-23 0,-46 0,-69 -3,-7 -5,235 -6,501 0,-172 -1,-344 -1,-514 0,123 0,246 0,370 -1,-408 -3,-778 -5,-763 0,103 0,205 0,307 -4,-60 -6,100 -8,280 0,-148 -4,-294 -4,-437 0,-9 0,-17 0,-26 0,33 -1,67 -1,103 0,-89 0,-194 0,-265 0,-30 0,-60 -1,-90 0,-43 -1,-85 -2,-122 0,106 0,218 0,351 0,-76 -1,-148 -1,-194 0,202 -3,497 -3,758 -1,-272 -2,-514 -5,-426 0,-181 0,-442 0,-544 0,15 -1,54 -1,85 0,46 0,94 0,140 0,-6 -1,-10 -1,-12 0,13 0,27 0,40 0,-13 -1,-26 -1,-40 -3,-4 -4,137 -6,293 0,-101 0,-202 -1,-301 0,72 0,144 0,217 -1,-249 -3,-439 -5,-435 v 67 c 0,-23 -1,-33 -1,-35 -2,12 -3,410 -4,847 0,-138 0,-275 0,-411 0,188 0,379 0,571 -1,-298 -3,-568 -6,-562 0,25 0,51 0,77 0,-26 0,-51 0,-76 -1,3 -1,10 -1,21 0,-88 0,-176 0,-264 0,-59 -1,-114 -1,-165 0,345 0,688 0,1033 0,-23 0,-34 0,-35 -2,12 -2,406 -3,840 0,-496 -3,-1057 -3,-1443 -1,89 -1,225 -1,370 0,-621 -1,-954 -2,-1218 0,136 0,197 -1,445 1,33 1,65 1,97 0,135 0,271 -1,408 0,133 1,335 1,503 0,-67 -1,-133 -1,-196 v 50 c 0,273 -3,548 -2,827 -2,-343 -4,-649 -8,-538 0,-90 0,-181 0,-271 0,69 -1,146 -1,228 0,-233 -4,-462 -4,-689 0,-14 -1,-28 -1,-42 0,53 0,107 0,163 0,-140 0,-307 0,-418 -1,-115 -1,-214 -2,-277 1,-15 1,-31 1,-46 0,-116 0,-231 -1,-344 -1,219 -1,372 -1,889 0,-121 -1,-235 -1,-309 0,321 -3,788 -3,1200 -1,-428 -2,-811 -4,-672 -1,-286 -1,-602 -1,-764 0,24 -1,50 -1,77 0,41 0,111 0,184 0,-9 -1,-14 -1,-17 0,21 0,41 0,63 0,-22 0,-43 0,-64 -1,-1 -1,1 -1,5 -1,322 -1,644 -1,966 -4,-101 -6,175 -8,482 0,-251 -3,-499 -4,-744 v -46 c 0,57 0,115 0,175 0,-150 0,-329 0,-449 -1,-124 -1,-248 -2,-369 0,-29 1,-57 1,-87 0,-223 -1,-273 -2,-395 -1,237 -1,532 0,1090 -1,-130 -1,-253 -1,-333 0,346 -3,850 -3,1295 -1,-390 -2,-746 -4,-757 0,1 0,11 -1,31 0,-309 0,-618 0,-928 -1,46 -1,95 -1,149 0,79 0,158 0,237 0,-11 -1,-16 -1,-19 0,22 0,44 0,67 0,-23 -1,-46 -1,-69 0,-1 -1,9 -1,24 0,205 0,410 0,615 -4,-101 -6,175 -8,482 0,-207 -3,-414 -4,-618 -1,93 -1,220 -2,354 0,-185 -2,-370 -4,-553 -1,297 -2,640 -2,955 0,-307 -1,-585 -2,-699 v 116 c 0,86 0,173 0,259 -1,-21 -2,-25 -3,-16 0,153 0,352 0,562 -1,-165 -1,-336 -1,-507 -2,87 -3,259 -4,443 0,-185 -2,-370 -3,-553 -1,153 -2,306 -2,461 -1,-271 -3,-517 -5,-555 -1,254 -2,528 -2,785 -1,-391 -2,-747 -4,-758 0,1 0,11 0,31 0,-182 -1,-364 -1,-546 0,-76 -1,-150 -1,-225 0,77 0,153 0,229 0,-10 -1,-16 -1,-19 0,23 0,44 0,67 0,-23 0,-46 0,-69 -3,-5 -5,202 -6,444 0,55 0,109 0,162 0,-36 -1,-68 -1,-103 0,-2 0,-3 0,-4 0,-56 0,-112 0,-163 0,7 0,15 0,23 -1,-106 -1,-207 -1,-302 -1,-132 -2,-193 -3,-123 0,-112 0,-189 0,-299 -1,-26 -1,-42 -1,-38 0,102 0,204 0,306 -1,-16 -2,-15 -3,-2 0,161 0,322 0,483 -4,-101 -6,174 -8,482 0,-251 -4,-500 -4,-745 v -45 c 0,56 -1,115 -1,175 0,-151 0,-330 0,-450 0,-82 -1,-163 -1,-244 0,120 -1,264 -2,412 v 71 c 0,-19 0,-30 0,-50 -1,93 -1,185 -1,274 0,-55 -1,-108 -1,-158 -1,284 -2,601 -2,897 -1,-390 -2,-746 -3,-757 -1,1 -1,11 -1,31 0,-256 0,-512 -1,-768 0,2 0,7 -1,12 0,72 0,142 0,213 0,-10 0,-16 -1,-19 0,23 0,45 0,67 0,-23 0,-45 0,-68 -1,-1 -1,9 -2,24 0,205 0,410 0,615 -4,-101 -6,174 -8,482 0,-208 -2,-415 -3,-619 -1,93 -2,220 -3,355 0,-186 -2,-371 -3,-553 -1,297 -2,640 -2,954 -1,-312 -2,-598 -3,-707 0,128 0,256 0,384 -1,-34 -2,-25 -3,12 0,15 0,32 0,47 0,-15 0,-27 0,-41 -2,77 -4,264 -5,464 0,-251 -3,-501 -4,-746 v -44 c 0,57 0,115 0,175 0,-151 0,-331 -1,-451 0,-124 -1,-246 -1,-367 0,-25 0,-49 1,-74 0,-41 -1,-81 -1,-116 -1,48 -1,114 -2,187 0,184 0,379 0,609 0,-130 0,-251 -1,-331 0,346 -3,851 -2,1296 -1,-390 -2,-746 -4,-757 0,1 0,11 -1,32 0,-310 0,-619 0,-928 -1,45 -1,95 -1,148 0,79 0,158 0,237 0,-10 -1,-16 -1,-18 0,22 0,44 0,67 0,-23 -1,-46 -1,-69 -3,-6 -4,236 -6,504 0,-173 0,-345 0,-514 0,122 0,246 0,369 -2,-407 -3,-776 -5,-761 0,103 0,205 0,307 -4,-59 -6,102 -8,282 0,-39 -1,-78 -1,-117 0,62 0,129 -1,200 0,-130 0,-267 -1,-398 0,-1 0,-2 0,-3 -1,-39 -1,-79 -1,-117 0,-9 0,-17 0,-26 0,33 0,68 0,103 0,-68 -1,-139 -1,-203 0,-30 0,-58 0,-86 0,-4 0,-9 0,-14 0,47 0,108 -1,179 0,-94 0,-170 0,-249 0,-18 0,-34 -1,-51 0,17 0,33 -1,51 0,79 0,155 0,248 0,-68 0,-126 0,-172 0,8 -1,17 -1,25 v 7 c 0,10 0,19 0,29 0,69 0,157 0,235 0,-35 0,-69 0,-102 0,8 0,17 0,25 0,39 -1,78 -1,117 0,1 0,1 0,2 -1,131 -2,269 -2,399 0,-67 0,-133 0,-192 -1,36 -1,73 -1,109 -2,-180 -4,-341 -8,-283 0,-102 0,-204 0,-307 -2,-15 -4,353 -5,761 0,-124 0,-247 0,-370 0,170 0,342 0,514 -2,-267 -4,-510 -7,-504 v 68 c 0,-23 0,-44 0,-67 0,3 -1,9 -1,19 0,-79 0,-158 0,-237 0,-53 -1,-104 -1,-149 0,309 0,619 -1,928 0,-20 0,-30 0,-31 -2,10 -3,366 -4,756 0,-445 -3,-950 -3,-1296 0,79 0,200 -1,331 0,-230 1,-426 0,-610 0,-73 -1,-139 -1,-187 -1,35 -1,75 -1,116 0,25 1,49 1,74 -1,121 -1,243 -2,367 0,119 0,300 0,451 0,-60 0,-119 0,-176 v 44 c -1,246 -4,494 -4,745 -1,-201 -3,-387 -5,-465 0,14 0,27 0,41 0,-15 0,-32 0,-47 -1,-38 -2,-46 -3,-13 0,-128 0,-256 0,-384 -1,109 -2,394 -3,706 0,-314 -1,-658 -2,-955 -1,183 -3,367 -3,553 -1,-135 -2,-262 -3,-356 -1,204 -3,410 -3,618 -2,-308 -4,-584 -8,-485 0,-205 1,-410 0,-615 0,-15 -1,-25 -1,-24 v 68 c 0,-23 -1,-44 -1,-67 0,3 0,9 -1,19 0,-79 0,-158 0,-237 0,-53 0,-103 -1,-149 0,310 0,619 0,928 0,-20 -1,-30 -1,-31 -1,10 -2,366 -3,756 0,-445 -3,-950 -3,-1296 -1,79 -1,202 -1,332 0,-557 0,-853 -1,-1090 -1,122 -1,172 -2,395 1,29 1,58 1,87 0,121 -1,244 -1,368 0,120 0,299 0,450 0,-60 -1,-119 -1,-176 0,15 0,31 0,46 0,245 -4,493 -4,743 -1,-308 -4,-584 -8,-484 1,-322 1,-644 0,-966 0,-5 -1,-7 -1,-6 0,21 0,43 0,64 0,-21 0,-42 0,-63 -1,3 -1,8 -1,17 0,-73 0,-142 0,-184 -1,-28 -1,-53 -1,-77 -1,161 -1,477 -1,764 -2,-140 -3,242 -4,670 0,-412 -3,-879 -3,-1200 0,73 -1,187 -1,308 0,-516 0,-669 -1,-889 -1,113 -1,227 -1,344 0,15 0,30 1,45 -1,63 -1,163 -2,277 0,111 0,279 0,418 0,-41 0,-81 0,-121 -1,227 -4,455 -4,688 -1,-82 -1,-160 -2,-229 0,90 0,181 0,271 -3,-112 -5,194 -7,537 0,-279 -3,-556 -3,-828 v -50 c 0,63 0,128 0,195 0,-168 0,-369 0,-502 0,-138 0,-274 -1,-408 0,-33 1,-65 1,-97 0,-249 0,-310 -1,-446 -1,264 -1,597 -2,1218 0,-145 0,-282 0,-370 0,385 -3,946 -4,1441 0,-434 -1,-828 -2,-841 0,2 0,12 -1,35 1,-344 1,-688 1,-1032 0,50 -1,105 -1,164 0,88 0,176 0,264 0,-12 -1,-19 -1,-22 0,25 0,50 0,76 0,-26 0,-51 0,-77 -3,-7 -4,262 -6,559 0,-191 0,-382 0,-571 0,137 0,274 0,411 -1,-437 -2,-835 -4,-848 0,1 0,12 -1,34 1,-567 0,-1292 0,-1292 l 1668,1133 c -3,366 -1,970 -1,1138 z"
     id="path1786" /><path
     fill="#000000"
     stroke="none"
     d="m 4750,9092 c 108,-10 219,-15 326,5 60,14 119,32 178,50 49,14 95,36 144,49 9,4 25,2 28,14 -28,-9 -59,3 -87,-8 38,43 92,66 139,96 40,23 69,60 104,89 68,51 115,125 178,181 35,24 75,40 115,49 18,4 39,12 43,33 -4,2 -13,8 -18,10 5,14 15,24 26,33 -16,3 -32,11 -39,28 -18,44 -22,93 -38,139 -18,10 -38,19 -48,38 -19,143 -44,285 -71,427 -10,41 -13,84 -39,118 -8,4 -19,5 -24,13 -17,24 -29,51 -40,77 -31,62 -10,139 -51,197 -28,46 -90,38 -126,74 -6,53 -12,107 -27,159 -11,39 -47,60 -72,89 -77,79 -125,181 -193,268 -8,10 -22,13 -35,11 -66,-8 -126,-44 -192,-54 -18,-5 -19,18 -24,29 -17,59 -34,118 -44,179 12,54 62,88 103,119 106,67 212,134 310,213 27,22 50,48 80,66 86,56 176,102 268,146 64,39 119,91 171,145 90,99 164,220 182,356 14,144 65,282 117,416 58,144 123,284 193,423 26,48 46,99 69,149 73,169 147,337 221,506 23,-28 46,-58 68,-87 -11,-24 -27,-53 -14,-81 17,-23 53,-38 52,-72 0,-34 12,-69 40,-89 6,-75 12,-157 58,-219 61,-74 148,-118 223,-175 57,-57 92,-134 153,-187 26,-23 71,-33 98,-6 31,32 18,81 12,120 46,-60 91,-120 136,-180 50,-74 91,-154 149,-223 20,-24 55,-14 79,-3 51,-75 102,-150 153,-226 18,-31 47,-53 81,-64 83,-27 170,1 252,20 319,70 641,125 962,183 13,4 22,-9 31,-17 42,-44 74,-97 106,-149 54,-91 104,-185 152,-280 11,-23 2,-50 -16,-67 -39,52 -77,105 -129,145 -13,9 -32,24 -46,10 -569,-395 -1138,-790 -1707,-1185 30,-77 76,-146 123,-213 45,-62 89,-125 142,-179 569,394 1137,789 1706,1184 19,9 14,34 11,51 -14,57 -46,107 -77,155 34,27 48,79 27,119 -61,121 -126,242 -200,355 -26,37 -52,76 -89,103 -15,12 -35,9 -52,5 -353,-65 -707,-123 -1056,-205 -51,-9 -106,-12 -152,14 -20,10 -32,30 -44,48 -48,72 -97,143 -145,215 16,22 40,50 22,79 -58,99 -141,179 -199,278 -51,78 -102,156 -152,234 12,47 32,92 40,140 7,43 -11,84 -24,124 -22,73 -50,145 -91,209 -81,98 -175,183 -266,271 -40,60 -69,126 -105,189 -73,132 -155,261 -263,367 -73,72 -162,123 -251,172 -60,31 -123,66 -192,70 -110,-104 -221,-209 -332,-313 -42,-25 -95,-43 -119,-90 -22,-48 -52,-96 -99,-123 -70,-44 -145,-91 -189,-164 -23,-37 -63,-64 -107,-62 -43,1 -86,1 -129,1 4,75 10,150 -3,225 -3,22 -3,45 -1,68 9,148 36,294 41,442 -3,62 -2,124 0,185 H 3046 v -3905 c 83,-7 168,-24 251,-10 37,-10 71,-26 105,-42 44,-20 77,-61 125,-72 29,-1 57,7 86,9 21,-5 40,-17 59,-27 48,-28 97,-62 118,-116 80,-157 171,-309 258,-463 -2,-14 -3,-27 -5,-40 14,-18 34,-33 39,-55 -7,-57 -24,-113 -24,-171 -5,-213 8,-429 71,-634 29,-91 70,-179 136,-249 -2,-13 -3,-25 -5,-37 6,0 17,1 23,2 27,-28 58,-53 77,-88 4,-12 19,-8 29,-10 47,-34 93,-71 143,-101 31,-19 69,-16 103,-27 37,-12 76,-14 115,-18 z"
     id="path1793" /><path
     fill="#81d41a"
     stroke="none"
     d="m 43448,13235 c 3,-54 5,148 7,419 0,-72 0,-145 0,-217 0,99 0,200 0,301 2,-159 4,-303 8,-304 0,14 0,27 0,40 0,-13 0,-27 0,-40 1,1 1,4 2,10 0,-47 0,-94 0,-140 0,-32 0,-71 1,-87 0,102 0,362 0,543 3,-91 4,150 5,419 0,-261 3,-560 4,-763 0,46 0,117 1,193 0,-133 0,-245 0,-351 1,36 1,76 2,118 1,30 1,59 1,89 0,70 0,176 0,264 0,-35 1,-70 1,-104 0,9 0,18 0,26 0,143 4,284 4,431 2,-183 5,-346 9,-293 0,-102 0,-204 0,-307 3,-19 4,348 6,754 0,-123 0,-246 0,-369 0,169 1,341 1,513 1,-269 3,-514 7,-512 v 68 c 0,-23 0,-44 0,-67 1,2 1,7 2,17 0,-79 0,-158 -1,-237 1,-53 1,-104 2,-149 0,308 0,618 0,927 0,-21 1,-31 1,-33 2,9 3,363 4,752 0,-445 3,-953 4,-1300 0,80 0,201 1,330 -1,-230 -1,-425 -1,-609 1,-73 2,-141 3,-189 0,35 0,74 0,115 0,25 0,50 -1,75 1,120 2,242 2,365 0,119 0,300 0,451 0,-61 1,-120 1,-177 v 45 c 0,244 4,489 4,740 2,-203 3,-391 5,-471 0,14 0,27 0,41 0,-15 0,-32 0,-47 2,-39 3,-49 5,-17 -1,-128 -1,-256 -1,-384 2,108 3,392 3,703 0,-314 2,-659 3,-957 1,180 3,363 3,548 1,-136 2,-264 4,-359 1,202 3,406 3,614 2,-311 5,-589 10,-494 -1,-205 -1,-410 -1,-615 1,-16 2,-27 2,-27 v 69 c 0,-23 1,-45 1,-68 0,3 1,8 1,17 0,-79 0,-157 0,-236 0,-54 1,-104 1,-150 0,309 0,618 0,927 1,-20 1,-31 1,-32 2,9 3,363 5,752 -1,-445 3,-954 3,-1300 0,79 1,201 1,331 0,-285 0,-501 0,-676 1,57 2,145 2,250 1,61 1,121 1,183 0,119 1,298 1,449 0,-60 0,-119 0,-176 0,15 0,31 0,46 1,244 4,487 5,738 2,-310 4,-589 9,-494 0,-129 0,-258 0,-388 0,77 1,169 1,271 0,-205 2,-434 3,-622 0,105 0,177 0,283 3,-142 4,238 6,665 -1,-228 1,-471 1,-700 2,92 3,182 3,277 2,-109 3,-210 5,-264 1,179 4,359 4,543 0,-83 1,-161 2,-231 0,90 0,181 0,271 3,-116 6,188 8,528 0,-279 3,-558 3,-831 v -50 c 0,63 0,128 0,195 0,-124 0,-251 0,-370 0,-3 1,-5 1,-5 v 68 c 0,-23 0,-44 0,-67 1,2 1,7 2,17 0,-79 0,-158 0,-237 0,-10 0,-18 0,-27 0,125 0,222 0,382 0,-145 0,-281 1,-370 0,32 0,73 0,108 0,228 0,456 0,685 1,-21 1,-31 1,-33 1,1 1,10 1,22 1,218 1,442 2,655 0,-118 0,-209 0,-315 1,118 1,248 1,390 0,-445 4,-953 4,-1300 0,80 0,200 1,330 0,-205 0,-377 0,-543 1,5 1,39 2,94 0,68 1,136 1,206 0,119 0,300 0,451 1,-61 1,-120 1,-177 v 45 c 0,244 4,489 5,740 1,-203 2,-391 5,-471 0,14 0,27 0,41 0,-15 0,-32 0,-47 1,-39 2,-49 4,-18 0,-127 0,-255 -1,-383 2,107 3,392 4,703 -1,-309 1,-646 2,-940 0,67 1,141 1,221 0,-31 0,-62 0,-94 1,133 3,267 3,404 1,-136 2,-264 3,-359 1,203 3,407 3,615 2,-310 5,-589 9,-493 0,-150 0,-301 0,-451 1,-20 3,-26 4,-9 0,-55 0,-110 0,-164 v 1 c 0,-21 0,-42 0,-62 0,-28 0,-55 0,-82 0,-3 0,6 1,19 0,222 0,444 0,666 1,-20 1,-31 1,-32 2,9 3,363 4,752 0,-246 1,-509 2,-755 1,-152 3,-263 5,-262 v 69 c 0,-24 1,-45 1,-68 v 1 c 0,88 0,169 0,254 0,-60 0,-119 1,-176 0,15 0,31 0,46 0,96 1,192 1,289 0,48 0,96 0,144 1,-17 1,-25 1,-29 1,111 2,222 2,335 0,-34 0,-64 1,-96 0,137 1,319 1,510 0,-286 2,-595 3,-874 1,-51 2,-69 4,-33 0,-180 0,-360 0,-541 0,79 1,157 1,236 0,120 0,300 0,451 0,-60 1,-119 1,-176 v 44 c 0,245 4,490 4,741 2,-202 3,-390 5,-470 0,14 0,27 0,41 0,-15 0,-32 0,-47 1,-39 3,-49 4,-17 0,-128 0,-255 0,-383 1,107 2,392 3,703 0,-290 1,-603 2,-884 1,123 2,245 3,370 0,-33 0,-61 0,-93 1,66 1,132 1,199 0,-23 0,-43 0,-65 3,-84 5,56 7,269 0,17 0,35 0,52 0,-6 0,-11 0,-16 1,70 1,145 1,224 0,-211 2,-423 3,-632 1,-77 3,-112 5,-69 0,-127 0,-254 0,-381 1,363 3,813 3,1226 1,-435 1,-830 3,-843 0,1 0,11 1,33 -1,-41 0,-83 0,-124 1,85 2,393 3,727 -1,-341 1,-717 2,-1031 1,98 2,221 3,353 0,-192 0,-382 0,-571 0,136 0,273 0,410 1,-195 1,-377 2,-526 0,52 0,103 0,155 0,119 0,298 1,449 0,-60 0,-119 0,-176 0,15 0,31 0,46 1,244 4,488 4,739 2,-310 5,-588 10,-493 -1,-321 -1,-643 0,-966 0,-5 1,-7 1,-7 v 64 c 0,-21 0,-42 0,-63 1,2 1,7 2,16 0,-73 0,-143 0,-184 0,-28 0,-54 1,-78 0,161 0,477 0,763 2,-142 4,239 5,666 0,-412 3,-883 3,-1204 1,74 1,187 1,308 0,-516 0,-670 2,-891 0,112 1,227 1,343 0,15 0,31 -1,46 1,63 1,161 2,276 0,110 0,278 0,418 0,-42 0,-82 0,-122 1,226 5,451 5,683 1,-82 1,-160 2,-230 0,90 0,181 0,271 4,-115 6,188 8,529 0,-279 3,-558 3,-831 v -49 c 0,63 0,128 0,195 0,-168 0,-369 0,-503 0,-138 1,-274 1,-409 0,-32 -1,-63 -1,-96 0,-248 1,-310 1,-446 1,263 2,595 2,1215 0,-145 0,-281 1,-370 0,385 3,943 3,1438 1,-435 2,-830 3,-843 0,1 1,11 1,33 0,-344 -1,-687 -1,-1031 1,50 1,104 1,163 0,88 0,176 0,264 1,-12 1,-19 1,-23 1,25 1,50 1,76 0,-26 0,-52 0,-77 3,-10 5,257 6,553 0,-192 0,-382 0,-571 0,136 1,273 1,411 0,-160 0,-307 1,-440 1,-125 3,-227 6,-227 0,13 0,26 0,40 0,-14 0,-27 1,-41 0,2 0,5 1,11 0,-47 0,-94 0,-140 0,-32 0,-71 1,-87 0,102 0,362 0,544 3,-91 4,149 5,419 0,-261 3,-560 4,-763 0,46 0,117 1,193 -1,-132 -1,-244 0,-351 0,36 1,77 2,119 0,30 1,59 1,89 0,70 0,176 0,264 0,-35 0,-70 1,-103 0,8 0,17 0,25 0,144 4,284 4,431 2,-182 4,-345 9,-291 0,-102 0,-204 0,-307 2,-18 4,349 6,755 -1,-123 -1,-246 -1,-369 1,169 1,341 1,513 2,-269 4,-513 7,-510 v 68 c 0,-23 0,-44 1,-67 0,2 0,8 1,17 0,-79 0,-157 0,-236 0,-17 0,-31 0,-48 0,-19 0,-37 1,-55 0,294 0,587 0,881 1,-21 1,-31 1,-33 2,10 3,365 4,754 0,-445 3,-953 3,-1299 1,79 1,200 1,330 0,-186 0,-340 0,-493 2,-1 3,169 4,371 0,106 0,220 0,331 0,-61 0,-119 0,-176 v 44 c 1,245 5,490 5,741 1,-202 2,-389 5,-469 0,14 0,27 0,41 0,-15 0,-32 0,-47 1,-38 2,-48 4,-16 -1,-128 -1,-256 -1,-384 2,108 2,393 3,704 0,-314 2,-659 3,-957 1,182 3,365 3,550 1,-136 2,-264 3,-358 1,203 4,407 4,615 2,-304 4,-577 8,-496 1,68 1,136 1,204 0,-20 0,-30 1,-32 1,10 2,364 4,753 -1,-303 1,-633 2,-924 1,134 2,376 2,643 0,-318 2,-665 3,-965 0,12 0,24 0,36 0,119 0,300 0,450 0,-60 1,-119 1,-176 v 45 c 0,244 4,490 4,741 1,-184 3,-355 4,-445 1,54 1,110 1,164 0,-79 1,-156 1,-225 1,-8 2,-4 3,15 0,-73 0,-145 0,-217 0,-14 0,-29 1,-39 0,140 1,350 2,576 0,-201 0,-411 1,-616 0,3 0,8 1,15 0,-89 0,-177 0,-266 0,-29 0,-61 0,-90 1,181 3,364 3,550 1,-136 2,-264 3,-358 1,107 2,214 3,322 0,10 0,19 0,29 1,87 1,176 1,264 2,-310 4,-588 9,-492 0,-108 0,-217 0,-325 1,145 3,289 3,437 0,-82 1,-160 1,-230 0,90 1,181 1,271 1,-43 2,-27 3,27 1,131 1,290 2,460 0,-101 0,-206 0,-311 1,98 2,223 2,355 0,-279 3,-558 3,-831 v -50 c 0,63 1,129 1,195 0,-167 0,-369 -1,-502 0,-14 1,-27 1,-41 0,6 1,35 1,77 0,110 0,231 0,348 0,-60 1,-119 1,-176 0,15 0,31 0,46 0,214 3,428 4,646 0,146 1,292 1,433 0,-210 0,-407 1,-560 1,-204 4,-343 7,-271 0,-108 0,-215 0,-323 0,41 1,82 1,124 0,-32 0,-62 1,-92 0,74 1,154 1,239 0,-114 0,-227 0,-340 0,-4 1,-7 1,-10 0,63 0,126 0,190 0,-77 0,-148 0,-221 1,-17 1,-31 2,-42 1,49 2,353 3,687 0,-291 2,-608 3,-884 1,140 2,379 3,633 0,-124 0,-247 0,-370 0,169 1,341 1,513 1,-172 2,-333 3,-427 2,131 3,262 3,395 1,-82 1,-160 2,-230 0,90 0,181 0,271 1,-21 1,-28 2,-23 v 64 c 0,-20 0,-30 1,-32 0,1 0,2 0,6 0,5 0,6 0,12 2,77 3,393 4,735 0,-106 0,-217 0,-327 0,33 0,62 1,95 -1,-279 2,-557 3,-830 0,35 0,57 0,94 v -50 c 0,34 0,67 0,101 0,-168 0,-369 0,-502 0,-78 0,-154 0,-232 1,-43 1,-84 2,-115 0,35 0,74 0,115 0,1 0,2 0,3 0,24 0,48 -1,72 1,90 1,182 2,275 0,55 0,85 0,146 0,-37 0,-59 0,-94 0,13 0,26 0,39 0,119 0,300 0,450 0,-60 1,-119 1,-176 v 45 c 0,122 1,244 2,367 1,148 1,295 1,438 0,-100 0,-175 0,-266 1,67 1,135 1,202 2,-202 3,-389 5,-469 0,14 0,26 0,41 0,-15 0,-32 0,-47 1,-39 3,-49 4,-16 0,-128 0,-256 0,-384 1,108 2,393 3,704 0,-315 1,-659 2,-957 1,181 4,364 4,550 1,-136 2,-264 3,-358 1,202 3,407 3,615 2,-310 5,-589 9,-492 0,-204 0,-410 0,-615 1,-15 1,-26 2,-25 v 68 c 0,-23 0,-44 0,-67 1,2 1,8 1,18 0,-79 0,-158 0,-237 0,-9 0,-16 0,-25 0,122 1,244 1,366 0,-13 0,-19 1,-20 0,153 0,305 0,457 0,-20 0,-31 1,-32 1,10 3,364 4,754 -1,-445 3,-952 3,-1298 0,79 0,201 1,331 -1,-267 0,-472 0,-642 0,23 1,46 1,71 0,29 1,59 1,89 0,70 0,176 0,264 0,-35 0,-70 0,-103 0,8 0,17 0,25 1,23 1,46 1,69 0,119 0,289 0,435 0,-60 0,-119 1,-176 0,15 0,31 0,46 0,244 4,490 4,740 2,-309 4,-587 9,-490 -1,-249 -1,-497 0,-746 1,103 2,396 4,716 0,-123 0,-246 0,-369 0,169 0,341 0,513 1,-139 2,-270 3,-364 1,127 1,287 2,464 0,-196 0,-403 1,-602 0,-4 1,-7 1,-6 v 68 c 0,-23 0,-45 0,-67 1,2 1,7 2,17 0,-79 0,-157 0,-236 0,-54 0,-104 1,-150 0,309 0,619 0,928 0,-21 1,-31 1,-32 2,9 3,364 4,754 0,-284 1,-589 2,-865 0,17 0,35 0,52 1,-79 1,-154 2,-222 v 26 c 0,79 0,158 0,238 4,-115 6,190 8,531 0,-25 0,-49 0,-74 0,54 0,110 0,165 2,-202 3,-389 5,-469 0,15 0,27 0,42 0,-16 0,-32 0,-47 1,-35 2,-44 4,-21 0,185 1,372 1,551 0,-204 0,-393 1,-544 0,100 0,203 1,319 0,-199 0,-406 1,-609 0,6 0,14 0,25 0,-45 0,-90 0,-135 0,-79 1,-163 1,-238 1,182 3,365 3,550 1,-135 2,-263 3,-357 1,203 4,408 4,615 2,-309 4,-586 9,-489 -1,-205 -1,-410 -1,-615 1,-16 2,-27 2,-26 v 68 c 0,-23 0,-44 0,-67 1,3 1,8 2,18 0,-79 0,-158 0,-237 0,-53 0,-104 1,-149 0,309 0,618 0,927 0,-20 1,-30 1,-32 2,10 3,365 4,754 0,-445 3,-952 3,-1298 0,79 1,202 1,332 0,-558 0,-853 1,-1091 1,121 1,171 2,394 -1,29 -1,58 -1,88 0,120 1,243 1,367 0,119 0,298 0,449 1,-60 1,-119 1,-176 0,15 0,31 0,46 0,245 4,490 4,741 2,-310 5,-587 9,-490 0,-322 0,-644 0,-967 1,-4 1,-7 1,-6 v 64 c 0,-22 1,-42 1,-63 0,2 0,7 1,16 0,-73 0,-143 0,-184 0,-28 1,-54 1,-78 0,161 0,477 0,764 2,-142 4,240 5,667 0,-412 3,-882 3,-1203 1,74 1,188 1,308 0,-516 0,-669 1,-890 1,112 2,227 2,343 0,16 -1,31 -1,46 1,63 1,162 1,276 0,111 1,278 1,418 0,-42 0,-82 0,-121 0,226 4,452 4,685 1,-82 2,-160 2,-230 0,90 0,181 0,271 4,-114 6,190 8,531 0,-279 3,-557 3,-829 v -50 c 0,63 0,128 0,195 0,-168 0,-369 0,-502 0,-116 1,-230 1,-344 0,-8 1,-12 1,-12 v 38 2 c 1,168 1,338 1,580 0,-145 0,-281 0,-370 1,385 4,944 4,1439 1,-434 1,-829 3,-842 0,1 0,11 0,34 0,-93 0,-186 0,-279 1,-109 1,-220 2,-325 0,17 0,35 1,53 0,-26 -1,-52 -1,-77 3,-9 5,259 7,555 -1,-176 -1,-351 0,-525 0,121 0,243 0,365 0,-98 0,-192 0,-282 2,97 3,192 3,291 2,-182 5,-344 9,-289 0,-102 0,-204 0,-307 2,-17 4,351 5,757 0,-123 0,-246 0,-369 1,169 1,341 1,513 2,-268 3,-512 7,-508 v 68 c 0,-23 0,-45 0,-67 1,2 1,7 2,17 0,-79 -1,-157 -1,-236 1,-54 1,-104 1,-150 1,309 1,619 1,928 0,-21 1,-31 1,-32 2,9 3,364 4,753 -1,-445 3,-951 3,-1297 0,79 0,200 1,330 0,-230 0,-425 0,-609 0,-73 1,-140 2,-188 0,35 0,74 0,115 0,25 0,50 -1,75 1,120 1,242 2,366 0,119 0,300 0,451 0,-61 1,-119 1,-176 v 44 c 0,245 4,492 4,743 1,-202 2,-389 4,-468 0,14 1,27 1,41 0,-15 0,-31 0,-47 1,-38 2,-47 3,-15 0,-128 0,-255 0,-383 1,108 2,393 3,705 0,-315 1,-659 2,-957 1,182 3,366 4,551 0,-135 1,-263 2,-357 2,203 4,409 4,616 2,-309 4,-586 8,-488 0,-205 0,-410 0,-616 1,-15 1,-26 2,-25 v 69 c 0,-23 0,-45 0,-67 1,2 1,7 2,17 0,-79 -1,-157 -1,-236 1,-54 1,-104 1,-149 1,309 1,618 1,927 0,-20 1,-31 1,-32 1,10 3,365 4,755 -1,-446 3,-952 3,-1298 0,79 0,202 1,332 -1,-558 -1,-853 1,-1091 0,121 1,172 1,394 0,30 0,59 -1,88 1,120 1,244 2,367 0,120 0,299 0,450 0,-60 0,-119 0,-176 0,15 1,31 1,46 0,245 4,490 4,741 2,-309 4,-586 8,-488 0,-322 0,-644 1,-967 0,-4 0,-7 1,-6 v 64 c 0,-21 0,-42 0,-63 0,3 1,7 1,17 0,-74 0,-143 0,-184 0,-28 1,-54 1,-78 0,161 0,477 0,763 3,-140 4,241 5,669 0,-413 3,-882 3,-1202 1,73 1,187 1,307 0,-516 0,-669 1,-890 1,113 2,227 2,344 0,15 -1,30 -1,46 0,62 1,161 1,276 0,111 1,278 1,418 0,-42 0,-82 0,-122 0,227 4,454 4,686 1,-82 1,-160 2,-229 0,90 0,181 0,271 4,-114 6,191 8,533 -1,-280 2,-557 2,-830 v -50 c 0,63 1,129 1,195 0,-167 0,-369 0,-502 0,-14 0,-27 0,-41 1,15 2,143 2,302 0,2 0,3 0,4 1,44 1,86 1,133 0,-65 0,-132 1,-200 1,346 2,760 3,1137 0,-434 1,-829 2,-842 0,1 1,12 1,34 0,-317 -1,-633 -1,-950 0,8 1,14 1,22 0,12 0,23 0,34 0,9 0,17 0,26 0,88 0,176 0,264 0,-3 1,-5 1,-7 0,13 0,24 0,37 0,-15 0,-30 0,-45 0,-3 0,-5 0,-7 0,23 1,46 1,68 v 7 c 1,111 3,220 3,333 1,-33 1,-62 1,-92 1,74 1,154 2,239 0,-114 0,-227 0,-340 0,-4 0,-7 0,-10 0,63 0,126 0,190 0,-77 0,-148 0,-220 2,-57 4,-83 6,-55 0,-102 -1,-204 0,-307 2,-17 3,351 5,758 0,-123 0,-246 0,-369 0,169 0,341 0,513 2,-268 4,-511 7,-507 v 68 c 0,-23 0,-44 1,-67 0,2 0,8 1,18 0,-79 0,-158 0,-237 0,-53 0,-104 1,-149 0,309 0,618 0,927 0,-20 1,-30 1,-31 2,10 3,364 4,754 0,-445 3,-951 3,-1298 0,80 1,201 1,331 0,-230 0,-425 0,-610 0,-73 1,-139 2,-188 0,35 0,75 0,116 0,25 0,50 -1,74 1,121 2,243 2,366 0,120 0,300 0,451 0,-60 1,-119 1,-176 v 45 c 0,245 4,492 4,742 1,-201 3,-388 5,-467 0,14 0,26 0,41 0,-15 0,-32 0,-47 1,-38 2,-48 4,-15 -1,-128 -1,-256 -1,-384 1,109 2,394 3,705 0,-314 1,-658 2,-956 1,182 4,365 4,551 1,-136 1,-263 3,-357 1,203 3,408 3,616 2,-310 4,-587 9,-489 -1,-205 -1,-410 -1,-615 1,-15 2,-26 2,-25 v 68 c 0,-23 0,-44 0,-67 1,3 1,8 2,18 0,-79 0,-158 0,-237 0,-53 0,-104 1,-149 0,309 0,618 0,928 0,-21 1,-31 1,-32 2,10 3,365 4,754 0,-445 3,-951 3,-1297 0,79 0,202 1,332 0,-105 0,-192 0,-280 0,125 0,262 0,409 1,-137 1,-274 1,-411 0,189 0,380 0,571 0,-125 1,-241 2,-338 0,89 0,171 0,257 0,-60 0,-118 0,-175 0,14 1,30 1,45 0,245 4,491 4,742 0,-136 1,-265 3,-359 0,153 0,411 1,697 0,-275 1,-568 2,-843 0,-5 1,0 2,18 0,-112 0,-224 0,-337 0,-249 0,-464 0,-631 1,-3 1,-5 1,-4 v 64 c 0,-21 0,-42 1,-63 0,1 0,2 0,4 0,14 0,29 0,43 0,134 0,270 1,408 0,133 -1,335 -1,502 0,-67 1,-132 1,-195 v 50 c 0,272 3,547 3,826 1,-343 3,-650 7,-539 0,-90 0,-181 0,-271 1,69 1,146 2,227 0,-158 1,-315 3,-472 1,156 3,312 3,470 0,-82 1,-160 1,-229 0,90 0,181 0,271 4,-113 6,192 8,534 0,-279 2,-556 2,-829 v -50 c 1,63 1,128 1,195 0,-167 0,-369 0,-502 0,-138 0,-274 1,-409 -1,-14 -1,-28 -1,-42 0,-2 1,-4 1,-5 0,21 0,42 0,63 v -64 c 0,-1 1,0 1,4 0,167 0,381 0,630 0,113 0,225 0,337 1,-20 2,-25 3,-18 0,274 1,566 1,840 1,-286 1,-544 2,-698 1,93 2,221 3,357 0,-251 3,-500 4,-745 v -46 c 0,57 0,115 0,175 0,-86 0,-167 0,-255 1,96 2,210 2,334 0,-191 0,-382 0,-571 1,137 1,274 1,411 0,-148 0,-284 1,-410 0,88 0,175 0,280 0,-130 0,-253 0,-333 1,347 4,850 3,1295 1,-390 3,-746 4,-758 0,1 1,11 1,31 0,-309 0,-618 1,-928 0,45 0,95 1,148 0,79 -1,158 -1,237 1,-10 1,-16 2,-19 0,23 0,45 0,67 0,-23 0,-45 0,-68 1,-2 1,8 2,23 0,205 0,410 -1,616 5,-102 7,173 9,480 0,-208 2,-415 3,-619 1,93 2,219 3,354 0,-185 2,-371 3,-554 1,297 3,640 2,954 1,-312 2,-598 3,-707 0,128 0,256 0,384 1,-34 3,-26 4,11 0,16 0,32 0,47 0,-14 0,-27 0,-41 2,77 3,263 4,463 0,-251 4,-501 5,-746 v -45 c 0,57 0,116 0,176 0,-151 0,-331 0,-451 1,-124 1,-247 2,-368 -1,-24 -1,-49 -1,-74 0,-41 0,-80 1,-116 0,48 1,114 1,187 1,184 0,379 0,609 1,-130 1,-252 1,-331 0,346 3,849 3,1295 1,-391 2,-747 4,-758 0,1 1,11 1,31 0,-310 0,-619 0,-928 1,45 1,95 1,148 0,79 0,158 0,237 1,-11 1,-16 1,-19 1,22 1,44 1,67 0,-23 0,-46 0,-69 3,-7 5,235 6,501 0,-172 1,-344 1,-514 0,123 0,246 0,370 1,-408 3,-778 5,-763 0,103 0,205 0,307 4,-60 6,100 8,280 0,-148 4,-294 4,-437 0,-9 0,-17 0,-26 0,33 1,67 1,103 0,-89 0,-194 0,-265 0,-30 0,-60 1,-90 0,-43 1,-85 2,-122 0,106 0,218 0,351 0,-76 1,-148 1,-194 0,202 3,497 3,758 1,-272 2,-514 5,-426 0,-181 0,-442 0,-544 0,15 1,54 1,85 0,46 0,94 0,140 0,-6 1,-10 1,-12 0,13 0,27 0,40 0,-13 1,-26 1,-40 3,-4 4,137 6,293 0,-101 0,-202 1,-301 0,72 0,144 0,217 1,-249 3,-439 5,-435 v 67 c 0,-23 1,-33 1,-35 2,12 3,410 4,847 0,-138 0,-275 0,-411 0,188 0,379 0,571 1,-298 3,-568 6,-562 0,25 0,51 0,77 0,-26 0,-51 0,-76 1,3 1,10 1,21 0,-88 0,-176 0,-264 0,-59 1,-114 1,-165 0,345 0,688 0,1033 0,-23 0,-34 0,-35 2,12 2,406 3,840 0,-496 3,-1057 3,-1443 1,89 1,225 1,370 0,-621 1,-954 2,-1218 0,136 0,197 1,445 -1,33 -1,65 -1,97 0,135 0,271 1,408 0,133 -1,335 -1,503 0,-67 1,-133 1,-196 v 50 c 0,273 3,548 2,827 2,-343 4,-649 8,-538 0,-90 0,-181 0,-271 0,69 1,146 1,228 0,-233 4,-462 4,-689 0,-14 1,-28 1,-42 0,53 0,107 0,163 0,-140 0,-307 0,-418 1,-115 1,-214 2,-277 -1,-15 -1,-31 -1,-46 0,-116 0,-231 1,-344 1,219 1,372 1,889 0,-121 1,-235 1,-309 0,321 3,788 3,1200 1,-428 2,-811 4,-672 1,-286 1,-602 1,-764 0,24 1,50 1,77 0,41 0,111 0,184 0,-9 1,-14 1,-17 0,21 0,41 0,63 0,-22 0,-43 0,-64 1,-1 1,1 1,5 1,322 1,644 1,966 4,-101 6,175 8,482 0,-251 3,-499 4,-744 v -46 c 0,57 0,115 0,175 0,-150 0,-329 0,-449 1,-124 1,-248 2,-369 0,-29 -1,-57 -1,-87 0,-223 1,-273 2,-395 1,237 1,532 0,1090 1,-130 1,-253 1,-333 0,346 3,850 3,1295 1,-390 2,-746 4,-757 0,1 0,11 1,31 0,-309 0,-618 0,-928 1,46 1,95 1,149 0,79 0,158 0,237 0,-11 1,-16 1,-19 0,22 0,44 0,67 0,-23 1,-46 1,-69 0,-1 1,9 1,24 0,205 0,410 0,615 4,-101 6,175 8,482 0,-207 3,-414 4,-618 1,93 1,220 2,354 0,-185 2,-370 4,-553 1,297 2,640 2,955 0,-307 1,-585 2,-699 v 116 c 0,86 0,173 0,259 1,-21 2,-25 3,-16 0,153 0,352 0,562 1,-165 1,-336 1,-507 2,87 3,259 4,443 0,-185 2,-370 3,-553 1,153 2,306 2,461 1,-271 3,-517 5,-555 1,254 2,528 2,785 1,-391 2,-747 4,-758 0,1 0,11 0,31 0,-182 1,-364 1,-546 0,-76 1,-150 1,-225 0,77 0,153 0,229 0,-10 1,-16 1,-19 0,23 0,44 0,67 0,-23 0,-46 0,-69 3,-5 5,202 6,444 0,55 0,109 0,162 0,-36 1,-68 1,-103 0,-2 0,-3 0,-4 0,-56 0,-112 0,-163 0,7 0,15 0,23 1,-106 1,-207 1,-302 1,-132 2,-193 3,-123 0,-112 0,-189 0,-299 1,-26 1,-42 1,-38 0,102 0,204 0,306 1,-16 2,-15 3,-2 0,161 0,322 0,483 4,-101 6,174 8,482 0,-251 4,-500 4,-745 v -45 c 0,56 1,115 1,175 0,-151 0,-330 0,-450 0,-82 1,-163 1,-244 0,120 1,264 2,412 v 71 c 0,-19 0,-30 0,-50 1,93 1,185 1,274 0,-55 1,-108 1,-158 1,284 2,601 2,897 1,-390 2,-746 3,-757 1,1 1,11 1,31 0,-256 0,-512 1,-768 0,2 0,7 1,12 0,72 0,142 0,213 0,-10 0,-16 1,-19 0,23 0,45 0,67 0,-23 0,-45 0,-68 1,-1 1,9 2,24 0,205 0,410 0,615 4,-101 6,174 8,482 0,-208 2,-415 3,-619 1,93 2,220 3,355 0,-186 2,-371 3,-553 1,297 2,640 2,954 1,-312 2,-598 3,-707 0,128 0,256 0,384 1,-34 2,-25 3,12 0,15 0,32 0,47 0,-15 0,-27 0,-41 2,77 4,264 5,464 0,-251 3,-501 4,-746 v -44 c 0,57 0,115 0,175 0,-151 0,-331 1,-451 0,-124 1,-246 1,-367 0,-25 0,-49 -1,-74 0,-41 1,-81 1,-116 1,48 1,114 2,187 0,184 0,379 0,609 0,-130 0,-251 1,-331 0,346 3,851 2,1296 1,-390 2,-746 4,-757 0,1 0,11 1,32 0,-310 0,-619 0,-928 1,45 1,95 1,148 0,79 0,158 0,237 0,-10 1,-16 1,-18 0,22 0,44 0,67 0,-23 1,-46 1,-69 3,-6 4,236 6,504 0,-173 0,-345 0,-514 0,122 0,246 0,369 2,-407 3,-776 5,-761 0,103 0,205 0,307 4,-59 6,102 8,282 0,-39 1,-78 1,-117 0,62 0,129 1,200 0,-130 0,-267 1,-398 0,-1 0,-2 0,-3 1,-39 1,-79 1,-117 0,-9 0,-17 0,-26 0,33 0,68 0,103 0,-68 1,-139 1,-203 0,-30 0,-58 0,-86 0,-4 0,-9 0,-14 0,47 0,108 1,179 0,-94 0,-170 0,-249 0,-18 0,-34 1,-51 0,17 0,33 1,51 0,79 0,155 0,248 0,-68 0,-126 0,-172 0,8 1,17 1,25 v 7 c 0,10 0,19 0,29 0,69 0,157 0,235 0,-35 0,-69 0,-102 0,8 0,17 0,25 0,39 1,78 1,117 0,1 0,1 0,2 1,131 2,269 2,399 0,-67 0,-133 0,-192 1,36 1,73 1,109 2,-180 4,-341 8,-283 0,-102 0,-204 0,-307 2,-15 4,353 5,761 0,-124 0,-247 0,-370 0,170 0,342 0,514 2,-267 4,-510 7,-504 v 68 c 0,-23 0,-44 0,-67 0,3 1,9 1,19 0,-79 0,-158 0,-237 0,-53 1,-104 1,-149 0,309 0,619 1,928 0,-20 0,-30 0,-31 2,10 3,366 4,756 0,-445 3,-950 3,-1296 0,79 0,200 1,331 0,-230 -1,-426 0,-610 0,-73 1,-139 1,-187 1,35 1,75 1,116 0,25 -1,49 -1,74 1,121 1,243 2,367 0,119 0,300 0,451 0,-60 0,-119 0,-176 v 44 c 1,246 4,494 4,745 1,-201 3,-387 5,-465 0,14 0,27 0,41 0,-15 0,-32 0,-47 1,-38 2,-46 3,-13 0,-128 0,-256 0,-384 1,109 2,394 3,706 0,-314 1,-658 2,-955 1,183 3,367 3,553 1,-135 2,-262 3,-356 1,204 3,410 3,618 2,-308 4,-584 8,-485 0,-205 -1,-410 0,-615 0,-15 1,-25 1,-24 v 68 c 0,-23 1,-44 1,-67 0,3 0,9 1,19 0,-79 0,-158 0,-237 0,-53 0,-103 1,-149 0,310 0,619 0,928 0,-20 1,-30 1,-31 1,10 2,366 3,756 0,-445 3,-950 3,-1296 1,79 1,202 1,332 0,-557 0,-853 1,-1090 1,122 1,172 2,395 -1,29 -1,58 -1,87 0,121 1,244 1,368 0,120 0,299 0,450 0,-60 1,-119 1,-176 0,15 0,31 0,46 0,245 4,493 4,743 1,-308 4,-584 8,-484 -1,-322 -1,-644 0,-966 0,-5 1,-7 1,-6 0,21 0,43 0,64 0,-21 0,-42 0,-63 1,3 1,8 1,17 0,-73 0,-142 0,-184 1,-28 1,-53 1,-77 1,161 1,477 1,764 2,-140 3,242 4,670 0,-412 3,-879 3,-1200 0,73 1,187 1,308 0,-516 0,-669 1,-889 1,113 1,227 1,344 0,15 0,30 -1,45 1,63 1,163 2,277 0,111 0,279 0,418 0,-41 0,-81 0,-121 1,227 4,455 4,688 1,-82 1,-160 2,-229 0,90 0,181 0,271 3,-112 5,194 7,537 0,-279 3,-556 3,-828 v -50 c 0,63 0,128 0,195 0,-168 0,-369 0,-502 0,-138 0,-274 1,-408 0,-33 -1,-65 -1,-97 0,-249 0,-310 1,-446 1,264 1,597 2,1218 0,-145 0,-282 0,-370 0,385 3,946 4,1441 0,-434 1,-828 2,-841 0,2 0,12 1,35 -1,-344 -1,-688 -1,-1032 0,50 1,105 1,164 0,88 0,176 0,264 0,-12 1,-19 1,-22 0,25 0,50 0,76 0,-26 0,-51 0,-77 3,-7 4,262 6,559 0,-191 0,-382 0,-571 0,137 0,274 0,411 1,-437 2,-835 4,-848 0,1 0,12 1,34 -1,-567 0,-1292 0,-1292 l -1668,1133 c 3,366 1,970 1,1138 z"
     id="path1800" /><path
     fill="#000000"
     stroke="none"
     d="m 48222,9092 c -108,-10 -219,-15 -326,5 -60,14 -119,32 -178,50 -49,14 -95,36 -144,49 -9,4 -25,2 -28,14 28,-9 59,3 87,-8 -38,43 -92,66 -139,96 -40,23 -69,60 -104,89 -68,51 -115,125 -178,181 -35,24 -75,40 -115,49 -18,4 -39,12 -43,33 4,2 13,8 18,10 -5,14 -15,24 -26,33 16,3 32,11 39,28 18,44 22,93 38,139 18,10 38,19 48,38 19,143 44,285 71,427 10,41 13,84 39,118 8,4 19,5 24,13 17,24 29,51 40,77 31,62 10,139 51,197 28,46 90,38 126,74 6,53 12,107 27,159 11,39 47,60 72,89 77,79 125,181 193,268 8,10 22,13 35,11 66,-8 126,-44 192,-54 18,-5 19,18 24,29 17,59 34,118 44,179 -12,54 -62,88 -103,119 -106,67 -212,134 -310,213 -27,22 -50,48 -80,66 -86,56 -176,102 -268,146 -64,39 -119,91 -171,145 -90,99 -164,220 -182,356 -14,144 -65,282 -117,416 -58,144 -123,284 -193,423 -26,48 -46,99 -69,149 -73,169 -147,337 -221,506 -23,-28 -46,-58 -68,-87 11,-24 27,-53 14,-81 -17,-23 -53,-38 -52,-72 0,-34 -12,-69 -40,-89 -6,-75 -12,-157 -58,-219 -61,-74 -148,-118 -223,-175 -57,-57 -92,-134 -153,-187 -26,-23 -71,-33 -98,-6 -31,32 -18,81 -12,120 -46,-60 -91,-120 -136,-180 -50,-74 -91,-154 -149,-223 -20,-24 -55,-14 -79,-3 -51,-75 -102,-150 -153,-226 -18,-31 -47,-53 -81,-64 -83,-27 -170,1 -252,20 -319,70 -641,125 -962,183 -13,4 -22,-9 -31,-17 -42,-44 -74,-97 -106,-149 -54,-91 -104,-185 -152,-280 -11,-23 -2,-50 16,-67 39,52 77,105 129,145 13,9 32,24 46,10 569,-395 1138,-790 1707,-1185 -30,-77 -76,-146 -123,-213 -45,-62 -89,-125 -142,-179 -569,394 -1137,789 -1706,1184 -19,9 -14,34 -11,51 14,57 46,107 77,155 -34,27 -48,79 -27,119 61,121 126,242 200,355 26,37 52,76 89,103 15,12 35,9 52,5 353,-65 707,-123 1056,-205 51,-9 106,-12 152,14 20,10 32,30 44,48 48,72 97,143 145,215 -16,22 -40,50 -22,79 58,99 141,179 199,278 51,78 102,156 152,234 -12,47 -32,92 -40,140 -7,43 11,84 24,124 22,73 50,145 91,209 81,98 175,183 266,271 40,60 69,126 105,189 73,132 155,261 263,367 73,72 162,123 251,172 60,31 123,66 192,70 110,-104 221,-209 332,-313 42,-25 95,-43 119,-90 22,-48 52,-96 99,-123 70,-44 145,-91 189,-164 23,-37 63,-64 107,-62 43,1 86,1 129,1 -4,75 -10,150 3,225 3,22 3,45 1,68 -9,148 -36,294 -41,442 3,62 2,124 0,185 h 2199 v -3905 c -83,-7 -168,-24 -251,-10 -37,-10 -71,-26 -105,-42 -44,-20 -77,-61 -125,-72 -29,-1 -57,7 -86,9 -21,-5 -40,-17 -59,-27 -48,-28 -97,-62 -118,-116 -80,-157 -171,-309 -258,-463 2,-14 3,-27 5,-40 -14,-18 -34,-33 -39,-55 7,-57 24,-113 24,-171 5,-213 -8,-429 -71,-634 -29,-91 -70,-179 -136,-249 2,-13 3,-25 5,-37 -6,0 -17,1 -23,2 -27,-28 -58,-53 -77,-88 -4,-12 -19,-8 -29,-10 -47,-34 -93,-71 -143,-101 -31,-19 -69,-16 -103,-27 -37,-12 -76,-14 -115,-18 z"
     id="path1807" /><path
     fill="#ffff00"
     stroke="none"
     d="m 27149,13235 c 3,-54 5,148 7,419 0,-72 0,-145 0,-217 0,99 0,200 0,301 2,-159 4,-303 8,-304 0,14 0,27 0,40 0,-13 0,-27 0,-40 1,1 1,4 2,10 0,-47 0,-94 0,-140 0,-32 0,-71 1,-87 0,102 0,362 0,543 3,-91 4,150 5,419 0,-261 3,-560 4,-763 0,46 0,117 1,193 0,-133 0,-245 0,-351 1,36 1,76 2,118 1,30 1,59 1,89 0,70 0,176 0,264 0,-35 1,-70 1,-104 0,9 0,18 0,26 0,143 4,284 4,431 2,-183 5,-346 9,-293 0,-102 0,-204 0,-307 3,-19 4,348 6,754 0,-123 0,-246 0,-369 0,169 1,341 1,513 1,-269 3,-514 7,-512 v 68 c 0,-23 0,-44 0,-67 1,2 1,7 2,17 0,-79 0,-158 -1,-237 1,-53 1,-104 2,-149 0,308 0,618 0,927 0,-21 1,-31 1,-33 2,9 3,363 4,752 0,-445 3,-953 4,-1300 0,80 0,201 1,330 -1,-230 -1,-425 -1,-609 1,-73 2,-141 3,-189 0,35 0,74 0,115 0,25 0,50 -1,75 1,120 2,242 2,365 0,119 0,300 0,451 0,-61 1,-120 1,-177 v 45 c 0,244 4,489 4,740 2,-203 3,-391 5,-471 0,14 0,27 0,41 0,-15 0,-32 0,-47 2,-39 3,-49 5,-17 -1,-128 -1,-256 -1,-384 2,108 3,392 3,703 0,-314 2,-659 3,-957 1,180 3,363 3,548 1,-136 2,-264 4,-359 1,202 3,406 3,614 2,-311 5,-589 10,-494 -1,-205 -1,-410 -1,-615 1,-16 2,-27 2,-27 v 69 c 0,-23 1,-45 1,-68 0,3 1,8 1,17 0,-79 0,-157 0,-236 0,-54 1,-104 1,-150 0,309 0,618 0,927 1,-20 1,-31 1,-32 2,9 3,363 5,752 -1,-445 3,-954 3,-1300 0,79 1,201 1,331 0,-285 0,-501 0,-676 1,57 2,145 2,250 1,61 1,121 1,183 0,119 1,298 1,449 0,-60 0,-119 0,-176 0,15 0,31 0,46 1,244 4,487 5,738 2,-310 4,-589 9,-494 0,-129 0,-258 0,-388 0,77 1,169 1,271 0,-205 2,-434 3,-622 0,105 0,177 0,283 3,-142 4,238 6,665 -1,-228 1,-471 1,-700 2,92 3,182 3,277 2,-109 3,-210 5,-264 1,179 4,359 4,543 0,-83 1,-161 2,-231 0,90 0,181 0,271 3,-116 6,188 8,528 0,-279 3,-558 3,-831 v -50 c 0,63 0,128 0,195 0,-124 0,-251 0,-370 0,-3 1,-5 1,-5 v 68 c 0,-23 0,-44 0,-67 1,2 1,7 2,17 0,-79 0,-158 0,-237 0,-10 0,-18 0,-27 0,125 0,222 0,382 0,-145 0,-281 1,-370 0,32 0,73 0,108 0,228 0,456 0,685 1,-21 1,-31 1,-33 1,1 1,10 1,22 1,218 1,442 2,655 0,-118 0,-209 0,-315 1,118 1,248 1,390 0,-445 4,-953 4,-1300 0,80 0,200 1,330 0,-205 0,-377 0,-543 1,5 1,39 2,94 0,68 1,136 1,206 0,119 0,300 0,451 1,-61 1,-120 1,-177 v 45 c 0,244 4,489 5,740 1,-203 2,-391 5,-471 0,14 0,27 0,41 0,-15 0,-32 0,-47 1,-39 2,-49 4,-18 0,-127 0,-255 -1,-383 2,107 3,392 4,703 -1,-309 1,-646 2,-940 0,67 1,141 1,221 0,-31 0,-62 0,-94 1,133 3,267 3,404 1,-136 2,-264 3,-359 1,203 3,407 3,615 2,-310 5,-589 9,-493 0,-150 0,-301 0,-451 1,-20 3,-26 4,-9 0,-55 0,-110 0,-164 v 1 c 0,-21 0,-42 0,-62 0,-28 0,-55 0,-82 0,-3 0,6 1,19 0,222 0,444 0,666 1,-20 1,-31 1,-32 2,9 3,363 4,752 0,-246 1,-509 2,-755 1,-152 3,-263 5,-262 v 69 c 0,-24 1,-45 1,-68 v 1 c 0,88 0,169 0,254 0,-60 0,-119 1,-176 0,15 0,31 0,46 0,96 1,192 1,289 0,48 0,96 0,144 1,-17 1,-25 1,-29 1,111 2,222 2,335 0,-34 0,-64 1,-96 0,137 1,319 1,510 0,-286 2,-595 3,-874 1,-51 2,-69 4,-33 0,-180 0,-360 0,-541 0,79 1,157 1,236 0,120 0,300 0,451 0,-60 1,-119 1,-176 v 44 c 0,245 4,490 4,741 2,-202 3,-390 5,-470 0,14 0,27 0,41 0,-15 0,-32 0,-47 1,-39 3,-49 4,-17 0,-128 0,-255 0,-383 1,107 2,392 3,703 0,-290 1,-603 2,-884 1,123 2,245 3,370 0,-33 0,-61 0,-93 1,66 1,132 1,199 0,-23 0,-43 0,-65 3,-84 5,56 7,269 0,17 0,35 0,52 0,-6 0,-11 0,-16 1,70 1,145 1,224 0,-211 2,-423 3,-632 1,-77 3,-112 5,-69 0,-127 0,-254 0,-381 1,363 3,813 3,1226 1,-435 1,-830 3,-843 0,1 0,11 1,33 -1,-41 0,-83 0,-124 1,85 2,393 3,727 -1,-341 1,-717 2,-1031 1,98 2,221 3,353 0,-192 0,-382 0,-571 0,136 0,273 0,410 1,-195 1,-377 2,-526 0,52 0,103 0,155 0,119 0,298 1,449 0,-60 0,-119 0,-176 0,15 0,31 0,46 1,244 4,488 4,739 2,-310 5,-588 10,-493 -1,-321 -1,-643 0,-966 0,-5 1,-7 1,-7 v 64 c 0,-21 0,-42 0,-63 1,2 1,7 2,16 0,-73 0,-143 0,-184 0,-28 0,-54 1,-78 0,161 0,477 0,763 2,-142 4,239 5,666 0,-412 3,-883 3,-1204 1,74 1,187 1,308 0,-516 0,-670 2,-891 0,112 1,227 1,343 0,15 0,31 -1,46 1,63 1,161 2,276 0,110 0,278 0,418 0,-42 0,-82 0,-122 1,226 5,451 5,683 1,-82 1,-160 2,-230 0,90 0,181 0,271 4,-115 6,188 8,529 0,-279 3,-558 3,-831 v -49 c 0,63 0,128 0,195 0,-168 0,-369 0,-503 0,-138 1,-274 1,-409 0,-32 -1,-63 -1,-96 0,-248 1,-310 1,-446 1,263 2,595 2,1215 0,-145 0,-281 1,-370 0,385 3,943 3,1438 1,-435 2,-830 3,-843 0,1 1,11 1,33 0,-344 -1,-687 -1,-1031 1,50 1,104 1,163 0,88 0,176 0,264 1,-12 1,-19 1,-23 1,25 1,50 1,76 0,-26 0,-52 0,-77 3,-10 5,257 6,553 0,-192 0,-382 0,-571 0,136 1,273 1,411 0,-160 0,-307 1,-440 1,-125 3,-227 6,-227 0,13 0,26 0,40 0,-14 0,-27 1,-41 0,2 0,5 1,11 0,-47 0,-94 0,-140 0,-32 0,-71 1,-87 0,102 0,362 0,544 3,-91 4,149 5,419 0,-261 3,-560 4,-763 0,46 0,117 1,193 -1,-132 -1,-244 0,-351 0,36 1,77 2,119 0,30 1,59 1,89 0,70 0,176 0,264 0,-35 0,-70 1,-103 0,8 0,17 0,25 0,144 4,284 4,431 2,-182 4,-345 9,-291 0,-102 0,-204 0,-307 2,-18 4,349 6,755 -1,-123 -1,-246 -1,-369 1,169 1,341 1,513 2,-269 4,-513 7,-510 v 68 c 0,-23 0,-44 1,-67 0,2 0,8 1,17 0,-79 0,-157 0,-236 0,-17 0,-31 0,-48 0,-19 0,-37 1,-55 0,294 0,587 0,881 1,-21 1,-31 1,-33 2,10 3,365 4,754 0,-445 3,-953 3,-1299 1,79 1,200 1,330 0,-186 0,-340 0,-493 2,-1 3,169 4,371 0,106 0,220 0,331 0,-61 0,-119 0,-176 v 44 c 1,245 5,490 5,741 1,-202 2,-389 5,-469 0,14 0,27 0,41 0,-15 0,-32 0,-47 1,-38 2,-48 4,-16 -1,-128 -1,-256 -1,-384 2,108 2,393 3,704 0,-314 2,-659 3,-957 1,182 3,365 3,550 1,-136 2,-264 3,-358 1,203 4,407 4,615 2,-304 4,-577 8,-496 1,68 1,136 1,204 0,-20 0,-30 1,-32 1,10 2,364 4,753 -1,-303 1,-633 2,-924 1,134 2,376 2,643 0,-318 2,-665 3,-965 0,12 0,24 0,36 0,119 0,300 0,450 0,-60 1,-119 1,-176 v 45 c 0,244 4,490 4,741 1,-184 3,-355 4,-445 1,54 1,110 1,164 0,-79 1,-156 1,-225 1,-8 2,-4 3,15 0,-73 0,-145 0,-217 0,-14 0,-29 1,-39 0,140 1,350 2,576 0,-201 0,-411 1,-616 0,3 0,8 1,15 0,-89 0,-177 0,-266 0,-29 0,-61 0,-90 1,181 3,364 3,550 1,-136 2,-264 3,-358 1,107 2,214 3,322 0,10 0,19 0,29 1,87 1,176 1,264 2,-310 4,-588 9,-492 0,-108 0,-217 0,-325 1,145 3,289 3,437 0,-82 1,-160 1,-230 0,90 1,181 1,271 1,-43 2,-27 3,27 1,131 1,290 2,460 0,-101 0,-206 0,-311 1,98 2,223 2,355 0,-279 3,-558 3,-831 v -50 c 0,63 1,129 1,195 0,-167 0,-369 -1,-502 0,-14 1,-27 1,-41 0,6 1,35 1,77 0,110 0,231 0,348 0,-60 1,-119 1,-176 0,15 0,31 0,46 0,214 3,428 4,646 0,146 1,292 1,433 0,-210 0,-407 1,-560 1,-204 4,-343 7,-271 0,-108 0,-215 0,-323 0,41 1,82 1,124 0,-32 0,-62 1,-92 0,74 1,154 1,239 0,-114 0,-227 0,-340 0,-4 1,-7 1,-10 0,63 0,126 0,190 0,-77 0,-148 0,-221 1,-17 1,-31 2,-42 1,49 2,353 3,687 0,-291 2,-608 3,-884 1,140 2,379 3,633 0,-124 0,-247 0,-370 0,169 1,341 1,513 1,-172 2,-333 3,-427 2,131 3,262 3,395 1,-82 1,-160 2,-230 0,90 0,181 0,271 1,-21 1,-28 2,-23 v 64 c 0,-20 0,-30 1,-32 0,1 0,2 0,6 0,5 0,6 0,12 2,77 3,393 4,735 0,-106 0,-217 0,-327 0,33 0,62 1,95 -1,-279 2,-557 3,-830 0,35 0,57 0,94 v -50 c 0,34 0,67 0,101 0,-168 0,-369 0,-502 0,-78 0,-154 0,-232 1,-43 1,-84 2,-115 0,35 0,74 0,115 0,1 0,2 0,3 0,24 0,48 -1,72 1,90 1,182 2,275 0,55 0,85 0,146 0,-37 0,-59 0,-94 0,13 0,26 0,39 0,119 0,300 0,450 0,-60 1,-119 1,-176 v 45 c 0,122 1,244 2,367 1,148 1,295 1,438 0,-100 0,-175 0,-266 1,67 1,135 1,202 2,-202 3,-389 5,-469 0,14 0,26 0,41 0,-15 0,-32 0,-47 1,-39 3,-49 4,-16 0,-128 0,-256 0,-384 1,108 2,393 3,704 0,-315 1,-659 2,-957 1,181 4,364 4,550 1,-136 2,-264 3,-358 1,202 3,407 3,615 2,-310 5,-589 9,-492 0,-204 0,-410 0,-615 1,-15 1,-26 2,-25 v 68 c 0,-23 0,-44 0,-67 1,2 1,8 1,18 0,-79 0,-158 0,-237 0,-9 0,-16 0,-25 0,122 1,244 1,366 0,-13 0,-19 1,-20 0,153 0,305 0,457 0,-20 0,-31 1,-32 1,10 3,364 4,754 -1,-445 3,-952 3,-1298 0,79 0,201 1,331 -1,-267 0,-472 0,-642 0,23 1,46 1,71 0,29 1,59 1,89 0,70 0,176 0,264 0,-35 0,-70 0,-103 0,8 0,17 0,25 1,23 1,46 1,69 0,119 0,289 0,435 0,-60 0,-119 1,-176 0,15 0,31 0,46 0,244 4,490 4,740 2,-309 4,-587 9,-490 -1,-249 -1,-497 0,-746 1,103 2,396 4,716 0,-123 0,-246 0,-369 0,169 0,341 0,513 1,-139 2,-270 3,-364 1,127 1,287 2,464 0,-196 0,-403 1,-602 0,-4 1,-7 1,-6 v 68 c 0,-23 0,-45 0,-67 1,2 1,7 2,17 0,-79 0,-157 0,-236 0,-54 0,-104 1,-150 0,309 0,619 0,928 0,-21 1,-31 1,-32 2,9 3,364 4,754 0,-284 1,-589 2,-865 0,17 0,35 0,52 1,-79 1,-154 2,-222 v 26 c 0,79 0,158 0,238 4,-115 6,190 8,531 0,-25 0,-49 0,-74 0,54 0,110 0,165 2,-202 3,-389 5,-469 0,15 0,27 0,42 0,-16 0,-32 0,-47 1,-35 2,-44 4,-21 0,185 1,372 1,551 0,-204 0,-393 1,-544 0,100 0,203 1,319 0,-199 0,-406 1,-609 0,6 0,14 0,25 0,-45 0,-90 0,-135 0,-79 1,-163 1,-238 1,182 3,365 3,550 1,-135 2,-263 3,-357 1,203 4,408 4,615 2,-309 4,-586 9,-489 -1,-205 -1,-410 -1,-615 1,-16 2,-27 2,-26 v 68 c 0,-23 0,-44 0,-67 1,3 1,8 2,18 0,-79 0,-158 0,-237 0,-53 0,-104 1,-149 0,309 0,618 0,927 0,-20 1,-30 1,-32 2,10 3,365 4,754 0,-445 3,-952 3,-1298 0,79 1,202 1,332 0,-558 0,-853 1,-1091 1,121 1,171 2,394 -1,29 -1,58 -1,88 0,120 1,243 1,367 0,119 0,298 0,449 1,-60 1,-119 1,-176 0,15 0,31 0,46 0,245 4,490 4,741 2,-310 5,-587 9,-490 0,-322 0,-644 0,-967 1,-4 1,-7 1,-6 v 64 c 0,-22 1,-42 1,-63 0,2 0,7 1,16 0,-73 0,-143 0,-184 0,-28 1,-54 1,-78 0,161 0,477 0,764 2,-142 4,240 5,667 0,-412 3,-882 3,-1203 1,74 1,188 1,308 0,-516 0,-669 1,-890 1,112 2,227 2,343 0,16 -1,31 -1,46 1,63 1,162 1,276 0,111 1,278 1,418 0,-42 0,-82 0,-121 0,226 4,452 4,685 1,-82 2,-160 2,-230 0,90 0,181 0,271 4,-114 6,190 8,531 0,-279 3,-557 3,-829 v -50 c 0,63 0,128 0,195 0,-168 0,-369 0,-502 0,-116 1,-230 1,-344 0,-8 1,-12 1,-12 v 38 2 c 1,168 1,338 1,580 0,-145 0,-281 0,-370 1,385 4,944 4,1439 1,-434 1,-829 3,-842 0,1 0,11 0,34 0,-93 0,-186 0,-279 1,-109 1,-220 2,-325 0,17 0,35 1,53 0,-26 -1,-52 -1,-77 3,-9 5,259 7,555 -1,-176 -1,-351 0,-525 0,121 0,243 0,365 0,-98 0,-192 0,-282 2,97 3,192 3,291 2,-182 5,-344 9,-289 0,-102 0,-204 0,-307 2,-17 4,351 5,757 0,-123 0,-246 0,-369 1,169 1,341 1,513 2,-268 3,-512 7,-508 v 68 c 0,-23 0,-45 0,-67 1,2 1,7 2,17 0,-79 -1,-157 -1,-236 1,-54 1,-104 1,-150 1,309 1,619 1,928 0,-21 1,-31 1,-32 2,9 3,364 4,753 -1,-445 3,-951 3,-1297 0,79 0,200 1,330 0,-230 0,-425 0,-609 0,-73 1,-140 2,-188 0,35 0,74 0,115 0,25 0,50 -1,75 1,120 1,242 2,366 0,119 0,300 0,451 0,-61 1,-119 1,-176 v 44 c 0,245 4,492 4,743 1,-202 2,-389 4,-468 0,14 1,27 1,41 0,-15 0,-31 0,-47 1,-38 2,-47 3,-15 0,-128 0,-255 0,-383 1,108 2,393 3,705 0,-315 1,-659 2,-957 1,182 3,366 4,551 0,-135 1,-263 2,-357 2,203 4,409 4,616 2,-309 4,-586 8,-488 0,-205 0,-410 0,-616 1,-15 1,-26 2,-25 v 69 c 0,-23 0,-45 0,-67 1,2 1,7 2,17 0,-79 -1,-157 -1,-236 1,-54 1,-104 1,-149 1,309 1,618 1,927 0,-20 1,-31 1,-32 1,10 3,365 4,755 -1,-446 3,-952 3,-1298 0,79 0,202 1,332 -1,-558 -1,-853 1,-1091 0,121 1,172 1,394 0,30 0,59 -1,88 1,120 1,244 2,367 0,120 0,299 0,450 0,-60 0,-119 0,-176 0,15 1,31 1,46 0,245 4,490 4,741 2,-309 4,-586 8,-488 0,-322 0,-644 1,-967 0,-4 0,-7 1,-6 v 64 c 0,-21 0,-42 0,-63 0,3 1,7 1,17 0,-74 0,-143 0,-184 0,-28 1,-54 1,-78 0,161 0,477 0,763 3,-140 4,241 5,669 0,-413 3,-882 3,-1202 1,73 1,187 1,307 0,-516 0,-669 1,-890 1,113 2,227 2,344 0,15 -1,30 -1,46 0,62 1,161 1,276 0,111 1,278 1,418 0,-42 0,-82 0,-122 0,227 4,454 4,686 1,-82 1,-160 2,-229 0,90 0,181 0,271 4,-114 6,191 8,533 -1,-280 2,-557 2,-830 v -50 c 0,63 1,129 1,195 0,-167 0,-369 0,-502 0,-14 0,-27 0,-41 1,15 2,143 2,302 0,2 0,3 0,4 1,44 1,86 1,133 0,-65 0,-132 1,-200 1,346 2,760 3,1137 0,-434 1,-829 2,-842 0,1 1,12 1,34 0,-317 -1,-633 -1,-950 0,8 1,14 1,22 0,12 0,23 0,34 0,9 0,17 0,26 0,88 0,176 0,264 0,-3 1,-5 1,-7 0,13 0,24 0,37 0,-15 0,-30 0,-45 0,-3 0,-5 0,-7 0,23 1,46 1,68 v 7 c 1,111 3,220 3,333 1,-33 1,-62 1,-92 1,74 1,154 2,239 0,-114 0,-227 0,-340 0,-4 0,-7 0,-10 0,63 0,126 0,190 0,-77 0,-148 0,-220 2,-57 4,-83 6,-55 0,-102 -1,-204 0,-307 2,-17 3,351 5,758 0,-123 0,-246 0,-369 0,169 0,341 0,513 2,-268 4,-511 7,-507 v 68 c 0,-23 0,-44 1,-67 0,2 0,8 1,18 0,-79 0,-158 0,-237 0,-53 0,-104 1,-149 0,309 0,618 0,927 0,-20 1,-30 1,-31 2,10 3,364 4,754 0,-445 3,-951 3,-1298 0,80 1,201 1,331 0,-230 0,-425 0,-610 0,-73 1,-139 2,-188 0,35 0,75 0,116 0,25 0,50 -1,74 1,121 2,243 2,366 0,120 0,300 0,451 0,-60 1,-119 1,-176 v 45 c 0,245 4,492 4,742 1,-201 3,-388 5,-467 0,14 0,26 0,41 0,-15 0,-32 0,-47 1,-38 2,-48 4,-15 -1,-128 -1,-256 -1,-384 1,109 2,394 3,705 0,-314 1,-658 2,-956 1,182 4,365 4,551 1,-136 1,-263 3,-357 1,203 3,408 3,616 2,-310 4,-587 9,-489 -1,-205 -1,-410 -1,-615 1,-15 2,-26 2,-25 v 68 c 0,-23 0,-44 0,-67 1,3 1,8 2,18 0,-79 0,-158 0,-237 0,-53 0,-104 1,-149 0,309 0,618 0,928 0,-21 1,-31 1,-32 2,10 3,365 4,754 0,-445 3,-951 3,-1297 0,79 0,202 1,332 0,-105 0,-192 0,-280 0,125 0,262 0,409 1,-137 1,-274 1,-411 0,189 0,380 0,571 0,-125 1,-241 2,-338 0,89 0,171 0,257 0,-60 0,-118 0,-175 0,14 1,30 1,45 0,245 4,491 4,742 0,-136 1,-265 3,-359 0,153 0,411 1,697 0,-275 1,-568 2,-843 0,-5 1,0 2,18 0,-112 0,-224 0,-337 0,-249 0,-464 0,-631 1,-3 1,-5 1,-4 v 64 c 0,-21 0,-42 1,-63 0,1 0,2 0,4 0,14 0,29 0,43 0,134 0,270 1,408 0,133 -1,335 -1,502 0,-67 1,-132 1,-195 v 50 c 0,272 3,547 3,826 1,-343 3,-650 7,-539 0,-90 0,-181 0,-271 1,69 1,146 2,227 0,-158 1,-315 3,-472 1,156 3,312 3,470 0,-82 1,-160 1,-229 0,90 0,181 0,271 4,-113 6,192 8,534 0,-279 2,-556 2,-829 v -50 c 1,63 1,128 1,195 0,-167 0,-369 0,-502 0,-138 0,-274 1,-409 -1,-14 -1,-28 -1,-42 0,-2 1,-4 1,-5 0,21 0,42 0,63 v -64 c 0,-1 1,0 1,4 0,167 0,381 0,630 0,113 0,225 0,337 1,-20 2,-25 3,-18 0,274 1,566 1,840 1,-286 1,-544 2,-698 1,93 2,221 3,357 0,-251 3,-500 4,-745 v -46 c 0,57 0,115 0,175 0,-86 0,-167 0,-255 1,96 2,210 2,334 0,-191 0,-382 0,-571 1,137 1,274 1,411 0,-148 0,-284 1,-410 0,88 0,175 0,280 0,-130 0,-253 0,-333 1,347 4,850 3,1295 1,-390 3,-746 4,-758 0,1 1,11 1,31 0,-309 0,-618 1,-928 0,45 0,95 1,148 0,79 -1,158 -1,237 1,-10 1,-16 2,-19 0,23 0,45 0,67 0,-23 0,-45 0,-68 1,-2 1,8 2,23 0,205 0,410 -1,616 5,-102 7,173 9,480 0,-208 2,-415 3,-619 1,93 2,219 3,354 0,-185 2,-371 3,-554 1,297 3,640 2,954 1,-312 2,-598 3,-707 0,128 0,256 0,384 1,-34 3,-26 4,11 0,16 0,32 0,47 0,-14 0,-27 0,-41 2,77 3,263 4,463 0,-251 4,-501 5,-746 v -45 c 0,57 0,116 0,176 0,-151 0,-331 0,-451 1,-124 1,-247 2,-368 -1,-24 -1,-49 -1,-74 0,-41 0,-80 1,-116 0,48 1,114 1,187 1,184 0,379 0,609 1,-130 1,-252 1,-331 0,346 3,849 3,1295 1,-391 2,-747 4,-758 0,1 1,11 1,31 0,-310 0,-619 0,-928 1,45 1,95 1,148 0,79 0,158 0,237 1,-11 1,-16 1,-19 1,22 1,44 1,67 0,-23 0,-46 0,-69 3,-7 5,235 6,501 0,-172 1,-344 1,-514 0,123 0,246 0,370 1,-408 3,-778 5,-763 0,103 0,205 0,307 4,-60 6,100 8,280 0,-148 4,-294 4,-437 0,-9 0,-17 0,-26 0,33 1,67 1,103 0,-89 0,-194 0,-265 0,-30 0,-60 1,-90 0,-43 1,-85 2,-122 0,106 0,218 0,351 0,-76 1,-148 1,-194 0,202 3,497 3,758 1,-272 2,-514 5,-426 0,-181 0,-442 0,-544 0,15 1,54 1,85 0,46 0,94 0,140 0,-6 1,-10 1,-12 0,13 0,27 0,40 0,-13 1,-26 1,-40 3,-4 4,137 6,293 0,-101 0,-202 1,-301 0,72 0,144 0,217 1,-249 3,-439 5,-435 v 67 c 0,-23 1,-33 1,-35 2,12 3,410 4,847 0,-138 0,-275 0,-411 0,188 0,379 0,571 1,-298 3,-568 6,-562 0,25 0,51 0,77 0,-26 0,-51 0,-76 1,3 1,10 1,21 0,-88 0,-176 0,-264 0,-59 1,-114 1,-165 0,345 0,688 0,1033 0,-23 0,-34 0,-35 2,12 2,406 3,840 0,-496 3,-1057 3,-1443 1,89 1,225 1,370 0,-621 1,-954 2,-1218 0,136 0,197 1,445 -1,33 -1,65 -1,97 0,135 0,271 1,408 0,133 -1,335 -1,503 0,-67 1,-133 1,-196 v 50 c 0,273 3,548 2,827 2,-343 4,-649 8,-538 0,-90 0,-181 0,-271 0,69 1,146 1,228 0,-233 4,-462 4,-689 0,-14 1,-28 1,-42 0,53 0,107 0,163 0,-140 0,-307 0,-418 1,-115 1,-214 2,-277 -1,-15 -1,-31 -1,-46 0,-116 0,-231 1,-344 1,219 1,372 1,889 0,-121 1,-235 1,-309 0,321 3,788 3,1200 1,-428 2,-811 4,-672 1,-286 1,-602 1,-764 0,24 1,50 1,77 0,41 0,111 0,184 0,-9 1,-14 1,-17 0,21 0,41 0,63 0,-22 0,-43 0,-64 1,-1 1,1 1,5 1,322 1,644 1,966 4,-101 6,175 8,482 0,-251 3,-499 4,-744 v -46 c 0,57 0,115 0,175 0,-150 0,-329 0,-449 1,-124 1,-248 2,-369 0,-29 -1,-57 -1,-87 0,-223 1,-273 2,-395 1,237 1,532 0,1090 1,-130 1,-253 1,-333 0,346 3,850 3,1295 1,-390 2,-746 4,-757 0,1 0,11 1,31 0,-309 0,-618 0,-928 1,46 1,95 1,149 0,79 0,158 0,237 0,-11 1,-16 1,-19 0,22 0,44 0,67 0,-23 1,-46 1,-69 0,-1 1,9 1,24 0,205 0,410 0,615 4,-101 6,175 8,482 0,-207 3,-414 4,-618 1,93 1,220 2,354 0,-185 2,-370 4,-553 1,297 2,640 2,955 0,-307 1,-585 2,-699 v 116 c 0,86 0,173 0,259 1,-21 2,-25 3,-16 0,153 0,352 0,562 1,-165 1,-336 1,-507 2,87 3,259 4,443 0,-185 2,-370 3,-553 1,153 2,306 2,461 1,-271 3,-517 5,-555 1,254 2,528 2,785 1,-391 2,-747 4,-758 0,1 0,11 0,31 0,-182 1,-364 1,-546 0,-76 1,-150 1,-225 0,77 0,153 0,229 0,-10 1,-16 1,-19 0,23 0,44 0,67 0,-23 0,-46 0,-69 3,-5 5,202 6,444 0,55 0,109 0,162 0,-36 1,-68 1,-103 0,-2 0,-3 0,-4 0,-56 0,-112 0,-163 0,7 0,15 0,23 1,-106 1,-207 1,-302 1,-132 2,-193 3,-123 0,-112 0,-189 0,-299 1,-26 1,-42 1,-38 0,102 0,204 0,306 1,-16 2,-15 3,-2 0,161 0,322 0,483 4,-101 6,174 8,482 0,-251 4,-500 4,-745 v -45 c 0,56 1,115 1,175 0,-151 0,-330 0,-450 0,-82 1,-163 1,-244 0,120 1,264 2,412 v 71 c 0,-19 0,-30 0,-50 1,93 1,185 1,274 0,-55 1,-108 1,-158 1,284 2,601 2,897 1,-390 2,-746 3,-757 1,1 1,11 1,31 0,-256 0,-512 1,-768 0,2 0,7 1,12 0,72 0,142 0,213 0,-10 0,-16 1,-19 0,23 0,45 0,67 0,-23 0,-45 0,-68 1,-1 1,9 2,24 0,205 0,410 0,615 4,-101 6,174 8,482 0,-208 2,-415 3,-619 1,93 2,220 3,355 0,-186 2,-371 3,-553 1,297 2,640 2,954 1,-312 2,-598 3,-707 0,128 0,256 0,384 1,-34 2,-25 3,12 0,15 0,32 0,47 0,-15 0,-27 0,-41 2,77 4,264 5,464 0,-251 3,-501 4,-746 v -44 c 0,57 0,115 0,175 0,-151 0,-331 1,-451 0,-124 1,-246 1,-367 0,-25 0,-49 -1,-74 0,-41 1,-81 1,-116 1,48 1,114 2,187 0,184 0,379 0,609 0,-130 0,-251 1,-331 0,346 3,851 2,1296 1,-390 2,-746 4,-757 0,1 0,11 1,32 0,-310 0,-619 0,-928 1,45 1,95 1,148 0,79 0,158 0,237 0,-10 1,-16 1,-18 0,22 0,44 0,67 0,-23 1,-46 1,-69 3,-6 4,236 6,504 0,-173 0,-345 0,-514 0,122 0,246 0,369 2,-407 3,-776 5,-761 0,103 0,205 0,307 4,-59 6,102 8,282 0,-39 1,-78 1,-117 0,62 0,129 1,200 0,-130 0,-267 1,-398 0,-1 0,-2 0,-3 1,-39 1,-79 1,-117 0,-9 0,-17 0,-26 0,33 0,68 0,103 0,-68 1,-139 1,-203 0,-30 0,-58 0,-86 0,-4 0,-9 0,-14 0,47 0,108 1,179 0,-94 0,-170 0,-249 0,-18 0,-34 1,-51 0,17 0,33 1,51 0,79 0,155 0,248 0,-68 0,-126 0,-172 0,8 1,17 1,25 v 7 c 0,10 0,19 0,29 0,69 0,157 0,235 0,-35 0,-69 0,-102 0,8 0,17 0,25 0,39 1,78 1,117 0,1 0,1 0,2 1,131 2,269 2,399 0,-67 0,-133 0,-192 1,36 1,73 1,109 2,-180 4,-341 8,-283 0,-102 0,-204 0,-307 2,-15 4,353 5,761 0,-124 0,-247 0,-370 0,170 0,342 0,514 2,-267 4,-510 7,-504 v 68 c 0,-23 0,-44 0,-67 0,3 1,9 1,19 0,-79 0,-158 0,-237 0,-53 1,-104 1,-149 0,309 0,619 1,928 0,-20 0,-30 0,-31 2,10 3,366 4,756 0,-445 3,-950 3,-1296 0,79 0,200 1,331 0,-230 -1,-426 0,-610 0,-73 1,-139 1,-187 1,35 1,75 1,116 0,25 -1,49 -1,74 1,121 1,243 2,367 0,119 0,300 0,451 0,-60 0,-119 0,-176 v 44 c 1,246 4,494 4,745 1,-201 3,-387 5,-465 0,14 0,27 0,41 0,-15 0,-32 0,-47 1,-38 2,-46 3,-13 0,-128 0,-256 0,-384 1,109 2,394 3,706 0,-314 1,-658 2,-955 1,183 3,367 3,553 1,-135 2,-262 3,-356 1,204 3,410 3,618 2,-308 4,-584 8,-485 0,-205 -1,-410 0,-615 0,-15 1,-25 1,-24 v 68 c 0,-23 1,-44 1,-67 0,3 0,9 1,19 0,-79 0,-158 0,-237 0,-53 0,-103 1,-149 0,310 0,619 0,928 0,-20 1,-30 1,-31 1,10 2,366 3,756 0,-445 3,-950 3,-1296 1,79 1,202 1,332 0,-557 0,-853 1,-1090 1,122 1,172 2,395 -1,29 -1,58 -1,87 0,121 1,244 1,368 0,120 0,299 0,450 0,-60 1,-119 1,-176 0,15 0,31 0,46 0,245 4,493 4,743 1,-308 4,-584 8,-484 -1,-322 -1,-644 0,-966 0,-5 1,-7 1,-6 0,21 0,43 0,64 0,-21 0,-42 0,-63 1,3 1,8 1,17 0,-73 0,-142 0,-184 1,-28 1,-53 1,-77 1,161 1,477 1,764 2,-140 3,242 4,670 0,-412 3,-879 3,-1200 0,73 1,187 1,308 0,-516 0,-669 1,-889 1,113 1,227 1,344 0,15 0,30 -1,45 1,63 1,163 2,277 0,111 0,279 0,418 0,-41 0,-81 0,-121 1,227 4,455 4,688 1,-82 1,-160 2,-229 0,90 0,181 0,271 3,-112 5,194 7,537 0,-279 3,-556 3,-828 v -50 c 0,63 0,128 0,195 0,-168 0,-369 0,-502 0,-138 0,-274 1,-408 0,-33 -1,-65 -1,-97 0,-249 0,-310 1,-446 1,264 1,597 2,1218 0,-145 0,-282 0,-370 0,385 3,946 4,1441 0,-434 1,-828 2,-841 0,2 0,12 1,35 -1,-344 -1,-688 -1,-1032 0,50 1,105 1,164 0,88 0,176 0,264 0,-12 1,-19 1,-22 0,25 0,50 0,76 0,-26 0,-51 0,-77 3,-7 4,262 6,559 0,-191 0,-382 0,-571 0,137 0,274 0,411 1,-437 2,-835 4,-848 0,1 0,12 1,34 -1,-567 0,-1292 0,-1292 l -1668,1133 c 3,366 1,970 1,1138 z"
     id="path1814" /><path
     fill="#000000"
     stroke="none"
     d="m 31634,11309 c -28,10 -55,18 -84,22 -13,2 -27,-1 -35,-11 -68,-87 -116,-189 -193,-268 -25,-29 -61,-50 -72,-89 -15,-52 -21,-106 -27,-159 -36,-36 -98,-28 -126,-74 -41,-58 -20,-135 -51,-197 -11,-26 -23,-53 -40,-77 -5,-8 -16,-9 -24,-13 -26,-34 -29,-77 -39,-118 -27,-142 -52,-284 -71,-427 -10,-19 -30,-28 -48,-38 -16,-46 -20,-95 -38,-139 -7,-17 -23,-25 -39,-28 11,-9 21,-19 26,-33 -5,-2 -14,-8 -18,-10 4,-21 25,-29 43,-33 40,-9 80,-25 115,-49 63,-56 110,-130 178,-181 35,-29 64,-66 104,-89 47,-30 101,-53 139,-96 -28,11 -59,-1 -87,8 3,-12 19,-10 28,-14 49,-13 95,-35 144,-49 59,-18 118,-36 178,-50 12,-2 25,-4 37,-6 z m 0,1504 c 0,780 190,1363 572,1747 343,346 817,536 1421,571 v 15 h -2199 c 2,-61 3,-123 0,-185 5,-148 32,-294 41,-442 2,-23 2,-46 -1,-68 -13,-75 -7,-150 -3,-225 -43,0 -86,0 -129,-1 -44,-2 -84,25 -107,62 -44,73 -119,120 -189,164 -47,27 -77,75 -99,123 -24,47 -77,65 -119,90 -111,104 -222,209 -332,313 -69,-4 -132,-39 -192,-70 -89,-49 -178,-100 -251,-172 -108,-106 -190,-235 -263,-367 -36,-63 -65,-129 -105,-189 -91,-88 -185,-173 -266,-271 -41,-64 -69,-136 -91,-209 -13,-40 -31,-81 -24,-124 8,-48 28,-93 40,-140 -50,-78 -101,-156 -152,-234 -58,-99 -141,-179 -199,-278 -18,-29 6,-57 22,-79 -48,-72 -97,-143 -145,-215 -12,-18 -24,-38 -44,-48 -46,-26 -101,-23 -152,-14 -349,82 -703,140 -1056,205 -17,4 -37,7 -52,-5 -37,-27 -63,-66 -89,-103 -74,-113 -139,-234 -200,-355 -21,-40 -7,-92 27,-119 -31,-48 -63,-98 -77,-155 -3,-17 -8,-42 11,-51 569,-395 1137,-790 1706,-1184 53,54 97,117 142,179 47,67 93,136 123,213 l -1707,1185 c -14,14 -33,-1 -46,-10 -52,-40 -90,-93 -129,-145 -18,17 -27,44 -16,67 48,95 98,189 152,280 32,52 64,105 106,149 9,8 18,21 31,17 321,-58 643,-113 962,-183 82,-19 169,-47 252,-20 34,11 63,33 81,64 51,76 102,151 153,226 24,-11 59,-21 79,3 58,69 99,149 149,223 45,60 90,120 136,180 -6,-39 -19,-88 12,-120 27,-27 72,-17 98,6 61,53 96,130 153,187 75,57 162,101 223,175 46,62 52,144 58,219 28,20 40,55 40,89 -1,34 35,49 52,72 13,28 -3,57 -14,81 22,29 45,59 68,87 74,-169 148,-337 221,-506 23,-50 43,-101 69,-149 70,-139 135,-279 193,-423 52,-134 103,-272 117,-416 18,-136 92,-257 182,-356 52,-54 107,-106 171,-145 92,-44 182,-90 268,-146 30,-18 53,-44 80,-66 75,-61 156,-115 237,-167 z"
     id="path1821" /></g></svg>
