<?xml version="1.0" encoding="UTF-8" standalone="no"?>
<svg
   version="1.1"
   viewBox="0 400 1200 400"
   width="1200"
   height="600"
   style="shape-rendering:geometricPrecision; text-rendering:geometricPrecision; image-rendering:optimizeQuality; fill-rule:evenodd; clip-rule:evenodd"
   id="svg90"
   sodipodi:docname="logo-w.svg"
   inkscape:version="1.2.2 (732a01da63, 2022-12-09)"
   xmlns:inkscape="http://www.inkscape.org/namespaces/inkscape"
   xmlns:sodipodi="http://sodipodi.sourceforge.net/DTD/sodipodi-0.dtd"
   xmlns="http://www.w3.org/2000/svg"
   xmlns:svg="http://www.w3.org/2000/svg">
  <defs
     id="defs94" />
  <sodipodi:namedview
     id="namedview92"
     pagecolor="#ffffff"
     bordercolor="#000000"
     borderopacity="0.25"
     inkscape:showpageshadow="2"
     inkscape:pageopacity="0.0"
     inkscape:pagecheckerboard="0"
     inkscape:deskcolor="#d1d1d1"
     showgrid="false"
     inkscape:zoom="1.0391667"
     inkscape:cx="492.70249"
     inkscape:cy="200.16038"
     inkscape:window-width="2560"
     inkscape:window-height="1017"
     inkscape:window-x="-8"
     inkscape:window-y="-8"
     inkscape:window-maximized="1"
     inkscape:current-layer="svg90" />
  <g
     id="g4"
     style="fill:#ffffff">
    <path
       style="opacity:0.903;fill:#ffffff"
       fill="#112c41"
       d="M 186.5,420.5 C 194.238,420.144 201.905,420.644 209.5,422C 217.03,425.363 222.363,430.863 225.5,438.5C 224.264,439.357 222.931,440.023 221.5,440.5C 213.721,426.622 202.054,421.788 186.5,426C 178.261,428.573 173.095,434.073 171,442.5C 169.418,457.454 169.085,472.454 170,487.5C 172.016,502.349 180.516,510.016 195.5,510.5C 207.679,510.749 216.346,505.416 221.5,494.5C 222.931,494.977 224.264,495.643 225.5,496.5C 217.349,512.568 204.349,518.401 186.5,514C 174.817,510.981 167.984,503.481 166,491.5C 164.422,477.214 164.089,462.88 165,448.5C 165.737,433.961 172.903,424.627 186.5,420.5 Z"
       id="path2" />
  </g>
  <g
     id="g8"
     style="fill:#ffffff">
    <path
       style="opacity:0.981;fill:#ffffff"
       fill="#112c41"
       d="M 244.5,421.5 C 245.833,421.5 247.167,421.5 248.5,421.5C 248.5,452.167 248.5,482.833 248.5,513.5C 247.167,513.5 245.833,513.5 244.5,513.5C 244.5,482.833 244.5,452.167 244.5,421.5 Z"
       id="path6" />
  </g>
  <g
     id="g12"
     style="fill:#ffffff">
    <path
       style="opacity:0.916;fill:#ffffff"
       fill="#112c41"
       d="M 295.5,421.5 C 297.857,421.337 300.19,421.503 302.5,422C 287.986,436.347 273.653,450.847 259.5,465.5C 275.015,481.848 291.015,497.682 307.5,513C 305.167,513.667 302.833,513.667 300.5,513C 284.015,497.682 268.015,481.848 252.5,465.5C 266.855,450.813 281.188,436.146 295.5,421.5 Z"
       id="path10" />
  </g>
  <g
     id="g16"
     style="fill:#ffffff">
    <path
       style="opacity:0.941;fill:#ffffff"
       fill="#112c41"
       d="M 308.5,421.5 C 310.604,421.201 312.604,421.534 314.5,422.5C 324.167,437.833 333.833,453.167 343.5,468.5C 352.625,454.418 361.625,440.251 370.5,426C 355.17,425.5 339.837,425.333 324.5,425.5C 324.5,424.167 324.5,422.833 324.5,421.5C 342.512,421.167 360.512,421.5 378.5,422.5C 367.469,439.7 356.635,457.034 346,474.5C 345.5,487.496 345.333,500.496 345.5,513.5C 344.167,513.5 342.833,513.5 341.5,513.5C 341.667,500.496 341.5,487.496 341,474.5C 329.915,456.931 319.081,439.264 308.5,421.5 Z"
       id="path14" />
  </g>
  <g
     id="g20"
     style="fill:#ffffff">
    <path
       style="opacity:0.96;fill:#ffffff"
       fill="#112c41"
       d="M 392.5,421.5 C 394.604,421.201 396.604,421.534 398.5,422.5C 414.134,449.963 429.967,477.296 446,504.5C 446.5,476.835 446.667,449.169 446.5,421.5C 447.833,421.5 449.167,421.5 450.5,421.5C 450.5,452.167 450.5,482.833 450.5,513.5C 434.5,513.5 418.5,513.5 402.5,513.5C 402.5,512.167 402.5,510.833 402.5,509.5C 415.85,509.833 429.183,509.499 442.5,508.5C 427.586,482.336 412.419,456.336 397,430.5C 396.5,458.165 396.333,485.831 396.5,513.5C 395.167,513.5 393.833,513.5 392.5,513.5C 392.5,482.833 392.5,452.167 392.5,421.5 Z"
       id="path18" />
  </g>
  <g
     id="g24"
     style="fill:#ffffff">
    <path
       style="opacity:0.989;fill:#ffffff"
       fill="#112c41"
       d="M 504.5,421.5 C 526.5,421.5 548.5,421.5 570.5,421.5C 570.5,422.833 570.5,424.167 570.5,425.5C 560.167,425.5 549.833,425.5 539.5,425.5C 539.5,454.833 539.5,484.167 539.5,513.5C 538.167,513.5 536.833,513.5 535.5,513.5C 535.5,484.167 535.5,454.833 535.5,425.5C 525.167,425.5 514.833,425.5 504.5,425.5C 504.5,424.167 504.5,422.833 504.5,421.5 Z"
       id="path22" />
  </g>
  <g
     id="g28"
     style="fill:#ffffff">
    <path
       style="opacity:0.904;fill:#ffffff"
       fill="#112c41"
       d="M 676.5,435.5 C 685.016,434.885 693.349,435.718 701.5,438C 706.179,440.013 709.513,443.346 711.5,448C 701.147,457.352 690.48,466.352 679.5,475C 677.167,475.667 674.833,475.667 672.5,475C 683.686,465.904 694.686,456.571 705.5,447C 699.735,441.744 692.902,439.244 685,439.5C 672.344,439.509 664.344,445.509 661,457.5C 659.469,467.448 659.135,477.448 660,487.5C 661.576,502.462 669.909,510.129 685,510.5C 693.282,510.686 700.448,508.019 706.5,502.5C 708.475,503.275 709.309,504.609 709,506.5C 705.323,510.423 700.823,512.923 695.5,514C 685.871,515.338 676.538,514.338 667.5,511C 661.024,506.561 657.19,500.395 656,492.5C 653.543,478.333 654.21,464.333 658,450.5C 661.966,442.693 668.133,437.693 676.5,435.5 Z"
       id="path26" />
  </g>
  <g
     id="g32"
     style="fill:#ffffff">
    <path
       style="opacity:0.897;fill:#ffffff"
       fill="#112c41"
       d="M 855.5,435.5 C 864,434.934 872.333,435.767 880.5,438C 886.911,441.306 891.078,446.472 893,453.5C 896.333,467.833 896.333,482.167 893,496.5C 888.363,509.915 878.863,515.915 864.5,514.5C 850.137,515.915 840.637,509.915 836,496.5C 832.667,482.167 832.667,467.833 836,453.5C 839.117,443.714 845.617,437.714 855.5,435.5 Z M 862.5,439.5 C 876.447,438.318 885.28,444.318 889,457.5C 890.531,467.448 890.865,477.448 890,487.5C 888.247,502.629 879.747,510.296 864.5,510.5C 851.581,510.724 843.414,504.724 840,492.5C 838,480.833 838,469.167 840,457.5C 843.23,446.099 850.73,440.099 862.5,439.5 Z"
       id="path30" />
  </g>
  <g
     id="g36"
     style="fill:#ffffff">
    <path
       style="opacity:0.905;fill:#ffffff"
       fill="#112c41"
       d="M 935.5,435.5 C 941.842,435.334 948.175,435.5 954.5,436C 960.304,437.064 964.971,439.897 968.5,444.5C 967.833,445.833 966.833,446.833 965.5,447.5C 959.448,441.981 952.282,439.314 944,439.5C 931.344,439.509 923.344,445.509 920,457.5C 918.469,467.448 918.135,477.448 919,487.5C 920.576,502.462 928.909,510.129 944,510.5C 952.282,510.686 959.448,508.019 965.5,502.5C 967.475,503.275 968.309,504.609 968,506.5C 964.323,510.423 959.823,512.923 954.5,514C 944.871,515.338 935.538,514.338 926.5,511C 920.024,506.561 916.19,500.395 915,492.5C 912.543,478.333 913.21,464.333 917,450.5C 920.966,442.693 927.133,437.693 935.5,435.5 Z"
       id="path34" />
  </g>
  <g
     id="g40"
     style="fill:#ffffff">
    <path
       style="opacity:0.9;fill:#ffffff"
       fill="#112c41"
       d="M 584.5,436.5 C 586.167,436.5 587.833,436.5 589.5,436.5C 589.5,447.833 589.5,459.167 589.5,470.5C 602.5,470.5 615.5,470.5 628.5,470.5C 628.5,459.167 628.5,447.833 628.5,436.5C 630.167,436.5 631.833,436.5 633.5,436.5C 633.5,462.167 633.5,487.833 633.5,513.5C 631.833,513.5 630.167,513.5 628.5,513.5C 628.5,500.5 628.5,487.5 628.5,474.5C 615.5,474.5 602.5,474.5 589.5,474.5C 589.5,487.5 589.5,500.5 589.5,513.5C 587.833,513.5 586.167,513.5 584.5,513.5C 584.5,487.833 584.5,462.167 584.5,436.5 Z"
       id="path38" />
  </g>
  <g
     id="g44"
     style="fill:#ffffff">
    <path
       style="opacity:0.859;fill:#ffffff"
       fill="#112c41"
       d="M 768.5,436.5 C 777.506,436.334 786.506,436.5 795.5,437C 813.278,440.73 818.778,450.897 812,467.5C 809.083,470.693 805.916,473.526 802.5,476C 808.03,488.227 813.697,500.393 819.5,512.5C 817.926,513.631 816.259,513.798 814.5,513C 808.095,500.358 802.095,487.524 796.5,474.5C 799.07,471.868 802.07,469.701 805.5,468C 814.319,454.289 810.653,445.622 794.5,442C 787.524,441.108 780.524,440.608 773.5,440.5C 773.5,464.833 773.5,489.167 773.5,513.5C 771.833,513.5 770.167,513.5 768.5,513.5C 768.5,487.833 768.5,462.167 768.5,436.5 Z"
       id="path42" />
  </g>
  <g
     id="g48"
     style="fill:#ffffff">
    <path
       style="opacity:0.788;fill:#ffffff"
       fill="#112c41"
       d="M 987.5,436.5 C 989.167,436.5 990.833,436.5 992.5,436.5C 992.5,462.167 992.5,487.833 992.5,513.5C 990.833,513.5 989.167,513.5 987.5,513.5C 987.5,487.833 987.5,462.167 987.5,436.5 Z"
       id="path46" />
  </g>
  <g
     id="g52"
     style="fill:#ffffff">
    <path
       style="opacity:0.896;fill:#ffffff"
       fill="#112c41"
       d="M 1031.5,436.5 C 1033.86,436.337 1036.19,436.503 1038.5,437C 1026.5,449 1014.5,461 1002.5,473C 1015.83,486.333 1029.17,499.667 1042.5,513C 1040.17,513.667 1037.83,513.667 1035.5,513C 1022.17,499.667 1008.83,486.333 995.5,473C 1007.7,460.965 1019.7,448.798 1031.5,436.5 Z"
       id="path50" />
  </g>
  <g
     id="g56"
     style="fill:#ffffff">
    <path
       style="opacity:0.961;fill:#ffffff"
       fill="#112c41"
       d="M 516.5,576.5 C 524.167,576.5 531.833,576.5 539.5,576.5C 539.5,584.167 539.5,591.833 539.5,599.5C 531.833,599.5 524.167,599.5 516.5,599.5C 516.5,591.833 516.5,584.167 516.5,576.5 Z"
       id="path54" />
  </g>
  <g
     id="g60"
     style="fill:#ffffff">
    <path
       style="opacity:0.961;fill:#ffffff"
       fill="#112c41"
       d="M 554.5,576.5 C 562.167,576.5 569.833,576.5 577.5,576.5C 577.5,584.167 577.5,591.833 577.5,599.5C 569.833,599.5 562.167,599.5 554.5,599.5C 554.5,591.833 554.5,584.167 554.5,576.5 Z"
       id="path58" />
  </g>
  <g
     id="g64"
     style="fill:#ffffff">
    <path
       style="opacity:0.961;fill:#ffffff"
       fill="#112c41"
       d="M 591.5,576.5 C 599.167,576.5 606.833,576.5 614.5,576.5C 614.5,584.167 614.5,591.833 614.5,599.5C 606.833,599.5 599.167,599.5 591.5,599.5C 591.5,591.833 591.5,584.167 591.5,576.5 Z"
       id="path62" />
  </g>
  <g
     id="g68"
     style="fill:#ffffff">
    <path
       style="opacity:0.961;fill:#ffffff"
       fill="#112c41"
       d="M 629.5,576.5 C 637.167,576.5 644.833,576.5 652.5,576.5C 652.5,584.167 652.5,591.833 652.5,599.5C 644.833,599.5 637.167,599.5 629.5,599.5C 629.5,591.833 629.5,584.167 629.5,576.5 Z"
       id="path66" />
  </g>
  <g
     id="g72"
     style="fill:#ffffff">
    <path
       style="opacity:0.961;fill:#ffffff"
       fill="#112c41"
       d="M 666.5,576.5 C 674.167,576.5 681.833,576.5 689.5,576.5C 689.5,584.167 689.5,591.833 689.5,599.5C 681.833,599.5 674.167,599.5 666.5,599.5C 666.5,591.833 666.5,584.167 666.5,576.5 Z"
       id="path70" />
  </g>
  <g
     id="g76"
     style="fill:#ffffff">
    <path
       style="opacity:0.947;fill:#ffffff"
       fill="#112c41"
       d="M 541.5,672.5 C 544.792,673.057 547.292,674.724 549,677.5C 548.748,688.582 548.082,699.582 547,710.5C 550.222,707.612 553.722,705.112 557.5,703C 566.128,701.955 574.795,701.122 583.5,700.5C 587,694.351 592.333,691.018 599.5,690.5C 606.667,691.018 612,694.351 615.5,700.5C 623.145,701.331 630.812,701.831 638.5,702C 643.779,703.616 648.279,706.449 652,710.5C 650.918,699.582 650.252,688.582 650,677.5C 652.848,672.988 656.682,671.822 661.5,674C 663.041,675.579 664.208,677.413 665,679.5C 670.333,694.833 675.667,710.167 681,725.5C 684.29,727.491 686.957,730.158 689,733.5C 689.667,743.5 689.667,753.5 689,763.5C 687.342,770.529 683.175,775.196 676.5,777.5C 676.349,787.801 671.349,793.967 661.5,796C 620.167,796.667 578.833,796.667 537.5,796C 527.651,793.967 522.651,787.801 522.5,777.5C 515.385,775.548 511.218,770.881 510,763.5C 509.333,753.5 509.333,743.5 510,733.5C 512.043,730.158 514.71,727.491 518,725.5C 523.606,708.681 529.606,692.014 536,675.5C 537.719,674.131 539.552,673.131 541.5,672.5 Z M 539.5,687.5 C 540.167,687.5 540.5,687.833 540.5,688.5C 539.878,698.179 539.044,707.846 538,717.5C 534.333,720.5 530.667,723.5 527,726.5C 531.038,713.55 535.205,700.55 539.5,687.5 Z M 659.5,687.5 C 663.795,700.55 667.962,713.55 672,726.5C 668.333,723.5 664.667,720.5 661,717.5C 659.956,707.846 659.122,698.179 658.5,688.5C 658.5,687.833 658.833,687.5 659.5,687.5 Z M 596.5,702.5 C 607.464,702.771 611.297,708.105 608,718.5C 601.196,725.469 595.196,724.802 590,716.5C 588.398,709.972 590.565,705.305 596.5,702.5 Z M 562.5,709.5 C 568.833,709.5 575.167,709.5 581.5,709.5C 581.335,712.518 581.502,715.518 582,718.5C 582.273,720.329 583.107,721.829 584.5,723C 571.167,723.667 557.833,723.667 544.5,723C 550.401,718.252 556.401,713.752 562.5,709.5 Z M 617.5,709.5 C 624.921,709.109 632.254,709.609 639.5,711C 644.683,714.76 649.683,718.76 654.5,723C 641.167,723.667 627.833,723.667 614.5,723C 615.893,721.829 616.727,720.329 617,718.5C 617.498,715.518 617.665,712.518 617.5,709.5 Z M 542.5,732.5 C 580.331,731.336 618.331,731.169 656.5,732C 641.167,739.667 625.833,747.333 610.5,755C 603.167,755.667 595.833,755.667 588.5,755C 573.267,747.217 557.934,739.717 542.5,732.5 Z M 520.5,734.5 C 521.5,734.5 522.5,734.5 523.5,734.5C 523.832,745.853 523.499,757.186 522.5,768.5C 520.282,767.076 518.782,765.076 518,762.5C 517.333,753.833 517.333,745.167 518,736.5C 518.995,735.934 519.828,735.267 520.5,734.5 Z M 675.5,734.5 C 677.582,734.472 679.416,735.139 681,736.5C 681.667,745.167 681.667,753.833 681,762.5C 680.218,765.076 678.718,767.076 676.5,768.5C 675.501,757.186 675.168,745.853 675.5,734.5 Z M 531.5,738.5 C 543.136,752.98 554.636,767.647 566,782.5C 568.604,785.774 571.437,786.107 574.5,783.5C 580.022,777.145 585.356,770.645 590.5,764C 596.5,763.333 602.5,763.333 608.5,764C 613.644,770.645 618.978,777.145 624.5,783.5C 627.563,786.107 630.396,785.774 633,782.5C 644.333,767.833 655.667,753.167 667,738.5C 667.667,753.5 667.667,768.5 667,783.5C 666.065,786.102 664.232,787.602 661.5,788C 620.167,788.667 578.833,788.667 537.5,788C 534.768,787.602 532.935,786.102 532,783.5C 531.5,768.504 531.333,753.504 531.5,738.5 Z M 547.5,744.5 C 559.387,749.442 571.053,754.942 582.5,761C 578.667,765.5 574.833,770 571,774.5C 562.917,764.651 555.083,754.651 547.5,744.5 Z M 651.5,744.5 C 643.917,754.651 636.083,764.651 628,774.5C 624.167,770 620.333,765.5 616.5,761C 627.947,754.942 639.613,749.442 651.5,744.5 Z"
       id="path74" />
  </g>
  <g
     id="g80"
     style="fill:#ffffff">
    <path
       style="opacity:0.167;fill:#ffffff"
       fill="#0f283f"
       d="M 540.5,685.5 C 540.833,685.5 541.167,685.5 541.5,685.5C 541.737,686.791 541.404,687.791 540.5,688.5C 540.5,687.833 540.167,687.5 539.5,687.5C 539.833,686.833 540.167,686.167 540.5,685.5 Z"
       id="path78" />
  </g>
  <g
     id="g84"
     style="fill:#ffffff">
    <path
       style="opacity:0.167;fill:#ffffff"
       fill="#0f283f"
       d="M 657.5,685.5 C 657.833,685.5 658.167,685.5 658.5,685.5C 658.833,686.167 659.167,686.833 659.5,687.5C 658.833,687.5 658.5,687.833 658.5,688.5C 657.596,687.791 657.263,686.791 657.5,685.5 Z"
       id="path82" />
  </g>
  <g
     id="g88"
     style="fill:#ffffff">
    <path
       style="opacity:0.874;fill:#ffffff"
       fill="#112b41"
       d="M 598.5,708.5 C 603.19,708.94 604.524,711.274 602.5,715.5C 597.396,717.429 595.229,715.763 596,710.5C 596.995,709.934 597.828,709.267 598.5,708.5 Z"
       id="path86" />
  </g>
</svg>
