<?xml version="1.0" encoding="UTF-8" standalone="no"?>
<!-- Created with Inkscape (http://www.inkscape.org/) -->

<svg
   version="1.1"
   id="svg75"
   width="2756.0525"
   height="2329.3333"
   viewBox="0 0 2756.0525 2329.3333"
   sodipodi:docname="vrata1b.svg"
   inkscape:version="1.2.2 (732a01da63, 2022-12-09, custom)"
   xmlns:inkscape="http://www.inkscape.org/namespaces/inkscape"
   xmlns:sodipodi="http://sodipodi.sourceforge.net/DTD/sodipodi-0.dtd"
   xmlns="http://www.w3.org/2000/svg"
   xmlns:svg="http://www.w3.org/2000/svg">
  <defs
     id="defs79" />
  <sodipodi:namedview
     id="namedview77"
     pagecolor="#ffffff"
     bordercolor="#000000"
     borderopacity="0.25"
     inkscape:showpageshadow="2"
     inkscape:pageopacity="0.0"
     inkscape:pagecheckerboard="0"
     inkscape:deskcolor="#d1d1d1"
     showgrid="false"
     inkscape:zoom="0.3312"
     inkscape:cx="1316.4251"
     inkscape:cy="1180.5556"
     inkscape:window-width="1920"
     inkscape:window-height="1031"
     inkscape:window-x="0"
     inkscape:window-y="25"
     inkscape:window-maximized="1"
     inkscape:current-layer="g81" />
  <g
     inkscape:groupmode="layer"
     inkscape:label="Image"
     id="g81"
     transform="translate(-348.86726,-68.889935)">
    <path
       style="fill:#000000;stroke-width:1.33333"
       d="M 370.6663,2352.5566 C 368.1718,2214.589 348.0097,474.16662 348.8956,473.27977 c 0.5805,-0.58107 24.2559,-1.05649 52.612,-1.05649 h 51.5567 l 0.6667,51.02234 0.6666,51.02235 47.3334,29.70941 47.3333,29.70943 0.8193,31.93489 c 0.4506,17.5642 0.9018,53.53491 1.0026,79.93491 0.1008,26.4 0.5793,64.67975 1.0633,85.06611 l 0.8801,37.06612 5.4507,-0.39946 5.4507,-0.39944 -0.3574,-54 c -0.1965,-29.7 -0.7155,-79.84618 -1.1532,-111.43598 l -0.7959,-57.43598 41.1532,-30.6837 c 22.6343,-16.87604 56.3033,-41.05196 74.8199,-53.72426 l 33.6667,-23.04056 V 523.7297 c 0,-7.06186 -0.3989,-24.14564 -0.8818,-37.96392 l -0.8781,-25.12416 -4.3476,-2.07325 c -2.3912,-1.14028 -4.6668,-3.29383 -5.0569,-4.78563 -0.5439,-2.07966 12.6933,-68.5888 17.3199,-87.02268 0.6122,-2.4392 1.705,-3.20345 4.5808,-3.20345 2.0772,0 4.1023,0.52672 4.5002,1.17051 1.5833,2.56149 19.4342,82.32725 19.4342,86.83973 0,4.20631 -0.602,5.11623 -4.6667,7.05457 l -4.6667,2.22538 v 29.4336 c 0,23.18538 0.3538,29.22366 1.6667,28.4447 0.9167,-0.54388 17.2667,-10.7153 36.3333,-22.60317 48.8525,-30.45896 106.899,-62.94239 161.4911,-90.37193 25.7534,-12.9397 47.5034,-23.52672 48.3333,-23.52672 1.0841,0 1.5089,-9.70279 1.5089,-34.46418 v -34.46416 l -5.3333,-2.405 c -3.7744,-1.70201 -5.3296,-3.22272 -5.3205,-5.20249 0.01,-1.53863 4.0986,-21.99751 9.0923,-45.46417 l 9.0795,-42.66667 4.5743,-0.38663 4.5744,-0.38662 9.7055,43.71996 c 5.3381,24.04597 9.6881,44.67884 9.6667,45.8508 -0.022,1.17608 -2.4285,3.20842 -5.3722,4.53582 l -5.3333,2.405 v 28.3442 28.34419 l 21,-9.38869 c 51.325,-22.94647 158.6128,-61.21994 206.3333,-73.60663 10.2667,-2.66489 20.0167,-5.41428 21.6667,-6.10975 2.9947,-1.26225 2.9999,-1.32148 2.9818,-33.6264 -0.011,-17.79905 -0.3568,-33.62308 -0.7706,-35.1645 -0.4138,-1.54143 -2.8056,-3.78172 -5.3151,-4.97843 -3.701,-1.76487 -4.5628,-2.9332 -4.5628,-6.18549 0,-2.20532 3.9,-22.52962 8.6667,-45.16512 4.7666,-22.63551 8.6666,-41.54088 8.6666,-42.01193 0,-0.47105 2.035,-0.85646 4.5221,-0.85646 3.5957,0 4.664,0.61463 5.2143,3 7.5607,32.7727 18.4406,86.61569 17.8258,88.21769 -0.4473,1.16579 -2.9318,3.12986 -5.5211,4.36459 l -4.7077,2.24496 v 31.68119 31.68118 l 6.3333,-1.83272 c 3.4833,-1.00798 25.2333,-5.74828 48.3333,-10.53397 49.8263,-10.32267 111.7592,-19.78832 153.3334,-23.43507 16.5,-1.44733 33.15,-2.99485 37,-3.43894 l 7,-0.80744 v -34.32378 -34.32378 l -4.6667,-2.22538 c -3.9561,-1.88654 -4.6667,-2.90266 -4.6667,-6.67373 0,-2.44659 3.9,-22.8955 8.6667,-45.442 4.7667,-22.546492 8.6667,-41.25444 8.6667,-41.573212 0,-0.318771 2.1,-0.579583 4.6666,-0.579583 2.5667,0 4.6667,0.492052 4.6667,1.09345 0,0.601396 3.9,19.540584 8.6667,42.087085 4.7666,22.54649 8.6666,42.94333 8.6666,45.32627 0,3.63882 -0.7473,4.689 -4.6666,6.55802 l -4.6667,2.22537 v 33.09816 33.09815 l 76,-0.58171 76,-0.58169 V 1301.3848 2371.5566 H 1147.7522 579.1028 l -0.3506,-46.3333 -0.3506,-46.3334 -5.8169,-0.4173 -5.817,-0.4173 0.4831,51.7506 0.4832,51.7507 -4.3357,7.5005 c -3.4322,5.9376 -5.2033,7.6742 -8.4995,8.3334 -2.2901,0.458 -44.4926,0.8328 -93.7833,0.8328 H 371.496 Z m 355.7313,-39.6421 v -11.3088 l -10.6666,-1.5846 c -35.8964,-5.3324 -73.2381,-33.639 -88.2139,-66.87 l -4.6243,-10.2612 0.7524,36.55 c 0.4138,20.1024 0.7524,43.0596 0.7524,51.0158 v 14.466 l 51,-0.3492 51,-0.3492 z m 133.8425,-32.3579 c -0.1369,-38.5252 -1.614,-87.9116 -2.2831,-76.3333 -0.2117,3.6634 -9.7783,29.6016 -13.4438,36.4506 -0.8551,1.5978 -5.7746,8.4254 -10.9324,15.1723 -13.0736,17.1021 -30.778,30.2367 -51.2326,38.0083 -8.0395,3.0545 -18.0672,5.9562 -22.2839,6.4482 l -7.6667,0.8944 v 11.8464 11.8464 h 54 54 z m 138.1575,32.3579 v -11.3088 l -10.6667,-1.6035 c -5.9309,-0.8916 -16.5862,-3.9653 -24,-6.9231 -29.8904,-11.9253 -54.3032,-36.2196 -66.2039,-65.8825 l -5.7961,-14.4467 -0.3485,54.402 c -0.1917,29.9212 -0.058,55.1596 0.2973,56.0854 0.5084,1.3246 11.9466,1.609 53.682,1.3346 l 53.0359,-0.3486 z m 133.8399,-56.3579 c -0.1443,-61.5436 -0.3313,-67.1409 -1.8822,-56.3333 -4.1794,29.1245 -22.2198,59.2721 -46.2442,77.2794 -14.6932,11.0132 -35.1039,20.1295 -50.3802,22.5018 l -10,1.5529 -0.3959,9.8748 c -0.2178,5.4312 -0.087,10.6809 0.2915,11.6663 0.5598,1.4589 10.7182,1.7914 54.7292,1.7914 h 54.0419 z m 138.5453,56.688 -0.3852,-11.6453 -10.6667,-1.559 c -16.059,-2.347 -35.8626,-11.1392 -51.3726,-22.8077 -6.9883,-5.2573 -13.9744,-11.2352 -15.5247,-13.2841 -1.5503,-2.0488 -6.0858,-7.9987 -10.079,-13.2216 -7.979,-10.4368 -17.826,-32.7546 -19.781,-44.8332 -0.8011,-4.9495 -0.9556,-1.9196 -0.5269,10.3296 0.3337,9.5333 0.6092,37.8833 0.6121,63 l 0.01,45.6666 h 54.0519 54.0519 z m 133.4576,-57.3547 c -0.1435,-62.9861 -0.3099,-67.8854 -1.9087,-56.212 -4.133,30.1767 -21.2539,59.1699 -46.0256,77.9418 -10.101,7.6545 -15.9566,10.9186 -28.116,15.673 -9.4826,3.7078 -18.7566,6.3691 -24.2419,6.9564 l -8.8839,0.9515 v 10.9557 c 0,6.0258 0.4,11.3559 0.8888,11.8447 0.4889,0.4889 25.0889,0.8889 54.6667,0.8889 h 53.7778 z m 138.8239,57.1842 v -11.8159 l -9,-0.9089 c -5.4968,-0.5551 -14.709,-3.0912 -23.6667,-6.5155 -38.3671,-14.6664 -68.5261,-50.5465 -74.762,-88.9439 -1.4331,-8.8241 -1.6405,-4.0273 -1.7643,40.7926 -0.077,27.936 0.2508,57.186 0.729,65 l 0.8692,14.2074 h 53.7974 53.7974 z m 131.5072,-50.8508 c 0.096,-34.1 -0.2746,-59 -0.8226,-55.3334 -0.5478,3.6667 -3.6261,13.0812 -6.8404,20.9212 -12.4184,30.2892 -36.4782,53.9084 -66.8856,65.6607 -9.122,3.5255 -18.5532,6.1861 -23.9941,6.7688 l -8.9645,0.96 v 11.8597 11.8599 l 53.6666,-0.3485 53.6667,-0.3484 z m -923.937,6.6085 c 41.4632,-5.5319 75.0223,-38.8444 78.5187,-77.9419 5.0615,-56.6002 -48.1463,-106.7292 -104.767,-98.7044 -22.8871,3.2438 -46.7181,16.9167 -59.9505,34.3963 -39.8395,52.6268 -5.7683,130.5032 61.9619,141.6259 13.813,2.2684 12.2194,2.2274 24.2369,0.6241 z m 271.1314,0.017 c 40.6,-4.94 75.1484,-38.0793 79.6029,-76.3561 6.6384,-57.0424 -46.9132,-108.5021 -104.3045,-100.2304 -32.8029,4.7279 -60.4367,26.2397 -72.7435,56.628 -4.4664,11.0284 -4.5877,11.8176 -4.5109,29.3333 0.078,17.8451 0.1246,18.1122 5.3961,31.0271 12.8892,31.5779 40.8488,54.1336 73.1916,59.0452 5.8667,0.8909 10.9824,1.6892 11.3683,1.7739 0.3859,0.084 5.7859,-0.4648 12,-1.221 z m 271.5352,0 c 49.6473,-6.527 86.7336,-51.345 80.3401,-97.0893 -5.7954,-41.4652 -39.9462,-74.8095 -81.9103,-79.9756 -39.2168,-4.828 -79.9328,19.8096 -95.4697,57.7695 -4.1863,10.228 -4.3664,11.4069 -4.3792,28.6666 -0.013,17.6819 0.075,18.2239 4.9945,30.6667 12.6137,31.9051 42.3586,55.6709 74.8544,59.8079 5.1334,0.6534 9.7399,1.264 10.2369,1.3568 0.4969,0.093 5.5969,-0.4484 11.3333,-1.2026 z m 274.4298,-0.4898 c 33.0431,-5.0807 60.5908,-27.0062 73.3912,-58.4123 4.9143,-12.0575 5.0499,-12.8383 5.0499,-29.0571 0,-16.2476 -0.1293,-16.9852 -5.1268,-29.3333 -16.5175,-40.8084 -57.1928,-65.2591 -98.6476,-59.2989 -32.9099,4.7317 -61.1431,26.789 -73.4933,57.4174 -5.6331,13.9695 -7.0742,25.6088 -5.0204,40.5482 5.3292,38.7656 37.8546,71.6401 77.1804,78.0088 13.9458,2.2584 12.8404,2.2532 26.6666,0.1266 z m -163.9521,-284.4843 c -0.5055,-1.3233 -12.2295,-1.6075 -55.0118,-1.3333 l -54.3694,0.3482 -0.3538,38.3334 c -0.2787,30.2009 0,38.339 1.3333,38.3601 7.4924,0.1187 20.6387,3.3249 32.6334,7.958 30.7958,11.8951 54.9838,35.8621 67.3147,66.7 4.3831,10.9615 6.4484,18.3475 7.2649,25.9819 0.7472,6.9866 1.2599,-21.303 1.4859,-82 0.1899,-50.9667 0.056,-93.4235 -0.2972,-94.3483 z m -271.7715,178.0305 c -0.319,-1.6586 -0.592,-0.6156 -0.6068,2.3178 -0.015,2.9333 0.2461,4.2902 0.5799,3.0156 0.3337,-1.2748 0.3458,-3.6748 0.027,-5.3334 z m 310.8206,-28.723 c 12.3514,-30.3372 35.8452,-53.2551 67.4956,-65.8414 8.8408,-3.5156 17.9492,-6.4053 20.2408,-6.4216 2.2917,-0.016 6.0508,-0.4064 8.3534,-0.8669 l 4.187,-0.8375 -0.3536,-38.1625 -0.3535,-38.1627 -54.3333,-0.3482 -54.3334,-0.3483 0.1504,93.6816 c 0.1267,78.9277 0.4035,91.8967 1.758,82.3483 1.026,-7.2327 3.6271,-16.293 7.1886,-25.0408 z m -272.5301,1.6034 c 12.9886,-32.4573 36.2328,-55.4634 68.405,-67.7042 8.9503,-3.4055 18.2432,-6.1999 20.6507,-6.21 2.4076,-0.013 5.7365,-0.3823 7.3976,-0.8274 l 3.0202,-0.8093 -0.3535,-38.1725 -0.3535,-38.1726 -53.6667,-0.3484 -53.6667,-0.3485 0.1664,91.0152 c 0.091,50.0583 0.6246,87.8763 1.1846,84.0399 0.5601,-3.8363 3.8072,-13.9443 7.2159,-22.4622 z m -272.4605,0.771 c 5.4839,-13.7364 8.424,-18.9591 16.7225,-29.7055 13.8699,-17.9609 30.1592,-30.3061 50.4195,-38.2112 11.5813,-4.5188 24.2909,-7.7776 31.4183,-8.0557 0.3667,-0.015 0.499,-17.4264 0.294,-38.6935 l -0.3727,-38.6674 h -53.2153 c -29.2684,0 -53.4563,0.45 -53.7508,1 -0.2946,0.55 -0.2018,40.6 0.2062,89 0.4079,48.4 0.9403,86.2 1.1831,84 0.2428,-2.2 3.4356,-11.5 7.0952,-20.6667 z m 776.6142,-151.6667 c -0.4948,-1.2949 -12.5404,-1.6666 -54.012,-1.6666 h -53.3752 v 38.6666 c 0,21.2667 0.45,38.6787 1,38.6935 7.1505,0.1917 20.638,3.5319 32.1472,7.9612 31.0718,11.958 54.6109,35.4413 67.2938,67.1351 3.4242,8.5564 6.3712,17.8041 6.5491,20.5504 0.178,2.7462 0.4835,-34.3068 0.6788,-82.3402 0.1953,-48.0333 0.069,-88.0833 -0.2817,-89 z m -816.1045,74.6667 -0.935,-76.3333 H 803.5715 749.731 v 38.6666 c 0,21.2667 0.45,38.6863 1,38.7103 8.7648,0.3824 21.1803,3.3929 33,8.0021 31.4441,12.2618 55.3169,35.9474 67.8842,67.3519 3.3637,8.4055 6.2391,17.2296 6.3899,19.6092 0.9733,15.3576 1.1383,-30.9879 0.3419,-96.0068 z m 272.1046,-74.6667 c -0.4951,-1.2954 -12.6739,-1.6666 -54.6788,-1.6666 h -54.0419 v 38.6666 c 0,30.0302 0.3723,38.6727 1.6667,38.6935 7.6863,0.124 21.015,3.4119 32.8409,8.1021 31.034,12.308 54.9159,36.1303 67.3365,67.1683 3.3858,8.4607 6.3015,17.33 6.4794,19.7096 0.1779,2.3796 0.4833,-34.6735 0.6787,-82.3401 0.1955,-47.6667 0.069,-87.4167 -0.2815,-88.3334 z m -489.3061,123.8748 c 14.3743,-19.002 30.885,-31.8752 51.2521,-39.9605 7.7,-3.0568 15.8,-5.8379 18,-6.1801 2.2,-0.3424 6.25,-0.9748 9,-1.4054 l 5,-0.7829 v -30.4107 c 0,-16.7258 -0.3862,-34.1057 -0.8582,-38.622 l -0.8583,-8.2112 -50.7542,0.3491 -50.7542,0.3489 0.4039,76.5494 c 0.2221,42.1021 0.7492,77.4494 1.1715,78.5497 0.4688,1.2219 2.1069,-1.5056 4.2086,-7.0079 2.2009,-5.762 7.314,-14.1282 14.1888,-23.2164 z M 576.39,2096.5566 c 0,-18.5167 -2.4008,-265.2667 -5.3257,-548.3333 -2.925,-283.0667 -5.3215,-519.0167 -5.3257,-524.3334 l -0.01,-9.6666 h -6.1966 -6.1966 l 0.8605,53.6666 c 0.4734,29.5167 2.9753,269.6667 5.56,533.6667 2.5846,264 5.0509,490.95 5.4806,504.3333 l 0.7812,24.3334 h 5.1888 5.1887 l -0.01,-33.6667 z m 693.1299,-167 c 0.2506,-3.6667 0.031,-29.0167 -0.489,-56.3333 l -0.9446,-49.6667 h -53.8444 -53.8443 v 55.7777 c 0,30.6779 0.4067,56.1846 0.9038,56.6816 0.4971,0.4971 24.9471,0.7471 54.3333,0.5556 l 53.4296,-0.3482 z m 133.5444,-49.3333 v -56.6667 h -54.6667 -54.6667 v 56.6667 56.6666 h 54.6667 54.6667 z m 138.6666,0 v -56.6667 h -54 -54 v 56.6667 56.6666 h 54 54 z m 133.0146,-0.3334 0.3477,-56.3333 h -54.6811 -54.6812 v 55.7777 c 0,30.6779 0.4067,56.1846 0.9039,56.6816 0.4971,0.4971 24.9471,0.7471 54.3333,0.5556 l 53.4295,-0.3482 z m -951.6812,13.8742 c 0,-22.986 -0.3912,-48.186 -0.8693,-56 l -0.8693,-14.2075 h -51.344 -51.3439 l 0.8799,32.2159 c 0.4839,17.7188 0.8799,42.9188 0.8799,56 v 23.7841 h 51.3334 51.3333 z m 134.2146,3.5756 c -0.4847,-21.0194 -0.8813,-46.2194 -0.8813,-56 v -17.7831 h -54 -54 v 56 56 h 54.8813 54.8813 z m 139.1187,4.4298 c 0,-18.5828 -0.3942,-43.7828 -0.876,-56 l -0.8761,-22.2129 h -53.9834 -53.9834 l 0.85,9 c 0.4675,4.95 0.8542,30.15 0.8594,56 l 0.01,47 h 54 54 z m 134.2094,11.5742 c -0.4819,-12.2172 -0.8761,-37.4172 -0.8761,-56 v -33.7871 h -54.6666 -54.6667 v 31.7863 c 0,17.4824 0.3947,42.6824 0.8771,56 l 0.8771,24.2137 h 54.6656 54.6656 z M 721.731,1765.7589 v -12.4644 l -5.3334,-2.0951 c -4.5118,-1.7723 -5.3214,-2.6763 -5.2557,-5.8689 0.043,-2.0756 4.1112,-22.6739 9.0412,-45.7739 l 8.9636,-42 4.2195,-0.4124 c 4.9939,-0.4881 3.3644,-5.348 15.7234,46.8931 4.8335,20.431 8.6052,38.4284 8.3814,39.994 -0.2237,1.5656 -2.6777,4.3134 -5.4534,6.1062 l -5.0467,3.2596 0.38,12.0798 0.3801,12.0797 54.4884,0.3484 54.4885,0.3484 -0.819,-66.3484 c -0.4505,-36.4916 -1.1929,-113.5984 -1.6499,-171.3484 l -0.8308,-105 h -54.5053 -54.5053 v 17.1885 17.1886 l 5.5099,2.2046 5.5099,2.2047 -0.8651,6.9401 c -0.4758,3.8171 -4.6053,24.3402 -9.1766,45.6068 l -8.3114,38.6667 -4.1631,0.4051 c -2.5232,0.2456 -4.4135,-0.2796 -4.7987,-1.3334 -0.3496,-0.9561 -5.0509,-20.5236 -10.4474,-43.4832 -7.34,-31.2282 -9.4648,-42.313 -8.4342,-44 0.7577,-1.2404 3.2824,-3.1134 5.6105,-4.1625 l 4.2329,-1.9072 v -17.7595 -17.7593 H 666.938 614.8117 l 0.7809,25.6667 c 0.4296,14.1166 1.0898,71.2666 1.4673,127 0.3774,55.7333 1.0645,121.2833 1.5267,145.6666 l 0.8404,44.3334 h 51.152 51.152 z m 273.3333,0 v -12.4644 l -5.3334,-2.0951 c -3.3476,-1.3149 -5.3333,-2.9501 -5.3333,-4.392 0,-2.2573 16.7132,-82.9491 18.1565,-87.6601 0.5436,-1.7744 1.8196,-2.3015 4.8426,-2 l 4.1045,0.4093 9.089,39.3333 c 4.999,21.6334 9.1007,41.9036 9.1149,45.045 0.023,5.1258 -0.4528,5.9941 -4.6408,8.465 l -4.6667,2.7535 v 12.5349 12.535 h 54.8858 54.8858 l -0.8848,-95 c -0.4866,-52.25 -0.8852,-129.35 -0.8858,-171.3334 l -10e-4,-76.3333 h -55.3333 -55.3334 v 17.1311 17.131 l 5.3334,2.0951 c 4.5614,1.7917 5.3333,2.6704 5.3333,6.0707 0,2.1866 -3.9,22.5576 -8.6667,45.2688 -4.7666,22.711 -8.6666,41.6702 -8.6666,42.1314 0,0.4612 -2.1,0.8386 -4.6667,0.8386 -2.5667,0 -4.6667,-0.3494 -4.6667,-0.7763 0,-0.4271 -4.2,-18.9777 -9.3333,-41.2237 -5.1333,-22.246 -9.3241,-41.8467 -9.3129,-43.5571 0.027,-4.1553 1.1698,-5.656 6.3129,-8.2911 l 4.3333,-2.2204 -0.018,-14.299 c -0.011,-7.8646 -0.38,-15.6491 -0.8221,-17.2991 l -0.804,-3 H 938.0994 884.112 l 0.8011,43 c 0.4406,23.65 1.1675,100.3 1.6154,170.3333 0.4479,70.0334 1.0872,127.7834 1.4205,128.3334 0.3334,0.55 24.5708,1 53.8608,1 h 53.2547 v -12.4644 z m 273.3333,-0.116 v -12.5803 l -4.6667,-1.6876 c -4.2248,-1.5276 -4.6666,-2.1699 -4.6666,-6.7825 0,-3.8968 12.0702,-65.1855 16.6974,-84.7836 0.5997,-2.5404 1.4677,-3.0084 4.9462,-2.6667 l 4.2188,0.4144 9.008,40 c 4.9545,22 9.0354,42.2703 9.0688,45.0449 0.053,4.3806 -0.5538,5.4076 -4.6059,7.7984 l -4.6667,2.7535 v 12.5349 12.535 h 54.6667 54.6667 v -134.3334 c 0,-73.8833 -0.398,-150.9833 -0.8812,-171.3333 l -0.8784,-37 h -54.4523 -54.4523 v 17.0864 17.0864 l 4.6667,2.2253 c 3.9878,1.9016 4.6667,2.8878 4.6667,6.7784 0,2.5042 -3.3034,20.3639 -7.3407,39.6883 -11.0456,52.8685 -9.5693,48.0188 -14.4729,47.5417 l -4.179,-0.4065 -8.9449,-39.3333 c -4.9197,-21.6334 -8.9713,-41.9036 -9.0037,-45.045 -0.053,-5.1405 0.4078,-5.9869 4.6078,-8.465 l 4.6667,-2.7535 v -17.2016 -17.2016 h -54 -54 v 105.1141 c 0,57.8128 0.398,134.9128 0.8845,171.3334 l 0.8844,66.2192 h 53.7822 53.7822 v -12.5804 z m 273.3333,0.1606 v -12.4197 l -4.6666,-2.2253 c -4.0119,-1.9132 -4.6667,-2.8759 -4.6667,-6.8615 0,-3.6355 13.3099,-70.2156 16.888,-84.4795 0.6289,-2.5072 1.5308,-2.9977 4.9027,-2.6666 l 4.1318,0.4057 8.962,40.6667 c 4.9292,22.3666 8.9875,42.4666 9.0184,44.6666 0.072,5.0938 -0.8898,6.4083 -6.2838,8.5906 l -4.381,1.7724 0.381,12.1518 0.3809,12.1519 h 54 54 l -0.4465,-171.3333 c -0.2456,-94.2334 -0.6467,-171.5344 -0.8914,-171.7802 -0.2446,-0.2458 -24.4936,-0.013 -53.8868,0.5276 l -53.442,0.9746 v 16.892 16.8921 l 4.6667,2.2253 c 4.2613,2.0322 4.6653,2.7195 4.6509,7.9136 -0.013,3.1286 -3.806,23.6883 -8.4386,45.6883 l -8.4232,40 -4.1139,0.4093 c -3.0348,0.3019 -4.3048,-0.2226 -4.8416,-2 -3.2173,-10.6536 -16.8336,-77.8998 -16.8336,-83.136 0,-6.287 0.2545,-6.7712 4.6667,-8.8752 l 4.6666,-2.2253 v -17.0864 -17.0864 h -54.6666 -54.6667 v 170.4444 c 0,93.7445 0.4,170.8445 0.8889,171.3333 0.4888,0.489 25.0888,0.889 54.6667,0.889 h 53.7777 z M 717.7153,1347.2233 c -0.026,-70.1921 -6.5316,-762.65836 -7.1715,-763.29828 -0.8886,-0.88858 -21.3138,12.99816 -63.8128,43.3853 l -38.3334,27.4086 0.018,36.75217 c 0.01,20.21371 1.5021,183.15219 3.3159,362.08551 1.8137,178.9333 3.3055,327.8833 3.3152,331 l 0.017,5.6667 h 51.3333 51.3333 l -0.016,-43 z m 135.4365,14.6666 c -0.4167,-15.5833 -2.0516,-215.5333 -3.633,-444.33329 -1.5814,-228.8 -3.3697,-416.55908 -3.9739,-417.24239 -1.0691,-1.20886 -60.3791,33.74999 -93.5119,55.1183 l -15.698,10.12409 0.7238,36.66667 c 0.3981,20.16666 1.9237,192.36666 3.3902,382.66666 1.4665,190.29996 3.0216,359.34996 3.4559,375.66666 l 0.7896,29.6667 h 54.6075 54.6076 z m 139.2244,-11.3333 c -0.012,-21.8167 -1.2022,-214.2667 -2.6453,-427.66666 -1.443,-213.4 -2.6334,-412.75206 -2.6452,-443.0046 l -0.022,-55.0046 -37.6666,18.80762 c -20.7167,10.3442 -45.3167,23.00668 -54.6667,28.13886 l -17,9.33124 0.016,14.19908 c 0.01,7.80948 1.5018,207.99907 3.3179,444.86574 1.8161,236.86662 3.309,435.01662 3.3175,440.33332 l 0.015,9.6667 h 54 54 l -0.021,-39.6667 z m 134.732,-2.6667 c 0.1232,-118.682 -4.2825,-952.3024 -5.0974,-964.48696 l -0.9465,-14.15365 -30,11.59683 c -16.5,6.37825 -40.8,16.37145 -54,22.2071 l -24,10.61028 -0.3763,47.94656 c -0.2069,26.3706 0.8459,239.64655 2.3396,473.94655 1.4937,234.29999 2.713,432.44999 2.7096,440.33329 l -0.01,14.3334 h 54.6664 54.6667 l 0.044,-42.3334 z m 139.4687,-122 c -0.4806,-90.3833 -1.5319,-329.93329 -2.3362,-532.33329 -0.8043,-202.4 -1.6949,-368.24685 -1.9791,-368.54857 -1.0016,-1.06334 -50.8808,13.273 -79.5924,22.87653 l -29.0617,9.72061 0.029,51.30906 c 0.062,108.65686 4.3538,978.06236 4.8355,979.64236 0.3956,1.2977 12.5149,1.6667 54.7431,1.6667 h 54.2351 l -0.8738,-164.3334 z m 135.1547,64.6667 c 8e-4,-132.809 -2.7683,-995.54534 -3.1968,-995.97384 -1.4372,-1.43722 -108.2431,21.04932 -109.9902,23.15693 -0.949,1.14493 2.3022,1067.64081 3.2644,1070.81691 0.3932,1.298 12.6048,1.6667 55.2134,1.6667 h 54.7085 z m 139.3147,98 c 0.3106,-0.9167 0.1418,-251.2331 -0.3752,-556.25863 l -0.9402,-554.59196 -8,0.31389 c -9.9812,0.39163 -79.2052,7.6985 -92.5164,9.76548 l -9.8497,1.52948 0.8528,437.4542 c 0.4691,240.59983 1.2331,488.30424 1.698,550.45424 l 0.8452,113 h 53.8603 c 41.898,0 53.9857,-0.3702 54.4252,-1.6667 z m 132.6846,-556.33332 v -558 l -35.6666,0.005 c -19.6167,0.003 -44.2167,0.39601 -54.6667,0.87407 l -19,0.86918 v 264.90439 c 0,145.69741 0.3996,396.40409 0.8879,557.12598 l 0.8878,292.2215 h 53.7788 53.7788 V 832.22373 Z M 2896.9772,2397.3146 c -1.645,-0.3259 -4.4636,-3.5224 -7,-7.9384 l -4.2463,-7.3929 v -51.88 -51.88 h -12.6667 -12.6666 v 4.6197 c 0,3.2552 -0.7878,5.0413 -2.6667,6.0469 -2.4808,1.3278 -2.6671,2.7944 -2.6716,21.047 0,10.7908 -0.3923,28.0884 -0.8657,38.439 l -0.8611,18.8192 -6.918,2.1808 c -3.8049,1.1994 -8.5235,2.1807 -10.4856,2.1807 -4.4789,0 -929.3393,-124.0684 -930.0587,-124.7657 -0.7668,-0.7434 2.6751,-2003.77565 3.4446,-2004.56762 0.3562,-0.36667 27.8957,-0.61506 61.1986,-0.55196 l 60.5508,0.11466 v -31.53442 -31.53443 l -4.6666,-2.22537 c -3.9111,-1.86507 -4.6722,-2.93048 -4.7006,-6.58028 -0.019,-2.3952 4.3131,-21.87293 9.626,-43.28385 8.6912,-35.024573 9.9544,-39.002799 12.5947,-39.665475 1.614,-0.405101 3.7665,-0.417329 4.7832,-0.02717 1.9492,0.747951 21.0751,76.761215 21.0457,83.643155 -0.013,2.86756 -1.0149,4.16475 -4.5065,5.82974 l -4.4907,2.14149 -0.676,31.5036 c -0.3717,17.32697 -0.3009,31.90569 0.1575,32.39715 0.4583,0.49145 14.3333,2.20074 30.8333,3.79842 37.2604,3.60792 88.9992,12.28152 126.6667,21.23467 15.7667,3.74757 29.7167,7.13761 31,7.53341 2.1723,0.66998 2.3333,-1.26316 2.3333,-28.00977 v -28.72941 l -5.3333,-2.72083 c -3.074,-1.56827 -5.3479,-3.69781 -5.3676,-5.02709 -0.019,-1.26844 4.6215,-21.05624 10.3119,-43.97291 l 10.3461,-41.66668 h 5.0215 c 2.7618,0 5.0214,0.36158 5.0214,0.8035 0,0.44192 4.2,18.16473 9.3334,39.38405 5.1333,21.21929 9.3333,40.91889 9.3333,43.77686 0,4.72835 -0.4203,5.34831 -4.6667,6.88382 l -4.6666,1.68749 v 33.49447 33.49448 l 18.3333,5.65989 c 41.8719,12.92676 136.1595,51.60661 166.7497,68.40621 5.3623,2.94488 9.9551,5.1417 10.206,4.88179 0.2511,-0.25989 0.8886,-10.99768 1.4167,-23.86173 l 0.9601,-23.38919 -5.4996,-2.47997 c -4.7326,-2.13415 -5.498,-3.05603 -5.4878,-6.61082 0,-2.27196 4.6845,-22.43084 10.3958,-44.7975 l 10.3842,-40.66667 4.8138,-0.40645 4.814,-0.40647 2.068,9.07313 c 1.1375,4.99022 5.7155,24.07066 10.1734,42.40096 4.4578,18.33032 7.9329,34.52798 7.7221,35.9948 -0.226,1.57343 -2.4332,3.63014 -5.3831,5.01599 l -5,2.34903 v 32.39048 32.39049 l 6.3334,3.07469 c 23.8584,11.58272 126.3584,75.65955 157,98.14695 5.1333,3.76727 16.0833,11.76319 24.3333,17.76869 l 15,10.91911 V 485.15926 460.0505 l -4.6667,-2.22537 c -4.1125,-1.96113 -4.6669,-2.82164 -4.6688,-7.24695 0,-2.76186 4.6488,-23.17088 10.3334,-45.35337 l 10.3354,-40.3318 5,-10e-4 c 2.75,-8.4e-4 5,0.1935 5,0.43188 0,0.23837 4.5,19.12441 10,41.96897 5.5,22.84455 10,43.05437 10,44.91071 0,2.69314 -1.0777,3.80638 -5.3333,5.50914 l -5.3333,2.13365 v 19.52189 c 0,10.73704 -0.3792,27.02189 -0.8363,36.18856 l -0.8309,16.66667 31.1696,24.73588 c 17.1433,13.60474 46.9197,38.40908 66.1697,55.12076 l 35,30.38486 v 34.89186 c 0,33.44784 0.1107,34.96077 2.6667,36.55721 1.943,1.21351 2.6666,3.10936 2.6666,6.98739 0,4.18005 0.5007,5.32185 2.3334,5.32117 2.4614,-9.1e-4 2.57,9.27481 1.3289,113.66887 l -0.3289,27.66801 10.1906,-10e-4 c 8.0618,-10e-4 10.3598,-0.44194 11,-2.11039 0.4452,-1.15997 0.8099,-19.00997 0.8106,-39.66667 8e-4,-20.65668 0.3992,-72.22242 0.8854,-114.59053 l 0.8843,-77.03293 47.4479,-29.78647 47.4478,-29.78645 0.8234,-41.18062 c 0.4528,-22.64933 0.9028,-45.88445 1,-51.6336 l 0.1766,-10.45297 51.8899,0.45297 c 28.5395,0.24915 52.2175,0.78092 52.6177,1.18174 0.5331,0.53384 -22.5178,1922.90563 -23.0817,1924.93783 -0.1579,0.5687 -181.9277,0 -184.8463,-0.5753 z m -94.846,-118.0343 c 0.4537,-21.4185 0.6584,-39.1094 0.4548,-39.3132 -0.2038,-0.2036 -3.2174,3.5072 -6.6971,8.2464 -4.2263,5.7558 -10.1169,11.3528 -17.7424,16.8576 -9.8412,7.1046 -13.8912,9.0394 -29.3675,14.0299 -9.8736,3.1839 -19.3286,5.7889 -21.0112,5.7889 -3.7585,0 -4.6606,2.8574 -4.6853,14.84 l -0.019,8.84 18.3334,2.3758 c 10.0833,1.3065 25.5333,3.4065 34.3333,4.6665 8.8,1.26 18.1544,2.3629 20.7876,2.4511 l 4.7876,0.16 0.8251,-38.943 z m -108.4003,14.4884 v -11.121 l -7.6667,-1.6846 c -21.2092,-4.6597 -49.8313,-28.2018 -64.9308,-53.4065 -4.6129,-7.7 -8.7092,-14.9 -9.1028,-16 -0.3937,-1.1 -0.9221,16.8268 -1.1744,39.8372 -0.297,27.1008 0.013,42.0071 0.8747,42.3192 1.0755,0.3888 74.3369,10.4345 80.3333,11.0155 1.2131,0.1173 1.6667,-2.8656 1.6667,-10.9598 z m -119.384,-25.2121 c 0.4933,-11.1833 0.7065,-30.4248 0.4737,-42.7588 l -0.423,-22.4255 -8.4922,11.9354 c -6.5709,9.2354 -11.0404,13.8228 -19.7569,20.2786 -9.8969,7.3302 -13.4543,9.0494 -29.2932,14.1568 -9.9155,3.1974 -19.1749,5.8135 -20.5763,5.8135 -2.3088,0 -2.5481,1.0647 -2.5481,11.3333 0,6.2334 0.15,11.3802 0.3333,11.4372 0.8006,0.2496 75.2198,10.299 77.193,10.4239 1.9089,0.1213 2.3092,-2.4949 3.0897,-20.1944 z m -109.9493,-4.7212 v -10.3879 l -8.4963,-2.2638 c -4.6729,-1.2452 -14.1229,-5.5872 -21,-9.6488 -17.462,-10.3134 -29.6479,-22.7124 -41.2567,-41.9783 l -9.2392,-15.3333 -0.2706,35 c -0.1488,19.25 -0.3006,37.2285 -0.3372,39.9521 l -0.067,4.9521 36.6667,4.9064 c 20.1666,2.6984 38.3166,4.9699 40.3333,5.0478 l 3.6667,0.1416 z m -116,-45.6121 c 0,-22.7334 -0.1831,-41.3334 -0.4068,-41.3334 -0.2238,0 -3.8988,4.95 -8.1668,11 -11.7615,16.672 -24.5762,25.731 -46.4791,32.8567 -9.2585,3.0121 -18.3593,5.4767 -20.2239,5.4767 -3.3653,0 -3.3901,0.083 -3.3901,11.3333 0,6.2333 0.15,11.3751 0.3333,11.4261 0.5643,0.1571 74.8923,10.2619 76.6667,10.4228 1.3008,0.1174 1.6667,-8.9238 1.6667,-41.1822 z m 388.0958,33.9717 c 9.2103,-3.1641 23.1442,-14.2515 30.5008,-24.27 26.9578,-36.7117 21.0487,-90.9304 -13.813,-126.7432 -20.0555,-20.6028 -50.0256,-30.7139 -70.0731,-23.6407 -16.8851,5.9574 -33.878,25.3702 -41.4469,47.3488 -4.011,11.6471 -4.3639,14.0083 -4.384,29.3334 -0.02,15.318 0.335,17.7456 4.388,30 5.9882,18.1062 14.7732,32.3401 27.6233,44.7573 12.128,11.7195 22.1965,17.8284 36.3363,22.0465 11.9454,3.5636 22.7094,3.9708 30.8686,1.1679 z m -495.0397,-17.5061 -0.3895,-10.2011 -8,-2.2036 c -4.4,-1.212 -13.7,-5.5889 -20.6666,-9.7264 -15.4907,-9.2 -28.985,-23.3353 -40.3222,-42.2375 l -7.6553,-12.7637 -0.013,39 c -0.013,30.2892 0.361,39.0117 1.6554,39.0527 0.9167,0.029 16.3667,2.0632 34.3334,4.5205 17.9666,2.4575 34.6418,4.5337 37.0561,4.614 l 4.3893,0.1461 -0.3893,-10.201 z m -113.0561,-43.799 c 0,-21.6333 -0.2251,-39.3333 -0.5002,-39.3333 -0.275,0 -3.5408,4.3985 -7.2573,9.7745 -9.9897,14.4507 -23.5183,24.4018 -41.6212,30.6147 -7.7249,2.6513 -16.5749,5.2251 -19.6667,5.7193 l -5.6213,0.899 v 11.0812 11.0813 l 5.6667,0.8191 c 20.0006,2.8913 62.2728,8.4122 65.3333,8.5329 l 3.6667,0.1447 z m 377.1902,31.5104 c 16.5152,-6.2753 32.3983,-24.0306 40.1151,-44.8437 4.2087,-11.3513 4.4531,-12.9729 4.5219,-30 0.065,-16.0485 -0.3299,-19.3011 -3.6395,-30 -12.168,-39.3355 -46.0039,-68.6667 -79.2125,-68.6667 -10.676,0 -17.1162,2.494 -27.4886,10.6454 -21.821,17.1485 -33.571,47.1844 -30.1774,77.1412 2.714,23.9589 12.8876,45.3302 29.8156,62.6333 19.8244,20.2636 47.7854,30.0363 66.0654,23.0905 z m -479.8569,-15.4732 v -9.9626 l -7.6667,-2.174 c -19.7349,-5.5959 -45.9712,-26.7126 -56.7648,-45.6882 l -5.5685,-9.7898 -0.3567,33.6542 c -0.1961,18.5099 -0.032,33.9783 0.3634,34.3743 0.689,0.6892 60.783,9.1332 66.9933,9.4135 2.8555,0.1293 3,-0.3443 3,-9.8274 z m 256.1344,-12.9113 c 7.2124,-2.4519 20.5273,-13.8257 27.5456,-23.5296 25.6425,-35.4553 18.7911,-91.2805 -15.2711,-124.4283 -16.4405,-15.9992 -37.6786,-24.894 -53.7422,-22.508 -10.0244,1.4891 -11.3908,2.1044 -21.5486,9.7044 -10.8896,8.1476 -19.594,20.4227 -25.3977,35.816 -3.972,10.5351 -4.2079,12.1871 -4.2565,29.8196 -0.047,16.8598 0.3138,19.8283 3.7225,30.6667 9.6011,30.5276 33.3621,56.1852 58.8136,63.5083 9.3575,2.6924 23.6823,3.1444 30.1344,0.9509 z m -217.8619,-27.5317 c 9.0807,-3.6622 21.1482,-14.0875 27.6731,-23.9075 23.2951,-35.0587 17.7127,-85.7557 -13.2051,-119.9208 -16.2509,-17.958 -44.2081,-28.4839 -60.8749,-22.9193 -8.8795,2.9645 -22.1463,14.405 -29.0916,25.0868 -9.9379,15.2846 -13.7607,28.7784 -13.806,48.7333 -0.032,14.2825 0.4135,17.4312 4.1551,29.3333 9.7749,31.094 32.3846,55.5351 58.3892,63.1186 11.2722,3.2872 19.4293,3.4321 26.7602,0.4756 z m 824.4028,-67.9275 c 0,-17.4167 2.401,-257.5667 5.3247,-533.6667 2.9237,-276.1 5.3199,-512.95 5.3247,-526.3333 l 0.01,-24.3333 h -12.668 -12.6667 v 5.2577 c 0,3.941 -0.7513,5.7839 -3,7.3589 l -3,2.1012 -4.8787,475.6411 c -4.7989,467.8595 -4.8372,475.6709 -2.3333,477.4704 1.6107,1.1576 2.5453,3.426 2.5453,6.1777 0,3.1883 0.693,4.5298 2.5968,5.0276 2.5442,0.6654 2.5803,2.0596 1.7862,68.8223 l -0.8106,68.1431 h 10.8806 10.8804 l 0.013,-31.6667 z m -83.9033,-55.6873 0.2863,-63.9794 -38.5292,-4.187 c -21.191,-2.303 -38.7094,-4.0227 -38.9298,-3.8216 -0.2204,0.201 -0.7621,17.0853 -1.204,37.5206 l -0.8032,37.155 9.204,2.4498 c 15.5103,4.1284 32.8831,14.9996 46.6955,29.2202 6.5868,6.7813 14.3457,16.3297 17.2421,21.2186 2.8964,4.889 5.3755,8.7796 5.5091,8.646 0.1336,-0.1336 0.3717,-29.0336 0.5292,-64.2222 z m -161.8633,21.1405 c 9.9106,-7.2197 14.1262,-9.2997 27.9896,-13.8099 8.9768,-2.9205 18.447,-5.31 21.0449,-5.31 h 4.7235 v -38.6412 -38.6413 l -3,-0.6409 c -1.65,-0.3526 -18,-2.1774 -36.3334,-4.0552 -18.3333,-1.8779 -35.8833,-3.769 -39,-4.2026 l -5.6666,-0.7882 v 70.3122 70.3124 l 9.2869,-13.0177 c 7.5765,-10.6201 11.436,-14.5831 20.9551,-21.5176 z m -66.6816,-109.3372 c -0.5636,-0.5637 -73.0087,-8.4493 -77.6236,-8.4493 h -3.2702 v 36.572 36.5721 l 7.2052,2.0945 c 3.963,1.1522 7.5947,2.0947 8.0707,2.0947 0.476,0 6.6837,3.3407 13.7948,7.4239 17.486,10.0401 30.9131,23.3944 42.2975,42.0681 4.7476,7.7873 8.7762,14.9873 8.9526,16 0.1766,1.0128 0.482,-28.7031 0.6791,-66.0352 0.1969,-37.3321 0.1492,-68.0855 -0.1067,-68.3408 z m -162.1388,83.1316 c 10.0161,-7.5549 13.4896,-9.2867 28.2752,-14.0969 9.2709,-3.0163 18.3818,-5.484 20.2464,-5.484 h 3.3901 v -37.8283 -37.8281 l -6.3333,-0.8007 c -18.5738,-2.3481 -72.5026,-7.8079 -72.8704,-7.3773 -0.2354,0.2756 -0.7922,31.3073 -1.2374,68.9593 l -0.8093,68.4584 8.96,-12.6947 c 7.0487,-9.9868 11.3956,-14.5318 20.3787,-21.3077 z m -64.7022,-107.3059 c -0.7457,-0.7458 -67.3058,-8.1841 -73.7194,-8.2384 l -4.3334,-0.037 v 35.9053 35.9055 l 7.2052,2.0945 c 3.963,1.1521 7.6224,2.0947 8.1322,2.0947 0.5098,0 6.4174,3.2418 13.1281,7.204 16.0235,9.4608 32.1659,25.9594 42.2671,43.2 l 7.2674,12.4038 0.3462,-64.9466 c 0.1904,-35.7207 0.059,-65.2344 -0.2934,-65.5862 z m -176.0557,101.7858 c 13.7853,-20.0872 33.7479,-32.4394 61.7853,-38.2304 l 8.2176,-1.6974 v -37.0665 c 0,-22.5915 -0.496,-37.0665 -1.2701,-37.0665 -0.6985,0 -17.9012,-1.7974 -38.2281,-3.994 -20.3271,-2.1967 -37.1679,-3.7843 -37.4243,-3.5279 -0.7551,0.7551 -2.2441,132.8552 -1.4975,132.8552 0.3746,0 4.1623,-5.0727 8.4171,-11.2725 z m -43.7547,-125.5962 c -0.2476,-0.2477 -14.5036,-1.948 -31.6797,-3.7782 -17.1761,-1.8304 -33.7793,-3.6704 -36.896,-4.089 l -5.6667,-0.7608 v 35.906 35.9059 l 8.1446,2.2853 c 20.6953,5.8068 46.2906,27.4838 59.2897,50.2132 l 6.5657,11.4806 0.3464,-63.3563 c 0.1906,-34.846 0.1438,-63.5589 -0.104,-63.8067 z m -153.2089,81.615 c 10.7148,-8.4894 27.0797,-15.6894 41.9425,-18.4534 l 7.732,-1.438 -0.354,-36.726 -0.354,-36.7261 -28,-2.9397 c -15.4,-1.6168 -30.85,-3.3031 -34.3333,-3.7474 l -6.3333,-0.8076 0.015,61.7127 0.015,61.7125 4.8367,-7.3333 c 2.7532,-4.1744 9.1428,-10.7452 14.8333,-15.2537 z m 829.9409,-96.7463 c 0.1692,-22 0.3192,-47.0488 0.3334,-55.6641 l 0.025,-15.664 -38.4919,-3.733 c -21.1705,-2.053 -38.7545,-3.4702 -39.0756,-3.1493 -0.3209,0.3211 -0.945,25.2497 -1.3869,55.3971 -0.7815,53.3136 -0.7337,54.8158 1.7421,54.9072 1.4002,0.052 17.8456,1.7864 36.5456,3.8548 18.7,2.0684 35.35,3.8261 37,3.906 l 3,0.1453 0.3078,-40 z m -108.6262,-26.9723 -0.3482,-54.9721 -36.6666,-3.6021 c -20.1667,-1.9812 -38.9167,-3.6436 -41.6667,-3.6944 l -5,-0.092 v 54.6666 c 0,42.798 0.3619,54.6856 1.6667,54.7539 0.9166,0.048 16.6666,1.7733 35,3.8343 18.3333,2.061 36.49,3.8218 40.3481,3.9129 l 7.0148,0.1656 z m -119.6815,-11.6126 v -54.5851 l -5.6667,-0.7455 c -3.1166,-0.41 -18.5666,-1.9458 -34.3333,-3.413 -15.7667,-1.4672 -31.5167,-3.0248 -35,-3.4614 l -6.3333,-0.7937 v 54.6857 54.6856 l 8.3333,0.8682 c 4.5833,0.4773 20.9333,2.2496 36.3333,3.9384 15.4,1.6886 29.95,3.1457 32.3334,3.238 l 4.3333,0.1677 z m -110.6667,-11.3334 v -53.9184 l -5.6666,-0.7704 c -11.6283,-1.5812 -73.6668,-7.1705 -74.1563,-6.681 -0.6836,0.6836 -2.0465,107.2662 -1.3729,107.3681 7.243,1.0949 70.3646,7.6296 74.8625,7.7501 l 6.3333,0.1699 z m -116.6829,-7.7484 c 0.5289,-27.3166 0.7491,-51.4666 0.4889,-53.6666 l -0.4726,-4 -28.6667,-2.8206 c -15.7667,-1.5513 -33.3167,-3.2525 -39,-3.7804 l -10.3333,-0.9598 v 53.447 c 0,29.3959 0.15,53.4994 0.3333,53.5632 1.2184,0.4246 67.9572,7.6039 71.8444,7.7286 l 4.8443,0.1553 z m -107.3171,-14.3078 v -53.308 l -3,-0.6395 c -1.65,-0.3519 -16.5,-1.8789 -33,-3.3936 -16.5,-1.5148 -32.55,-3.1065 -35.6666,-3.5373 l -5.6667,-0.7832 v 53.4848 c 0,50.0157 0.1513,53.4902 2.3333,53.5718 1.2834,0.048 17.3334,1.7734 35.6667,3.8343 18.3333,2.0611 34.6833,3.8219 36.3333,3.9129 l 3,0.1656 z m -113.035,-0.6922 c 0.164,-23.1 0.314,-46.95 0.3333,-53 l 0.035,-11 -29.2864,-2.8452 c -16.1075,-1.5649 -33.0575,-3.2316 -37.6667,-3.7038 l -8.3803,-0.8586 v 52.7039 c 0,28.9871 0.15,52.7539 0.3334,52.8151 0.8696,0.2905 67.4568,7.5573 70.6666,7.712 l 3.6667,0.1766 0.2983,-42 z m -103.2828,-21.6666 c 0.1918,-28.7834 0.1918,-52.3359 0,-52.3391 -0.1919,0 -15.3488,-1.4976 -33.6822,-3.3209 -18.3333,-1.8234 -34.0833,-3.3208 -35,-3.3276 -1.3053,-0.013 -1.6666,11.354 -1.6666,52.4084 v 52.4208 l 32.3333,3.4302 c 17.7833,1.8867 33.5333,3.3474 35,3.2459 2.6119,-0.1807 2.6739,-1.2596 3.0155,-52.5177 z m 780.4364,-40.6667 c 0.065,-8.9833 0.8401,-85.3333 1.7221,-169.6667 0.882,-84.3333 1.4477,-153.5641 1.2575,-153.8461 -0.3951,-0.5855 -64.8172,-5.3527 -73.4315,-5.4337 l -5.6667,-0.053 v 16.6396 16.6396 l 5.3334,2.7208 c 3.9977,2.0395 5.3333,3.5268 5.3333,5.9392 0,1.7702 -4.8,21.6347 -10.6667,44.1435 -5.8666,22.5088 -10.6666,41.1847 -10.6666,41.5017 0,0.3171 -2.1975,0.3904 -4.8832,0.1628 l -4.8831,-0.4138 -9.7196,-40 c -5.3459,-22 -9.7423,-42.1 -9.77,-44.6667 -0.045,-4.1979 0.4841,-4.8912 5.2695,-6.9009 l 5.3197,-2.2344 v -17.9436 -17.9438 l -8.3333,-0.7968 c -21.9466,-2.0974 -74.4375,-5.1878 -75.198,-4.4273 -0.9668,0.9667 -3.8511,333.9751 -2.901,334.9252 0.3356,0.3356 16.4702,2.0985 35.8546,3.9176 19.3844,1.8191 38.0944,3.6497 41.5777,4.0681 l 6.3333,0.7607 v -11.8435 -11.8434 l -5.3333,-2.405 c -4.1423,-1.8678 -5.3333,-3.1436 -5.3333,-5.712 0,-1.8188 4.2386,-19.5776 9.4193,-39.4641 5.1805,-19.8864 10.0129,-38.4415 10.7385,-41.2333 1.2554,-4.8302 1.5556,-5.0564 6.1936,-4.6667 l 4.8744,0.4095 9.6686,40 c 5.3177,22 9.6918,41.9548 9.7204,44.3441 0.045,3.8416 -0.5652,4.5911 -5.2815,6.4781 l -5.3333,2.134 v 13.1886 c 0,11.6364 0.2746,13.1994 2.3333,13.281 1.2833,0.051 16.1333,1.4804 33,3.1768 16.8667,1.6964 33.5167,3.1548 37,3.2408 l 6.3333,0.1566 0.1187,-16.3334 z m -228.9739,-7.3333 c 0.3617,-1.2834 0.8523,-76.7268 1.0899,-167.6522 l 0.4321,-165.3188 -32.6667,-2.2306 c -17.9666,-1.227 -36.1166,-2.5266 -40.3333,-2.8882 l -7.6667,-0.6573 v 17.0044 17.0044 l 5.3334,2.4049 c 3.5142,1.5848 5.3333,3.2714 5.3333,4.9452 0,2.0291 -18.0081,73.6642 -20.7951,82.7215 -0.4993,1.6229 -2.0958,2.3333 -5.2433,2.3333 -4.1071,0 -4.6469,-0.4624 -5.8391,-5 -5.387,-20.5044 -18.7892,-77.6734 -18.7892,-80.1485 0,-2.3389 1.2648,-3.5628 5.3334,-5.1609 l 5.3333,-2.0951 v -17.716 -17.7161 l -5.6667,-0.7214 c -7.9092,-1.007 -63.1496,-4.7912 -69.8126,-4.7825 l -5.4794,0.013 -0.9906,164.7523 c -0.5448,90.6137 -0.7387,165.0043 -0.4307,165.3123 0.308,0.308 18.3131,2.234 40.0111,4.28 l 39.451,3.72 0.7776,-4.699 c 0.4278,-2.5844 0.7842,-7.5368 0.7923,-11.0052 0.013,-6.0201 -0.2272,-6.4296 -5.3187,-9.027 -4.2426,-2.1644 -5.3373,-3.4652 -5.3528,-6.3604 -0.013,-2.0018 4.6394,-21.7875 10.3334,-43.9682 l 10.3528,-40.3281 h 4.6804 4.6802 l 9.6615,39.6667 c 5.3137,21.8167 9.6575,41.6264 9.6529,44.0216 -0.013,3.6419 -0.7556,4.7112 -4.5718,6.5311 -4.52,2.1553 -4.5723,2.2818 -5.4883,13.2794 -1.0995,13.1984 -0.5465,15.1404 4.3432,15.2542 2.0397,0.048 17.5085,1.4733 34.3752,3.1689 39.56,3.9765 41.6461,4.0296 42.478,1.0781 z m -226.5465,-151.3334 c 0.5076,-72.7833 0.7308,-147.0333 0.4957,-165 l -0.4272,-32.6666 -30.6667,-2.2442 c -16.8666,-1.2342 -34.4166,-2.2842 -39,-2.3333 l -8.3333,-0.089 v 15.9729 15.973 l 5.3333,2.7208 c 3.7407,1.9084 5.3334,3.5824 5.3334,5.606 0,3.9284 -19.8911,81.4473 -21.2544,82.8316 -0.598,0.6073 -2.7912,0.9073 -4.8736,0.6666 l -3.7863,-0.4376 -9.6483,-39.3333 c -5.3064,-21.6333 -9.6757,-41.1923 -9.7094,-43.4644 -0.053,-3.6029 0.6206,-4.3989 5.272,-6.2261 l 5.3333,-2.095 v -17.3097 -17.3096 l -7.6667,-0.7993 c -13.1638,-1.3726 -69.8346,-5.0759 -70.2473,-4.5906 -0.2159,0.2538 -0.6235,73.6571 -0.9059,163.1184 l -0.5134,162.6571 31.3333,2.8919 c 17.2333,1.5905 34.7833,3.2746 39,3.7425 l 7.6667,0.8505 v -11.1525 -11.1527 l -4.7078,-2.2449 c -7.974,-3.8025 -8.3516,-0.3649 6.2975,-57.3169 l 8.1628,-31.7347 4.7673,0.4013 4.7674,0.4014 9.6625,39.3333 c 5.3144,21.6333 9.6747,40.9181 9.6897,42.8552 0.023,2.8745 -0.9532,3.9141 -5.3061,5.6559 l -5.3333,2.134 v 12.6774 c 0,12.228 0.1066,12.6811 3,12.7794 1.65,0.056 16.5,1.4774 33,3.1589 16.5,1.6815 32.7769,3.1356 36.1708,3.2315 l 6.1709,0.1744 z m -220.367,-50 c 0.2395,-89.2833 0.3574,-162.5114 0.262,-162.729 -0.1478,-0.3372 -68.7364,-5.5558 -73.4932,-5.5918 -1.2416,-0.013 -1.6666,4.074 -1.6666,16.0091 v 16.0216 l 4.6666,2.2253 c 4.0494,1.931 4.6651,2.8542 4.6547,6.9784 0,2.6142 -4.4012,21.8531 -9.7659,42.7531 l -9.7537,38 h -4.5676 -4.5675 l -9.6096,-38.6667 c -5.2852,-21.2666 -9.6352,-40.4961 -9.6666,-42.7321 -0.048,-3.4568 0.6416,-4.3181 4.6096,-5.7529 l 4.6666,-1.6876 v -17.6995 -17.6995 l -23,-1.5778 c -12.65,-0.8679 -28.1518,-1.943 -34.4485,-2.3891 l -11.4485,-0.8112 -0.8819,33.1749 c -0.4851,18.2462 -0.8832,90.6248 -0.8848,160.8415 v 127.6667 l 3.6667,0.059 c 2.0166,0.032 17.6445,1.4046 34.7285,3.0492 17.0841,1.6448 31.3341,2.7183 31.6667,2.3856 0.3326,-0.3325 0.6048,-5.1936 0.6048,-10.8022 v -10.1975 l -4.6667,-2.2253 c -4.0979,-1.9542 -4.6716,-2.8375 -4.7076,-7.247 -0.023,-2.7618 4.2825,-22.0016 9.5667,-42.7548 l 9.6074,-37.7333 4.7356,0.4 4.7356,0.3999 9.6418,39.3333 c 5.3029,21.6333 9.6669,40.6181 9.6977,42.1885 0.041,2.1094 -1.3373,3.4128 -5.2772,4.9892 l -5.3333,2.134 v 12.0527 c 0,8.4407 0.4994,12.2283 1.6666,12.6385 1.4387,0.5058 63.1879,6.7203 71.2312,7.1688 l 2.8979,0.1616 0.4355,-162.3333 z m 679.7843,-174.6666 c 0.013,-7.8834 1.5021,-162.8334 3.3192,-344.3334 1.8171,-181.49996 3.2913,-339.89996 3.276,-351.99996 l -0.028,-22 -33.4627,-27.94373 c -18.4045,-15.36905 -35.9957,-29.87784 -39.0916,-32.24175 l -5.6289,-4.29801 -0.8521,58.24175 c -1.4266,97.50824 -6.7242,732.1787 -6.1163,732.7525 0.3127,0.2952 17.6685,1.7218 38.5685,3.17 20.9,1.4484 38.45,2.7127 39,2.8096 0.55,0.097 1.007,-6.2737 1.0155,-14.157 z m -108.8571,-22 c 0.4328,-15.5834 1.9879,-183.7334 3.4556,-373.66669 1.4678,-189.93333 2.9698,-360.03333 3.3378,-378 l 0.6689,-32.66667 -12.3104,-9.32818 c -18.7579,-14.21386 -71.7135,-51.7159 -72.2437,-51.16152 -0.5655,0.59125 -7.6263,866.70786 -7.07,867.26396 0.4241,0.4241 68.8564,5.4583 77.8558,5.7273 l 5.5191,0.1651 z m -120.4921,-13.3334 c -7e-4,-45.1174 4.9675,-702.34494 5.9591,-788.33329 l 0.7842,-68 -15.5909,-10 c -8.5749,-5.5 -27.0421,-16.66728 -41.0381,-24.81619 l -25.4472,-14.81618 -0.3812,35.48285 c -0.5011,46.64812 -6.5639,898.08101 -6.397,898.38031 0.1575,0.2825 70.1326,5.3645 77.1115,5.6003 l 5,0.1689 z m -111.5201,-1.3333 c 0.425,-14.85 1.7009,-183.3 2.8352,-374.33332 1.1342,-191.03334 2.4482,-392.09872 2.9201,-446.81198 l 0.8577,-99.47865 -21.8884,-11.44819 c -12.0386,-6.29649 -30.4344,-15.3474 -40.8796,-20.11312 l -18.9912,-8.66492 -0.1106,18.9251 c -0.061,10.4088 -1.411,231.47521 -3,491.25868 -1.5891,259.7835 -2.5892,472.3879 -2.2226,472.4541 2.7482,0.4967 65.0548,4.8719 71.52,5.022 l 8.1867,0.1903 0.7728,-27 z m -116.4822,-45.3333 c 0,-75.491 3.5222,-723.06308 4.6082,-846.47038 l 0.7461,-84.8037 -31.6757,-12.04953 c -29.4398,-11.19889 -46.8359,-17.07555 -47.6259,-16.08865 -0.3732,0.4663 -4.8152,913.85376 -4.7553,977.85196 l 0.039,41.4397 30.3334,2.0263 c 16.6833,1.1144 34.3833,2.1165 39.3333,2.2269 l 9,0.2007 v -64.3333 z m -107.5773,-82.6667 c 1.7888,-292.85716 4.0593,-886.29848 3.3935,-886.96428 -0.9458,-0.94571 -65.7247,-17.67744 -72.8135,-18.80695 l -5.6667,-0.90292 -0.072,111.17041 c -0.04,61.14374 -0.8612,295.37042 -1.8256,520.50375 -0.9642,225.13329 -1.6156,409.49949 -1.4473,409.70269 0.3024,0.365 63.552,5.1004 72.7932,5.4498 l 4.7813,0.1808 0.8572,-140.3333 z m -113.7236,42 c 0.016,-49.6833 0.5815,-223.5333 1.2559,-386.33332 0.6744,-162.8 1.3897,-357.47976 1.5896,-432.6217 l 0.3634,-136.62168 -4.6193,-1.0183 c -6.5529,-1.44458 -70.7073,-9.44534 -71.1756,-8.87639 -0.7656,0.9302 -3.4475,1049.57899 -2.6863,1050.34979 0.753,0.7624 54.0356,4.8711 68.2426,5.2622 l 7,0.1927 0.029,-90.3333 z M 2029.0932,879.22328 c 0.5645,-250.25 1.0889,-486.8 1.1654,-525.66667 l 0.139,-70.66667 -14.6667,-0.91836 c -8.0667,-0.50509 -24.0424,-0.57493 -35.5015,-0.15518 l -20.8348,0.76314 -0.928,493.48854 c -0.5102,271.41872 -0.7346,506.98852 -0.4985,523.48852 l 0.4295,30 30.6666,2.1406 c 16.8667,1.1773 32.5423,2.2273 34.8346,2.3333 l 4.1678,0.1928 z"
       id="path193" />
  </g>
</svg>
